<svg id="Layer_3" enable-background="new 0 0 64 64" height="512" viewBox="0 0 64 64" width="512" xmlns="http://www.w3.org/2000/svg"><g><path d="m35 46c0 6.065-3.141 11-7 11v2c4.963 0 9-5.832 9-13z"/><path d="m52.656 29.608c.929-1.233 1.574-2.655 1.88-4.185l.445-2.227c.065-.328-.037-.667-.273-.903s-.574-.338-.903-.273l-2.227.445c-.027.005-.052.016-.079.022-1.319-5.856-5.109-10.341-9.829-11.895.922-1.229 1.561-2.646 1.866-4.169l.445-2.227c.065-.328-.037-.667-.273-.903s-.573-.338-.903-.273l-2.227.445c-2.01.402-3.837 1.38-5.284 2.828-.104.103-.196.215-.294.322v-4.615c0-.552-.447-1-1-1h-4c-.553 0-1 .448-1 1v8.403c-.985-.263-1.991-.403-3-.403-7.72 0-14 7.626-14 17 0 .792.06 1.578.149 2.356-6.357 1.604-11.149 8.456-11.149 16.644 0 9.374 6.28 17 14 17 2.067 0 4.13-.566 6-1.645 1.87 1.079 3.933 1.645 6 1.645 1.762 0 3.442-.414 4.997-1.139 3.517 1.626 7.569 1.475 11.003-.506 1.87 1.079 3.933 1.645 6 1.645 7.72 0 14-7.626 14-17 0-7.836-4.395-14.433-10.344-16.392zm.07-5.333-.151.756c-.306 1.533-1.042 2.926-2.11 4.064-.482-.062-.97-.095-1.465-.095-1.009 0-2.015.14-3 .403v-.206c.415-.929.985-1.768 1.707-2.49 1.168-1.168 2.642-1.957 4.263-2.281zm-8.726 5.874c-.336.156-.674.308-1 .495-.326-.188-.664-.341-1-.497v-8.147h2zm-7.293-22.442c1.168-1.168 2.642-1.957 4.263-2.281l.756-.151-.151.756c-.307 1.536-1.044 2.932-2.116 4.07-.481-.061-.967-.101-1.459-.101-1.009 0-2.015.14-3 .403v-.206c.415-.929.985-1.768 1.707-2.49zm-5.707-4.707h2v8.149c-.336.156-.674.308-1 .495-.326-.188-.664-.339-1-.495zm-17 24c0-8.271 5.383-15 12-15 1.912 0 3.749.557 5.46 1.656.328.212.752.212 1.08 0 1.711-1.099 3.548-1.656 5.46-1.656 5.452 0 10.189 4.612 11.583 11.105-1.219.515-2.342 1.239-3.29 2.187-.103.103-.195.216-.293.323v-4.615c0-.552-.447-1-1-1h-4c-.553 0-1 .448-1 1v8.42c-2.661-.7-5.469-.454-8.003.719-.437-.204-.884-.38-1.341-.531.929-1.233 1.574-2.655 1.88-4.185l.445-2.227c.065-.328-.037-.667-.273-.903s-.575-.338-.903-.273l-2.227.445c-2.01.402-3.837 1.38-5.284 2.828-.103.103-.195.216-.293.323v-4.616c0-.552-.447-1-1-1h-4c-.553 0-1 .448-1 1v8.403c-.986-.263-1.992-.403-3.001-.403-.295 0-.584.032-.874.054-.075-.679-.126-1.364-.126-2.054zm8 3.149c-.336.156-.674.308-1 .495-.326-.188-.664-.339-1-.495v-8.149h2zm2-.952c.415-.929.985-1.768 1.707-2.49 1.168-1.168 2.642-1.957 4.263-2.281l.756-.151-.151.756c-.306 1.533-1.042 2.926-2.11 4.064-.482-.062-.97-.095-1.465-.095-1.009 0-2.015.14-3 .403zm-2.46 30.147c-.164-.105-.353-.158-.54-.158-.188 0-.376.053-.54.158-1.711 1.099-3.548 1.656-5.46 1.656-6.617 0-12-6.729-12-15s5.383-15 12-15c1.912 0 3.749.557 5.46 1.656.328.212.752.212 1.08 0 1.711-1.099 3.548-1.656 5.46-1.656 6.617 0 12 6.729 12 15s-5.383 15-12 15c-1.912 0-3.749-.557-5.46-1.656zm27.46 1.656c-1.912 0-3.749-.557-5.46-1.656-.328-.211-.752-.211-1.08 0-2.568 1.651-5.522 2.041-8.271 1.217 4.072-2.976 6.811-8.381 6.811-14.561s-2.739-11.585-6.812-14.561c2.749-.824 5.703-.433 8.271 1.216.328.212.752.212 1.08 0 1.712-1.098 3.549-1.655 5.461-1.655 6.617 0 12 6.729 12 15s-5.383 15-12 15z"/><path d="m57 46c0 6.065-3.141 11-7 11v2c4.963 0 9-5.832 9-13z"/></g></svg>