<svg id="Layer_3" enable-background="new 0 0 64 64" height="512" viewBox="0 0 64 64" width="512" xmlns="http://www.w3.org/2000/svg"><g><path d="m62 38h-60c-.552 0-1 .448-1 1v4c0 .552.448 1 1 1h1v1c0 4.962 4.038 9 9 9h40c4.962 0 9-4.038 9-9v-1h1c.552 0 1-.448 1-1v-4c0-.552-.448-1-1-1zm-3 7c0 3.86-3.14 7-7 7h-40c-3.86 0-7-3.14-7-7v-1h54zm2-3h-58v-2h58z"/><path d="m3.474 35.851c.161.099.343.149.526.149.153 0 .306-.035.447-.105l2.742-1.372c.686-.342 1.452-.523 2.217-.523h.792c.981 0 1.931.288 2.748.832 1.146.764 2.48 1.168 3.857 1.168h.792c1.074 0 2.149-.254 3.11-.734l1.485-.743c.685-.342 1.451-.523 2.216-.523h.792c.981 0 1.931.288 2.748.832l1.5 1c.306.205.702.224 1.026.05.325-.174.528-.513.528-.882v-8c0-.334-.167-.646-.445-.832l-1.5-1c-1.147-.764-2.481-1.168-3.858-1.168h-.792c-1.074 0-2.149.254-3.11.734l-1.485.743c-.685.342-1.451.523-2.216.523h-.792c-.981 0-1.931-.288-2.748-.832-1.146-.764-2.48-1.168-3.857-1.168h-.791c-1.074 0-2.149.254-3.11.734l-2.743 1.372c-.339.169-.553.515-.553.894v8c0 .347.18.668.474.851zm21.723-3.851h-.792c-1.074 0-2.149.254-3.11.734l-1.485.743c-.685.342-1.451.523-2.216.523h-.792c-.981 0-1.931-.288-2.748-.832-1.146-.764-2.48-1.168-3.857-1.168h-.791c-1.074 0-2.149.254-3.11.734l-1.296.648v-1.764l2.189-1.095c.686-.342 1.452-.523 2.217-.523h.792c.981 0 1.931.288 2.748.832 1.146.764 2.48 1.168 3.857 1.168h.792c1.074 0 2.149-.254 3.11-.734l1.485-.743c.685-.342 1.451-.523 2.216-.523h.792c.981 0 1.931.288 2.748.832l1.054.703v1.597c-1.134-.741-2.447-1.132-3.803-1.132zm-18.008-5.477c.686-.342 1.452-.523 2.217-.523h.792c.981 0 1.931.288 2.748.832 1.146.764 2.48 1.168 3.857 1.168h.792c1.074 0 2.149-.254 3.11-.734l1.485-.743c.685-.342 1.451-.523 2.216-.523h.792c.981 0 1.931.288 2.748.832l1.054.703v1.602c-1.135-.742-2.447-1.137-3.803-1.137h-.792c-1.074 0-2.149.254-3.11.734l-1.485.743c-.685.342-1.451.523-2.216.523h-.792c-.981 0-1.931-.288-2.748-.832-1.146-.764-2.48-1.168-3.857-1.168h-.791c-1.074 0-2.149.254-3.11.734l-1.296.648v-1.764z"/><path d="m40.197 24h-.792c-1.074 0-2.149.254-3.11.734l-2.743 1.372c-.338.169-.552.515-.552.894v8c0 .347.18.668.474.851.161.099.343.149.526.149.153 0 .306-.035.447-.105l2.742-1.372c.686-.342 1.452-.523 2.217-.523h.792c.981 0 1.931.288 2.748.832 1.146.764 2.48 1.168 3.857 1.168h.792c1.074 0 2.149-.254 3.11-.734l1.485-.743c.685-.342 1.451-.523 2.216-.523h.792c.981 0 1.931.288 2.748.832l1.5 1c.307.205.702.224 1.026.05.325-.174.528-.513.528-.882v-8c0-.334-.167-.646-.445-.832l-1.5-1c-1.147-.764-2.481-1.168-3.858-1.168h-.792c-1.074 0-2.149.254-3.11.734l-1.485.743c-.685.342-1.451.523-2.216.523h-.792c-.981 0-1.931-.288-2.748-.832-1.146-.764-2.48-1.168-3.857-1.168zm15 8h-.792c-1.074 0-2.149.254-3.11.734l-1.485.743c-.685.342-1.451.523-2.216.523h-.792c-.981 0-1.931-.288-2.748-.832-1.146-.764-2.48-1.168-3.857-1.168h-.792c-1.074 0-2.149.254-3.11.734l-1.295.648v-1.764l2.189-1.095c.686-.342 1.452-.523 2.217-.523h.792c.981 0 1.931.288 2.748.832 1.146.764 2.48 1.168 3.857 1.168h.792c1.074 0 2.149-.254 3.11-.734l1.485-.743c.685-.342 1.451-.523 2.216-.523h.792c.981 0 1.931.288 2.748.832l1.054.703v1.597c-1.134-.741-2.447-1.132-3.803-1.132zm-7.603-4c1.074 0 2.149-.254 3.11-.734l1.485-.743c.686-.342 1.452-.523 2.217-.523h.792c.981 0 1.931.288 2.748.832l1.054.703v1.602c-1.135-.742-2.447-1.137-3.803-1.137h-.792c-1.074 0-2.149.254-3.11.734l-1.485.743c-.685.342-1.451.523-2.216.523h-.792c-.981 0-1.931-.288-2.748-.832-1.146-.764-2.48-1.168-3.857-1.168h-.792c-1.074 0-2.149.254-3.11.734l-1.295.648v-1.764l2.189-1.095c.686-.342 1.452-.523 2.217-.523h.792c.981 0 1.931.288 2.748.832 1.146.764 2.48 1.168 3.857 1.168z"/><path d="m18.474 23.851c.161.099.343.149.526.149.153 0 .306-.035.447-.105l2.742-1.372c.686-.342 1.452-.523 2.217-.523h.792c.981 0 1.931.288 2.748.832 1.146.764 2.48 1.168 3.857 1.168h.792c1.074 0 2.149-.254 3.11-.734l1.485-.743c.685-.342 1.451-.523 2.216-.523h.792c.981 0 1.931.288 2.748.832l1.5 1c.307.205.701.224 1.026.05s.528-.513.528-.882v-8c0-.334-.167-.646-.445-.832l-1.5-1c-1.147-.764-2.481-1.168-3.858-1.168h-.792c-1.074 0-2.149.254-3.11.734l-1.485.743c-.685.342-1.451.523-2.216.523h-.792c-.981 0-1.931-.288-2.748-.832-1.146-.764-2.48-1.168-3.857-1.168h-.792c-1.074 0-2.149.254-3.11.734l-2.743 1.372c-.338.169-.552.515-.552.894v8c0 .347.18.668.474.851zm21.723-3.851h-.792c-1.074 0-2.149.254-3.11.734l-1.485.743c-.685.342-1.451.523-2.216.523h-.792c-.981 0-1.931-.288-2.748-.832-1.146-.764-2.48-1.168-3.857-1.168h-.792c-1.074 0-2.149.254-3.11.734l-1.295.648v-1.764l2.189-1.095c.686-.342 1.452-.523 2.217-.523h.792c.981 0 1.931.288 2.748.832 1.146.764 2.48 1.168 3.857 1.168h.792c1.074 0 2.149-.254 3.11-.734l1.485-.743c.685-.342 1.451-.523 2.216-.523h.792c.981 0 1.931.288 2.748.832l1.054.703v1.597c-1.134-.741-2.447-1.132-3.803-1.132zm-18.008-5.477c.686-.342 1.452-.523 2.217-.523h.792c.981 0 1.931.288 2.748.832 1.146.764 2.48 1.168 3.857 1.168h.792c1.074 0 2.149-.254 3.11-.734l1.485-.743c.685-.342 1.451-.523 2.216-.523h.792c.981 0 1.931.288 2.748.832l1.054.703v1.602c-1.135-.742-2.447-1.137-3.803-1.137h-.792c-1.074 0-2.149.254-3.11.734l-1.485.743c-.685.342-1.451.523-2.216.523h-.792c-.981 0-1.931-.288-2.748-.832-1.146-.764-2.48-1.168-3.857-1.168h-.792c-1.074 0-2.149.254-3.11.734l-1.295.648v-1.764z"/></g></svg>