<svg id="Layer_3" enable-background="new 0 0 64 64" height="512" viewBox="0 0 64 64" width="512" xmlns="http://www.w3.org/2000/svg"><g><path d="m62 55h-8.559c-2.215-2.355-3.441-5.408-3.441-8.657v-2.021c5.926-2.006 10-8.186 10-15.322 0-.552-.447-1-1-1h-.468c.31-1.297.468-2.637.468-4 0-8.271-5.832-15-13-15s-13 6.729-13 15c0 1.363.158 2.703.468 4h-.468c-.553 0-1 .448-1 1 0 7.136 4.074 13.316 10 15.322v2.021c0 3.248-1.226 6.302-3.441 8.657h-14.559v-5c0-.495-.132-.956-.346-1.368 1.38-.632 2.346-2.018 2.346-3.632 0-2.206-1.794-4-4-4v-.5c0-1.345.523-2.609 1.475-3.561l.465-.465c1.329-1.328 2.06-3.095 2.06-4.974s-.731-3.646-2.061-4.975l-.465-.465c-.951-.951-1.474-2.215-1.474-3.56v-5.5h1c.553 0 1-.448 1-1v-4c0-.552-.447-1-1-1h-1v-3c0-.552-.447-1-1-1h-2.556c.344-.591.556-1.268.556-2 0-2.206-1.794-4-4-4s-4 1.794-4 4c0 .732.212 1.409.556 2h-2.556c-.553 0-1 .448-1 1v3h-1c-.553 0-1 .448-1 1v4c0 .552.447 1 1 1h1v5.5c0 1.345-.523 2.609-1.475 3.561l-.465.465c-1.329 1.328-2.06 3.095-2.06 4.974s.731 3.646 2.061 4.975l.465.465c.951.951 1.474 2.215 1.474 3.56v.5c-2.206 0-4 1.794-4 4 0 1.614.966 3 2.346 3.632-.214.412-.346.873-.346 1.368v5h-4c-.553 0-1 .448-1 1v6c0 .552.447 1 1 1h60c.553 0 1-.448 1-1v-6c0-.552-.447-1-1-1zm-27-31c0-6.552 4.126-11.972 9.466-12.858l-1.395 3.487c-.105.266-.094.563.034.819l1.835 3.669-.91 3.641 1.939.485 1-4c.059-.232.031-.477-.075-.69l-1.799-3.598 1.566-3.915c5.758.407 10.339 6.055 10.339 12.96 0 1.371-.189 2.711-.543 4h-20.914c-.353-1.289-.543-2.629-.543-4zm9 22.343v-2.761c0-.451-.302-.846-.736-.965-5.174-1.412-8.868-6.523-9.234-12.617h23.94c-.366 6.094-4.06 11.205-9.233 12.618-.435.119-.737.514-.737.965v2.761c0 3.161 1.008 6.159 2.847 8.657h-9.695c1.84-2.499 2.848-5.497 2.848-8.658zm-31-41.343c0-1.103.897-2 2-2s2 .897 2 2-.897 2-2 2-2-.897-2-2zm-3 4h10v2h-10zm-2 4h14v2h-14zm-.061 22.525-.465-.465c-.951-.951-1.474-2.215-1.474-3.56s.523-2.609 1.475-3.561l.465-.465c1.329-1.328 2.06-3.095 2.06-4.974v-5.5h10v5.5c0 1.879.731 3.646 2.061 4.975l.465.465c.951.951 1.474 2.215 1.474 3.56s-.523 2.609-1.475 3.561l-.465.465c-1.329 1.328-2.06 3.095-2.06 4.974v.5h-10v-.5c0-1.879-.731-3.646-2.061-4.975zm.061 7.475h14c1.103 0 2 .897 2 2s-.897 2-2 2h-1-12-1c-1.103 0-2-.897-2-2s.897-2 2-2zm0 7c0-.551.448-1 1-1h12c.552 0 1 .449 1 1v5h-14zm53 11h-58v-4h58z"/></g></svg>