<svg id="Layer_3" enable-background="new 0 0 64 64" height="512" viewBox="0 0 64 64" width="512" xmlns="http://www.w3.org/2000/svg"><g><path d="m11 30.191v17.809c0 .553.447 1 1 1h18c.553 0 1-.447 1-1v-17.809c1.842-1.064 3-3.036 3-5.191 0-3.309-2.691-6-6-6h-14c-3.309 0-6 2.691-6 6 0 2.155 1.158 4.127 3 5.191zm3-9.191h14c2.206 0 4 1.794 4 4 0 1.586-.942 3.023-2.401 3.662-.364.159-.599.519-.599.916v17.422h-16v-17.422c0-.397-.235-.757-.599-.916-1.459-.639-2.401-2.076-2.401-3.662 0-2.206 1.794-4 4-4z"/><path d="m13.757 34h8.485v2h-8.485z" transform="matrix(.707 -.707 .707 .707 -19.477 22.979)"/><path d="m19.757 34h8.485v2h-8.485z" transform="matrix(.707 -.707 .707 .707 -17.719 27.222)"/><path d="m31.586 8c.267.268.414.622.414 1s-.147.732-.414 1l-1.293 1.293 1.414 1.414 1.293-1.293c.645-.644 1-1.502 1-2.414s-.355-1.77-1-2.414l-.586-.586c-.267-.268-.414-.622-.414-1s.147-.732.414-1l1.293-1.293-1.414-1.414-1.293 1.293c-.645.644-1 1.502-1 2.414s.355 1.77 1 2.414z"/><path d="m37.586 9c.267.268.414.622.414 1s-.147.732-.414 1l-1.293 1.293 1.414 1.414 1.293-1.293c.645-.645 1-1.502 1-2.414s-.355-1.77-1-2.414l-.586-.586c-.267-.268-.414-.622-.414-1s.147-.732.414-1l1.293-1.293-1.414-1.414-1.293 1.293c-.645.644-1 1.502-1 2.414s.355 1.77 1 2.414z"/><path d="m25.586 9c.267.268.414.622.414 1s-.147.732-.414 1l-1.293 1.293 1.414 1.414 1.293-1.293c.645-.645 1-1.502 1-2.414s-.355-1.77-1-2.414l-.586-.586c-.267-.268-.414-.622-.414-1s.147-.732.414-1l1.293-1.293-1.414-1.414-1.293 1.293c-.645.644-1 1.502-1 2.414s.355 1.77 1 2.414z"/><path d="m60 51h-3v-18.873c1.912-1.878 3-4.45 3-7.127 0-5.514-4.486-10-10-10h-22-14c-5.514 0-10 4.486-10 10 0 2.677 1.088 5.249 3 7.127v18.873h-3c-1.654 0-3 1.346-3 3s1.346 3 3 3h1.723l9.762 5.857c.156.094.333.143.515.143h32c.182 0 .359-.049.515-.143l9.762-5.857h1.723c1.654 0 3-1.346 3-3s-1.346-3-3-3zm-10-34c4.411 0 8 3.589 8 8 0 2.261-.973 4.43-2.668 5.95-.211.19-.332.46-.332.744v19.306h-20v-18.873c1.912-1.878 3-4.45 3-7.127 0-3.273-1.588-6.175-4.026-8zm-41.332 13.95c-1.695-1.52-2.668-3.689-2.668-5.95 0-4.411 3.589-8 8-8h14c4.411 0 8 3.589 8 8 0 2.261-.973 4.43-2.668 5.95-.211.19-.332.46-.332.744v19.306h-24v-19.306c0-.284-.121-.554-.332-.744zm39.055 30.05h-31.446l-6.667-4h44.78zm12.277-6h-56c-.552 0-1-.448-1-1s.448-1 1-1h56c.552 0 1 .448 1 1s-.448 1-1 1z"/></g></svg>