<svg id="Layer_3" enable-background="new 0 0 64 64" height="512" viewBox="0 0 64 64" width="512" xmlns="http://www.w3.org/2000/svg"><g><path d="m62 55h-3v-16.142c1.721-.447 3-2 3-3.858 0-2.206-1.794-4-4-4h-15.026c.635-.838 1.026-1.87 1.026-3 0-2.389-1.687-4.387-3.932-4.879.187-1.334.791-2.566 1.76-3.535l.879-.879-1.414-1.414-.879.879c-1.341 1.341-2.16 3.064-2.362 4.924-2.304.445-4.052 2.472-4.052 4.904 0 1.13.391 2.162 1.026 3h-6.026v-19c0-.552-.447-1-1-1h-3v-4h3c.553 0 1-.448 1-1v-4c0-.552-.447-1-1-1h-6c-1.654 0-3 1.346-3 3v7h-17c-.553 0-1 .448-1 1v44c0 1.654 1.346 3 3 3h11.685c1.126 2.361 3.53 4 6.315 4h34c3.859 0 7-3.14 7-7 0-.552-.447-1-1-1zm-41 0v-16h6c.552 0 1 .449 1 1v5c0 2.206 1.794 4 4 4s4-1.794 4-4v-2c0-.551.448-1 1-1s1 .449 1 1v4c0 2.206 1.794 4 4 4s4-1.794 4-4v-6c0-.551.448-1 1-1s1 .449 1 1v1c0 2.206 1.794 4 4 4s4-1.794 4-4v-2c0-.551.448-1 1-1v16zm39-20c0 1.103-.897 2-2 2h-1c-1.654 0-3 1.346-3 3v2c0 1.103-.897 2-2 2s-2-.897-2-2v-1c0-1.654-1.346-3-3-3s-3 1.346-3 3v6c0 1.103-.897 2-2 2s-2-.897-2-2v-4c0-1.654-1.346-3-3-3s-3 1.346-3 3v2c0 1.103-.897 2-2 2s-2-.897-2-2v-5c0-1.654-1.346-3-3-3h-7c-1.103 0-2-.897-2-2s.897-2 2-2h38c1.103 0 2 .897 2 2zm-24-7c0-1.654 1.346-3 3-3s3 1.346 3 3-1.346 3-3 3-3-1.346-3-3zm-16 3c-2.206 0-4 1.794-4 4 0 1.858 1.279 3.411 3 3.858v12.142h-16v-28.586l1-1c.535-.535 1.465-.535 2 0l.586.586c1.291 1.289 3.537 1.29 4.828 0l.586-.585c.535-.535 1.465-.535 2 0l.586.585c1.291 1.289 3.537 1.29 4.828 0l.586-.585c.535-.535 1.465-.535 2 0l.586.585c.646.645 1.503 1 2.414 1 .73 0 1.42-.237 2-.66v8.66zm1-18h2v6.666c-.586-.416-1.29-.633-2-.633zm6 0v6.586l-1 1c-.268.268-.634.401-1 .401v-7.987zm-6-9c0-.551.448-1 1-1h5v2h-3c-.553 0-1 .448-1 1v5h-2zm-2 9v6.666c-.144.102-.287.207-.414.334l-.586.585c-.535.535-1.465.535-2 0l-.586-.585c-1.291-1.289-3.537-1.29-4.828 0l-.586.585c-.535.535-1.465.535-2 0l-.586-.585c-1.164-1.162-3.097-1.267-4.414-.334v-6.666zm-3 42c-.553 0-1 .448-1 1 0 .34.033.672.08 1h-11.08c-.552 0-1-.449-1-1v-3h16v2zm40 6h-34c-2.415 0-4.435-1.721-4.899-4h43.799c-.465 2.279-2.485 4-4.9 4z"/><path d="m8 41c-1.654 0-3 1.346-3 3s1.346 3 3 3 3-1.346 3-3-1.346-3-3-3zm0 4c-.552 0-1-.449-1-1s.448-1 1-1 1 .449 1 1-.448 1-1 1z"/><path d="m22 24c-1.654 0-3 1.346-3 3s1.346 3 3 3 3-1.346 3-3-1.346-3-3-3zm0 4c-.552 0-1-.449-1-1s.448-1 1-1 1 .449 1 1-.448 1-1 1z"/></g></svg>