<svg id="Layer_3" enable-background="new 0 0 64 64" height="512" viewBox="0 0 64 64" width="512" xmlns="http://www.w3.org/2000/svg"><g><path d="m62.995 14c0-.194-.051-.387-.163-.555l-3.832-5.748v-5.697c0-.553-.447-1-1-1h-18c-.553 0-1 .447-1 1v5.697l-3.832 5.748c-.111.167-.162.361-.163.555h-.005v19.434c-.623-.277-1.3-.434-2-.434-1.568 0-3.04.752-3.979 2-.007 0-.015 0-.021 0-1.087 0-2.138.363-3 1.019-1.232-.936-2.869-1.249-4.373-.806l-14.92-14.92c-.391-.391-1.023-.391-1.414 0l-4 4c-.391.391-.391 1.023 0 1.414l9.733 9.733c-.781.34-1.483.865-2.005 1.56-.006 0-.014 0-.021 0-2.414 0-4.434 1.721-4.899 4h-2.08c-.391 0-.745.228-.908.582s-.105.772.148 1.068l1.411 1.646c2.96 3.454 5.19 7.394 6.63 11.711.596 1.79 2.265 2.993 4.153 2.993h.565v3c0 .553.447 1 1 1h23.98c.553 0 1-.447 1-1v-1h22c.553 0 1-.447 1-1v-33-7-6zm-1.995 5h-24v-4h24zm-8.092 22.582c-.163-.354-.517-.582-.908-.582h-2c0-2.757-2.243-5-5-5-.008 0-.016 0-.023 0-1.582-1.183-3.793-1.309-5.477-.314-.769-.453-1.597-.675-2.521-.686h.021v-14h6v10c0 1.654 1.346 3 3 3s3-1.346 3-3v-2c0-.552.448-1 1-1s1 .448 1 1v8c0 1.654 1.346 3 3 3s3-1.346 3-3v-4c0-1.103.897-2 2-2 .732 0 1.409-.212 2-.556v20.556h-14.164c1.236-2.392 2.74-4.636 4.512-6.703l1.411-1.646c.255-.297.312-.713.149-1.069zm6.092-12.582c-2.206 0-4 1.794-4 4v4c0 .552-.448 1-1 1s-1-.448-1-1v-8c0-1.654-1.346-3-3-3s-3 1.346-3 3v2c0 .552-.448 1-1 1s-1-.448-1-1v-10h16v6c0 1.103-.897 2-2 2zm-18-26h16v4h-16zm-.465 6h16.93l2.667 4h-22.264zm-34.535 13.414 11.621 11.621c-1.1.085-2.138.516-2.957 1.262-.394-.144-.799-.217-1.205-.253l-10.045-10.044zm3 16.586c.097 0 .19.016.283.029l.115.016c.409.047.801-.147 1-.503.774-1.379 2.534-1.972 4.023-1.163.427.231.954.125 1.257-.25.58-.718 1.426-1.129 2.322-1.129s1.742.411 2.321 1.129c.302.375.829.481 1.257.25 1.292-.7 2.759-.383 3.669.659.381.434 1.125.434 1.506 0 .65-.743 1.61-1.143 2.53-1.009l.115.016c.41.049.8-.146 1-.503.535-.951 1.532-1.542 2.602-1.542s2.067.591 2.602 1.542c.2.356.591.553 1 .503l.115-.016c.738-.11 1.527.142 2.154.649.367.295.891.295 1.258 0 .549-.444 1.196-.678 1.871-.678.931 0 1.599.424 1.994.778.206.185.478.279.754.252l.252-.03c1.654 0 3 1.346 3 3h-41.816c.414-1.161 1.514-2 2.816-2zm2.198 16.374c-1.52-4.562-3.877-8.725-7.004-12.374h45.631c-3.128 3.651-5.484 7.814-7.004 12.374 0 0-.001 0-.001.001-.323.972-1.229 1.625-2.255 1.625h-27.11c-1.025 0-1.932-.653-2.257-1.626zm4.823 5.626v-2h21.979v2zm24.544-2c1.888 0 3.557-1.203 4.152-2.993.341-1.024.731-2.026 1.161-3.007h15.122v6z"/><path d="m27.129 22.871c.374 1.231 1.519 2.129 2.871 2.129 1.654 0 3-1.346 3-3 0-1.352-.898-2.497-2.129-2.871-.374-1.231-1.519-2.129-2.871-2.129-1.654 0-3 1.346-3 3 0 1.352.898 2.497 2.129 2.871zm.871-3.871c.552 0 1 .448 1 1 0 .553.447 1 1 1 .552 0 1 .448 1 1s-.448 1-1 1-1-.448-1-1c0-.553-.447-1-1-1-.552 0-1-.448-1-1s.448-1 1-1z"/><path d="m24 34c1.352 0 2.497-.898 2.871-2.129 1.231-.374 2.129-1.519 2.129-2.871 0-1.654-1.346-3-3-3-1.352 0-2.497.898-2.871 2.129-1.231.374-2.129 1.519-2.129 2.871 0 1.654 1.346 3 3 3zm0-4c.553 0 1-.447 1-1 0-.552.448-1 1-1s1 .448 1 1-.448 1-1 1c-.553 0-1 .447-1 1 0 .552-.448 1-1 1s-1-.448-1-1 .448-1 1-1z"/></g></svg>