<svg id="Layer_3" enable-background="new 0 0 64 64" height="512" viewBox="0 0 64 64" width="512" xmlns="http://www.w3.org/2000/svg"><g><path d="m62 55h-1v-15c0-.332-.173-.613-.422-.794l.01-.014-11-8c-.241-.175-.548-.234-.838-.16l-19.75 5.097v-22.129h-.005c0-.194-.051-.387-.163-.555l-3.832-5.748v-5.697c0-.552-.447-1-1-1h-18c-.553 0-1 .448-1 1v5.697l-3.832 5.748c-.111.168-.163.361-.163.555h-.005v6 7 33c0 .552.447 1 1 1h13v1c0 .552.447 1 1 1h46c.553 0 1-.448 1-1v-6c0-.552-.447-1-1-1zm-43 0v-14h15.08c.488 3.387 3.401 6 6.92 6s6.432-2.613 6.92-6h11.08v2.101c-2.279.465-4 2.484-4 4.899s1.721 4.434 4 4.899v2.101zm17.101-14h9.798c-.465 2.279-2.484 4-4.899 4s-4.434-1.721-4.899-4zm22.899 9.816c-1.161-.414-2-1.514-2-2.816s.839-2.402 2-2.816zm-10.207-17.73 8.132 5.914h-31.048zm-31.043 5.946.005.018c-.431.111-.755.485-.755.95v11h-14v-20.556c.591.344 1.268.556 2 .556 1.103 0 2 .897 2 2v4c0 1.654 1.346 3 3 3s3-1.346 3-3v-8c0-.551.448-1 1-1s1 .449 1 1v2c0 1.654 1.346 3 3 3s3-1.346 3-3v-10h6v15.645zm-14.75-18.032h16v10c0 .551-.448 1-1 1s-1-.449-1-1v-2c0-1.654-1.346-3-3-3s-3 1.346-3 3v8c0 .551-.448 1-1 1s-1-.449-1-1v-4c0-2.206-1.794-4-4-4-1.103 0-2-.897-2-2zm24-2h-24v-4h24zm-20-16h16v4h-16zm-.465 6h16.93l2.667 4h-22.264zm8.465 47v3h-12v-6h14v2h-1c-.553 0-1 .448-1 1zm46 5h-44v-4h44z"/><path d="m24 47c-1.654 0-3 1.346-3 3s1.346 3 3 3 3-1.346 3-3-1.346-3-3-3zm0 4c-.552 0-1-.449-1-1s.448-1 1-1 1 .449 1 1-.448 1-1 1z"/><path d="m37 23h2v2h-2z"/><path d="m39 25h2v2h-2z"/><path d="m35 25h2v2h-2z"/><path d="m37 27h2v2h-2z"/><path d="m53 15h2v2h-2z"/><path d="m55 17h2v2h-2z"/><path d="m51 17h2v2h-2z"/><path d="m53 19h2v2h-2z"/></g></svg>