<svg id="Layer_3" enable-background="new 0 0 64 64" height="512" viewBox="0 0 64 64" width="512" xmlns="http://www.w3.org/2000/svg"><g><path d="m21 53c1.654 0 3-1.346 3-3s-1.346-3-3-3-3 1.346-3 3 1.346 3 3 3zm0-4c.551 0 1 .448 1 1s-.449 1-1 1-1-.448-1-1 .449-1 1-1z"/><path d="m10 41h22c.552 0 1-.447 1-1v-4c0-.553-.448-1-1-1h-22c-.552 0-1 .447-1 1v4c0 .553.448 1 1 1zm1-4h20v2h-20z"/><path d="m57 39h-2v-1c0-.553-.448-1-1-1h-15v-4h1c.552 0 1-.448 1-1v-6c0-.552-.448-1-1-1h-3c0-7.796-5.608-14.299-13-15.708v-1.292h19c.552 0 1-.448 1-1v-5c0-.552-.448-1-1-1h-4c-.552 0-1 .448-1 1v4h-14v-2c0-.552-.448-1-1-1h-4c-.552 0-1 .448-1 1v5.292c-7.392 1.409-13 7.912-13 15.708h-3c-.552 0-1 .448-1 1v6c0 .552.448 1 1 1h1v22h-1c-.552 0-1 .447-1 1v6c0 .553.448 1 1 1h36.899.101 12.101c2.137 0 4.146-.832 5.657-2.343l1.95-1.95c.286-.286.372-.716.217-1.09s-.521-.617-.925-.617h-4.54c.519-.578.926-1.254 1.19-2h2.35c3.309 0 6-2.691 6-6v-4c0-3.309-2.691-6-6-6zm-17-36h2v3h-2zm15 42h1c.551 0 1 .448 1 1v2c0 .552-.449 1-1 1h-1zm-2-4h-16v-2h16zm-22 14h-20v-10h20zm-11-50h2v4.051c-.332-.021-.662-.051-1-.051s-.668.03-1 .051zm1 6c7.72 0 14 6.28 14 14h-28c0-7.72 6.28-14 14-14zm-18 16h36v4h-36zm2 6h32v4h-1c-.552 0-1 .447-1 1v15c0 .702.128 1.373.35 2h-2.35v-11c0-.553-.448-1-1-1h-22c-.552 0-1 .447-1 1v11h-4zm-2 28v-4h29c-.404 0-.769.243-.924.617s-.069.804.217 1.09l1.95 1.95c.121.121.251.23.378.343zm52.343-1.757c-1.133 1.133-2.64 1.757-4.242 1.757h-12.101-.101c-1.603 0-3.109-.624-4.243-1.757l-.242-.243h21.173zm-14.343-2.243c-2.206 0-4-1.794-4-4v-10h16v10c0 2.206-1.794 4-4 4zm20-8c0 2.206-1.794 4-4 4h-2v-2h1c1.654 0 3-1.346 3-3v-2c0-1.654-1.346-3-3-3h-1v-2h2c2.206 0 4 1.794 4 4z"/><path d="m45 45c-2.206 0-4 2.243-4 5s1.794 5 4 5 4-2.243 4-5-1.794-5-4-5zm-2 5c0-1.082.409-2.041 1-2.57v5.139c-.591-.528-1-1.487-1-2.569zm3 2.57v-5.14c.59.528 1 1.488 1 2.57s-.41 2.041-1 2.57z"/><path d="m43 34v1h2v-1c0-.378.147-.732.414-1l.586-.586c.645-.645 1-1.502 1-2.414 0-.372.151-.737.414-1l1.293-1.293-1.414-1.414-1.293 1.293c-.645.645-1 1.502-1 2.414 0 .372-.151.737-.414 1l-.586.586c-.645.644-1 1.502-1 2.414z"/><path d="m48 35h2v-1c0-.378.147-.732.414-1l.586-.586c.645-.645 1-1.502 1-2.414 0-.372.151-.737.414-1l1.293-1.293-1.414-1.414-1.293 1.293c-.645.645-1 1.502-1 2.414 0 .372-.151.737-.414 1l-.586.586c-.645.645-1 1.502-1 2.414z"/></g></svg>