<svg id="Layer_3" enable-background="new 0 0 64 64" height="512" viewBox="0 0 64 64" width="512" xmlns="http://www.w3.org/2000/svg"><g><path d="m62.995 14c0-.194-.051-.387-.163-.555l-3.832-5.748v-5.697c0-.552-.448-1-1-1h-18c-.552 0-1 .448-1 1v5.697l-3.832 5.748c-.112.167-.163.361-.163.555h-.005v10.081c-2.126-1.908-4.925-3.081-8-3.081-.807 0-1.595.083-2.358.235-.042.005-.078.014-.078.014-5.452 1.129-9.564 5.969-9.564 11.751 0 .673.063 1.341.173 2h-7.173c-2.206 0-4 1.794-4 4 0 1.2.542 2.266 1.382 3-.84.734-1.382 1.8-1.382 3 0 .732.212 1.409.556 2h-2.556c-.552 0-1 .448-1 1v6c0 .552.448 1 1 1h3.65l9.726 7.781c.177.142.397.219.624.219h22c.227 0 .447-.077.625-.219l2.225-1.781h21.15c.552 0 1-.448 1-1v-33-7-6zm-1.995 5h-24v-4h24zm-9 28h-2.556c.344-.591.556-1.268.556-2 0-1.2-.542-2.266-1.382-3 .84-.734 1.382-1.8 1.382-3 0-2.206-1.794-4-4-4h-7.173c.11-.659.173-1.327.173-2 0-2.445-.739-4.72-2-6.619v-5.381h6v10c0 1.654 1.346 3 3 3s3-1.346 3-3v-2c0-.551.449-1 1-1s1 .449 1 1v8c0 1.654 1.346 3 3 3s3-1.346 3-3v-4c0-1.103.897-2 2-2 .732 0 1.409-.212 2-.556v20.556h-8v-3c0-.552-.448-1-1-1zm-24-2c0-1.103.897-2 2-2h16c1.103 0 2 .897 2 2s-.897 2-2 2h-16c-1.103 0-2-.897-2-2zm-1.382-3c.136-.119.263-.246.382-.382.119.136.246.263.382.382-.136.119-.263.246-.382.382-.119-.136-.246-.263-.382-.382zm7.332-16.175c1.396 1.353 2.401 3.105 2.824 5.073-.251.067-.512.102-.774.102-1.654 0-3-1.346-3-3 0-.833.357-1.614.95-2.175zm12.05 11.175c1.103 0 2 .897 2 2s-.897 2-2 2h-16c-1.103 0-2-.897-2-2s.897-2 2-2zm13-8c-2.206 0-4 1.794-4 4v4c0 .551-.449 1-1 1s-1-.449-1-1v-8c0-1.654-1.346-3-3-3s-3 1.346-3 3v2c0 .551-.449 1-1 1s-1-.449-1-1v-10h16v6c0 1.103-.897 2-2 2zm-18-26h16v4h-16zm-.465 6h16.93l2.667 4h-22.263zm-16.461 14.439c.596.711.926 1.606.926 2.561 0 2.206-1.794 4-4 4-1.162 0-2.222-.507-2.981-1.369 1.206-2.469 3.391-4.375 6.055-5.192zm-7.074 9.561c0-.792.102-1.559.277-2.299 1.047.834 2.342 1.299 3.723 1.299 3.309 0 6-2.691 6-6 0-1.063-.281-2.072-.786-2.96.26-.021.521-.04.786-.04 1.976 0 3.815.584 5.367 1.576-.86.917-1.367 2.137-1.367 3.424 0 2.757 2.243 5 5 5 .336 0 .668-.044.994-.11.001.037.006.073.006.11 0 .676-.091 1.343-.224 2h-6.776c-1.2 0-2.266.542-3 1.382-.734-.84-1.8-1.382-3-1.382h-6.776c-.133-.657-.224-1.324-.224-2zm-11 6c0-1.103.897-2 2-2h16c1.103 0 2 .897 2 2s-.897 2-2 2h-16c-1.103 0-2-.897-2-2zm0 6c0-1.103.897-2 2-2h16c1.103 0 2 .897 2 2s-.897 2-2 2h-16c-1.103 0-2-.897-2-2zm-3 4h5 16 6 16 5v4h-48zm34.649 12h-21.298l-7.5-6h36.299zm5.701-2 5-4h3.65c.552 0 1-.448 1-1v-1h8v6z"/><path d="m6 22h2v2h-2z"/><path d="m8 24h2v2h-2z"/><path d="m4 24h2v2h-2z"/><path d="m6 26h2v2h-2z"/><path d="m22 9h2v2h-2z"/><path d="m24 11h2v2h-2z"/><path d="m20 11h2v2h-2z"/><path d="m22 13h2v2h-2z"/></g></svg>