<svg id="Layer_3" enable-background="new 0 0 64 64" height="512" viewBox="0 0 64 64" width="512" xmlns="http://www.w3.org/2000/svg"><g><path d="m56 47c3.86 0 7-3.141 7-7v-10c0-3.86-3.14-7-7-7h-1v-5c0-.552-.448-1-1-1h-24c-.552 0-1 .448-1 1v18h-10c-.283 0-.552.119-.741.329-.19.209-.282.489-.254.771l.114 1.14-8.435 2.812c-.271.09-.49.291-.602.553-.113.263-.108.56.012.818l.631 1.353-4.778 4.095c-.953.817-1.588 1.921-1.832 3.129h-1.115c-.552 0-1 .447-1 1v4c0 .553.448 1 1 1h1.531l4.701 5.641c.19.227.471.359.768.359h46c.297 0 .578-.132.768-.359l4.701-5.641h1.531c.552 0 1-.447 1-1v-4c0-.553-.448-1-1-1h-7v-4zm0-22c2.757 0 5 2.243 5 5v10c0 2.757-2.243 5-5 5h-1v-2h1c1.654 0 3-1.346 3-3v-10c0-1.654-1.346-3-3-3h-1v-2zm-1 4h1c.551 0 1 .449 1 1v10c0 .552-.449 1-1 1h-1zm-2-10v4h-22v-4zm-17.105 19-1.3 13h-13.19l-1.3-13zm1.782 2.279 6.942 2.314-3.922 8.407h-4.091zm7.72 5.378 4.354 3.732c.504.432.852.995 1.053 1.611h-7.9zm-27.074-5.378 1.072 10.721h-4.091l-3.923-8.406zm-12.074 9.11 4.354-3.732 2.493 5.343h-7.9c.201-.616.549-1.179 1.053-1.611zm48.283 11.611h-45.064l-3.333-4h51.73zm6.468-6h-58v-2h58zm-8.115-4c-.244-1.208-.88-2.312-1.833-3.13l-4.778-4.094.631-1.353c.121-.259.125-.556.012-.818-.112-.262-.332-.463-.602-.553l-8.435-2.812.114-1.14c.028-.281-.064-.562-.254-.771-.188-.21-.457-.329-.74-.329h-6v-11h22v26z"/><path d="m46.586 8c.263.263.414.628.414 1s-.151.737-.414 1l-1.293 1.293 1.414 1.414 1.293-1.293c.645-.644 1-1.502 1-2.414s-.355-1.77-1-2.414l-.586-.586c-.263-.263-.414-.628-.414-1s.151-.737.414-1l1.293-1.293-1.414-1.414-1.293 1.293c-.645.644-1 1.502-1 2.414s.355 1.77 1 2.414z"/><path d="m41.586 8c.263.263.414.628.414 1s-.151.737-.414 1l-1.293 1.293 1.414 1.414 1.293-1.293c.645-.644 1-1.502 1-2.414s-.355-1.77-1-2.414l-.586-.586c-.263-.263-.414-.628-.414-1s.151-.737.414-1l1.293-1.293-1.414-1.414-1.293 1.293c-.645.644-1 1.502-1 2.414s.355 1.77 1 2.414z"/><path d="m36.586 8c.263.263.414.628.414 1s-.151.737-.414 1l-1.293 1.293 1.414 1.414 1.293-1.293c.645-.644 1-1.502 1-2.414s-.355-1.77-1-2.414l-.586-.586c-.263-.263-.414-.628-.414-1s.151-.737.414-1l1.293-1.293-1.414-1.414-1.293 1.293c-.645.644-1 1.502-1 2.414s.355 1.77 1 2.414z"/><path d="m14 27c7.168 0 13-5.832 13-13s-5.832-13-13-13-13 5.832-13 13 5.832 13 13 13zm-10.949-14c.207-2.283 1.111-4.366 2.501-6.034l1.741 1.741 1.414-1.414-1.741-1.741c1.668-1.391 3.751-2.294 6.034-2.501v2.949h2v-2.949c2.283.207 4.366 1.111 6.034 2.501l-1.741 1.741 1.414 1.414 1.741-1.741c1.391 1.667 2.294 3.751 2.501 6.034h-2.949v2h2.949c-.207 2.283-1.111 4.366-2.501 6.034l-1.741-1.741-1.414 1.414 1.741 1.741c-1.667 1.391-3.751 2.294-6.034 2.501v-2.949h-2v2.949c-2.283-.207-4.366-1.111-6.034-2.501l1.741-1.741-1.414-1.414-1.741 1.741c-1.391-1.668-2.294-3.751-2.501-6.034h2.949v-2z"/><path d="m14.707 14.707c.188-.187.293-.442.293-.707v-6h-2v5.586l-3.707 3.707 1.414 1.414z"/></g></svg>