<svg id="Layer_3" enable-background="new 0 0 64 64" height="512" viewBox="0 0 64 64" width="512" xmlns="http://www.w3.org/2000/svg"><g><path d="m20 27c-3.859 0-7 3.14-7 7s3.141 7 7 7 7-3.14 7-7-3.141-7-7-7zm0 12c-2.757 0-5-2.243-5-5s2.243-5 5-5 5 2.243 5 5-2.243 5-5 5z"/><path d="m62 7c.553 0 1-.448 1-1v-4c0-.552-.447-1-1-1h-6c-2.757 0-5 2.243-5 5v4h-15c-.553 0-1 .448-1 1v11.381c-3.479-4.481-8.901-7.381-15-7.381-10.477 0-19 8.523-19 19 0 7.445 4.315 13.886 10.566 17h-9.566c-.553 0-1 .448-1 1v4c0 .552.447 1 1 1h1.531l4.7 5.64c.191.228.472.36.769.36h46c.297 0 .578-.132.769-.36l4.7-5.64h1.531c.553 0 1-.448 1-1v-4c0-.552-.447-1-1-1h-1v-40c0-.552-.447-1-1-1h-3v-3zm-11 5v7.586l-.586-.586c-1.291-1.289-3.537-1.29-4.828 0l-.586.585c-.535.535-1.465.535-2 0l-.586-.585c-1.291-1.289-3.537-1.29-4.828 0l-.586.586v-7.586zm4 6.19c-.523.152-1.016.412-1.414.81l-.586.585v-7.585h2zm-18 4.224 2-2c.535-.535 1.465-.535 2 0l.586.586c1.291 1.289 3.537 1.29 4.828 0l.586-.585c.535-.535 1.465-.535 2 0l.586.585c1.291 1.289 3.537 1.29 4.828 0l.586-.585c.535-.535 1.465-.535 2 0l2 2v24.585h-22v-4.566c1.268-2.545 2-5.403 2-8.434s-.732-5.889-2-8.434zm-8.566 28.586c2.575-1.283 4.816-3.128 6.566-5.381v5.381zm-25.434-17c0-9.374 7.626-17 17-17s17 7.626 17 17-7.626 17-17 17-17-7.626-17-17zm51.531 27h-45.062l-3.333-4h51.729zm6.469-6h-58v-2h33 24 1zm-24-4v-2h22v2zm22-39v7.586l-.586-.586c-.398-.397-.891-.657-1.414-.81v-6.19zm-6-2v-4c0-1.654 1.346-3 3-3h5v2h-5c-.553 0-1 .448-1 1v4z"/><path d="m20 25c1.654 0 3-1.346 3-3s-1.346-3-3-3-3 1.346-3 3 1.346 3 3 3zm0-4c.552 0 1 .449 1 1s-.448 1-1 1-1-.449-1-1 .448-1 1-1z"/><path d="m20 43c-1.654 0-3 1.346-3 3s1.346 3 3 3 3-1.346 3-3-1.346-3-3-3zm0 4c-.552 0-1-.449-1-1s.448-1 1-1 1 .449 1 1-.448 1-1 1z"/><path d="m8 31c-1.654 0-3 1.346-3 3s1.346 3 3 3 3-1.346 3-3-1.346-3-3-3zm0 4c-.552 0-1-.449-1-1s.448-1 1-1 1 .449 1 1-.448 1-1 1z"/><path d="m35 33c0-1.654-1.346-3-3-3s-3 1.346-3 3 1.346 3 3 3 3-1.346 3-3zm-3 1c-.552 0-1-.449-1-1s.448-1 1-1 1 .449 1 1-.448 1-1 1z"/><path d="m11 23.697h2v3.606h-2z" transform="matrix(.832 -.555 .555 .832 -12.13 10.939)"/><path d="m26.197 24.5h3.606v2h-3.606z" transform="matrix(.555 -.832 .832 .555 -8.749 34.653)"/><path d="m10.197 41.5h3.606v2h-3.606z" transform="matrix(.555 -.832 .832 .555 -30.019 28.91)"/><path d="m27 40.697h2v3.606h-2z" transform="matrix(.832 -.555 .555 .832 -18.872 22.67)"/><path d="m44 45c1.654 0 3-1.346 3-3s-1.346-3-3-3-3 1.346-3 3 1.346 3 3 3zm0-4c.552 0 1 .449 1 1s-.448 1-1 1-1-.449-1-1 .448-1 1-1z"/><path d="m54 32c1.654 0 3-1.346 3-3s-1.346-3-3-3-3 1.346-3 3 1.346 3 3 3zm0-4c.552 0 1 .449 1 1s-.448 1-1 1-1-.449-1-1 .448-1 1-1z"/></g></svg>