<svg id="Layer_3" enable-background="new 0 0 64 64" height="512" viewBox="0 0 64 64" width="512" xmlns="http://www.w3.org/2000/svg"><g><path d="m60 49h-4.556c.344-.591.556-1.268.556-2v-8h-.026c.544-.719.888-1.584.978-2.53 1.216-.687 2.048-1.977 2.048-3.47 0-2.206-1.794-4-4-4h-.051c-.522-8.908-7.913-16-16.949-16h-5v-3.307l7.352-2.756c.372-.14.626-.487.647-.884s-.196-.769-.552-.947l-8-4c-.31-.154-.678-.139-.973.044-.294.182-.474.503-.474.85v11h-5c-9.036 0-16.427 7.092-16.949 16h-.051c-2.206 0-4 1.794-4 4 0 1.493.832 2.783 2.047 3.47.09.946.434 1.811.978 2.53h-.025v8c0 .732.212 1.409.556 2h-4.556c-1.654 0-3 1.346-3 3s1.346 3 3 3h1.648l9.727 7.781c.178.142.397.219.625.219h32c.228 0 .447-.077.625-.219l9.727-7.781h1.648c1.654 0 3-1.346 3-3s-1.346-3-3-3zm-27-45.382 4.502 2.25-4.502 1.689zm-23 36.958c.614.27 1.288.424 2 .424.886 0 1.737-.235 2.5-.686 1.525.9 3.475.9 5 0 1.525.9 3.475.9 5 0 1.525.9 3.475.9 5 0 1.525.9 3.475.9 5 0 1.525.9 3.475.9 5 0 1.525.9 3.475.9 5 0 1.525.9 3.475.9 5 0 .763.451 1.614.686 2.5.686.712 0 1.386-.154 2-.424v2.424h-25c-.093 0-.186.013-.274.038l-6.703 1.915-5.706-1.901c-.103-.034-.21-.052-.317-.052h-6zm-.816-3.576h45.631c-.414 1.161-1.514 2-2.816 2-.675 0-1.322-.234-1.871-.679-.367-.295-.891-.295-1.258 0-1.098.889-2.645.889-3.742 0-.367-.295-.891-.295-1.258 0-1.098.889-2.645.889-3.742 0-.367-.295-.891-.295-1.258 0-1.098.889-2.645.889-3.742 0-.367-.295-.891-.295-1.258 0-1.098.889-2.645.889-3.742 0-.367-.295-.891-.295-1.258 0-1.098.889-2.645.889-3.742 0-.367-.295-.891-.295-1.258 0-1.098.889-2.645.889-3.742 0-.367-.295-.891-.295-1.258 0-1.098.889-2.645.889-3.742 0-.367-.295-.891-.295-1.258 0-.548.445-1.195.679-1.87.679-1.302 0-2.402-.839-2.816-2zm16.816-22h12c7.934 0 14.431 6.195 14.949 14h-41.898c.518-7.805 7.015-14 14.949-14zm-17 16h46c1.103 0 2 .897 2 2s-.897 2-2 2h-46c-1.103 0-2-.897-2-2s.897-2 2-2zm1 16v-2h5.838l5.846 1.948c.102.034.21.052.316.052.093 0 .185-.013.274-.038l6.866-1.962h24.86v2c0 1.103-.897 2-2 2h-40c-1.103 0-2-.897-2-2zm37.649 14h-31.298l-7.499-6h46.297zm12.351-8h-56c-.552 0-1-.448-1-1s.448-1 1-1h56c.552 0 1 .448 1 1s-.448 1-1 1z"/><path d="m11 8h2v2h-2z"/><path d="m13 10h2v2h-2z"/><path d="m9 10h2v2h-2z"/><path d="m11 12h2v2h-2z"/><path d="m51 5h2v2h-2z"/><path d="m53 7h2v2h-2z"/><path d="m49 7h2v2h-2z"/><path d="m51 9h2v2h-2z"/><path d="m19 21h2v2h-2z"/><path d="m25 25h2v2h-2z"/><path d="m31 21h2v2h-2z"/><path d="m25 17h2v2h-2z"/><path d="m37 17h2v2h-2z"/><path d="m37 25h2v2h-2z"/><path d="m43 21h2v2h-2z"/></g></svg>