<svg id="Layer_3" enable-background="new 0 0 64 64" height="512" viewBox="0 0 64 64" width="512" xmlns="http://www.w3.org/2000/svg"><g><path d="m53 19h-4v-3c0-.552-.447-1-1-1h-36c-.553 0-1 .448-1 1v26c0 5.558 3.045 10.409 7.548 13h-12.548c-.553 0-1 .447-1 1v6c0 .553.447 1 1 1h48c.553 0 1-.447 1-1v-6c0-.553-.447-1-1-1h-12.548c3.671-2.112 6.374-5.723 7.246-10h4.302c3.309 0 6-2.691 6-6v-14c0-3.309-2.691-6-6-6zm-4 6h3c.552 0 1 .449 1 1v12c0 .552-.448 1-1 1h-3zm4 32v4h-46v-4h19 8zm-19-2h-8c-7.168 0-13-5.832-13-13v-25h5v4h-2c-.553 0-1 .448-1 1v8c0 .552.447 1 1 1h6c.553 0 1-.448 1-1v-8c0-.552-.447-1-1-1h-2v-4h27v25c0 7.168-5.832 13-13 13zm-13-32v6h-4v-6zm36 16c0 2.206-1.794 4-4 4h-4.051c.022-.332.051-.662.051-1v-1h3c1.654 0 3-1.346 3-3v-12c0-1.654-1.346-3-3-3h-3v-2h4c2.206 0 4 1.794 4 4z"/><path d="m25 9.121c0-1.084.44-2.146 1.207-2.914 1.156-1.157 1.793-2.694 1.793-4.328v-.879h-2v.879c0 1.084-.44 2.146-1.207 2.914-1.156 1.157-1.793 2.694-1.793 4.328v1.879h2z"/><path d="m28 11h2v-1.879c0-1.084.44-2.146 1.207-2.914 1.156-1.157 1.793-2.694 1.793-4.328v-.879h-2v.879c0 1.084-.44 2.146-1.207 2.914-1.156 1.157-1.793 2.694-1.793 4.328z"/><path d="m33 11h2v-1.879c0-1.084.44-2.146 1.207-2.914 1.156-1.157 1.793-2.694 1.793-4.328v-.879h-2v.879c0 1.084-.44 2.146-1.207 2.914-1.156 1.157-1.793 2.694-1.793 4.328z"/><path d="m39.804 34.02-2.227.445c-2.008.401-3.835 1.379-5.284 2.828-.495.495-.912 1.047-1.293 1.622v-1.612l.273-.41c1.13-1.694 1.727-3.665 1.727-5.703 0-1.588-.375-3.178-1.085-4.597l-1.021-2.041c-.34-.678-1.449-.678-1.789 0l-1.021 2.041c-.709 1.419-1.084 3.009-1.084 4.597 0 2.037.597 4.009 1.727 5.702l.273.411v1.612c-.381-.575-.798-1.127-1.293-1.622-1.449-1.449-3.276-2.427-5.284-2.828l-2.227-.445c-.329-.064-.667.037-.903.273s-.339.575-.273.903l.445 2.227c.401 2.008 1.379 3.835 2.828 5.284s3.276 2.427 5.284 2.828l1.423.285v5.18h2v-5.18l1.423-.285c2.008-.401 3.835-1.379 5.284-2.828s2.427-3.276 2.828-5.284l.445-2.227c.065-.328-.037-.667-.273-.903s-.574-.337-.903-.273zm-11.834 9.554c-1.62-.323-3.094-1.112-4.263-2.281s-1.958-2.643-2.281-4.263l-.151-.756.756.151c1.62.323 3.094 1.112 4.263 2.281s1.958 2.643 2.281 4.263l.151.756zm1.904-16.086.126-.252.126.252c.572 1.143.874 2.423.874 3.702 0 1.387-.344 2.736-1 3.945-.656-1.209-1-2.558-1-3.945 0-1.279.302-2.559.874-3.702zm8.7 9.542c-.323 1.62-1.112 3.094-2.281 4.263s-2.643 1.958-4.263 2.281l-.756.151.151-.756c.323-1.62 1.112-3.094 2.281-4.263s2.643-1.958 4.263-2.281l.756-.151z"/></g></svg>