<svg id="Layer_3" enable-background="new 0 0 64 64" height="512" viewBox="0 0 64 64" width="512" xmlns="http://www.w3.org/2000/svg"><g><path d="m30 25h-20c-.552 0-1 .447-1 1v30c0 .553.448 1 1 1h20c.552 0 1-.447 1-1v-30c0-.553-.448-1-1-1zm-1 30h-18v-28h18z"/><path d="m18 50c.693 0 1.373-.197 2-.575.627.378 1.307.575 2 .575 2.804 0 5-3.075 5-7s-2.196-7-5-7c-.239 0-.474.032-.708.078.277-.878.738-1.694 1.415-2.371l-1.428-1.4c-1.082 1.081-1.803 2.428-2.11 3.892-.38-.127-.772-.199-1.169-.199-2.804 0-5 3.075-5 7s2.196 7 5 7zm0-12c.461 0 .913.189 1.344.564.376.326.936.326 1.312 0 .431-.375.883-.564 1.344-.564 1.626 0 3 2.29 3 5s-1.374 5-3 5c-.461 0-.913-.189-1.344-.564-.188-.164-.422-.246-.656-.246s-.468.082-.656.245c-.431.376-.883.565-1.344.565-1.626 0-3-2.29-3-5s1.374-5 3-5z"/><path d="m53 35c-1.319 0-2.602.354-3.795 1.035.425-2.259 1.512-4.338 3.173-5.999l.329-.328-1.413-1.416-.329.329c-1.248 1.248-2.217 2.699-2.887 4.276-.246-.395-.533-.767-.87-1.104-1.158-1.156-2.695-1.793-4.329-1.793h-.879c-.552 0-1 .447-1 1v.879c0 1.152.322 2.252.913 3.208-1.833.279-3.512 1.262-4.913 2.74v-16.827h1c.552 0 1-.447 1-1v-4c0-2.757-2.243-5-5-5h-9.54c.954-1.063 1.54-2.462 1.54-4 0-3.309-2.691-6-6-6s-6 2.691-6 6c0 1.538.586 2.937 1.54 4h-9.54c-2.757 0-5 2.243-5 5v4c0 .553.448 1 1 1h1v37c0 2.757 2.243 5 5 5h24c2.118 0 3.922-1.33 4.649-3.194 1.729 1.994 3.942 3.194 6.351 3.194 1.775 0 3.488-.64 5-1.858 1.512 1.218 3.225 1.858 5 1.858 5.514 0 10-6.28 10-14s-4.486-14-10-14zm-7.207-1.793c.75.749 1.175 1.736 1.205 2.791-.108-.003-.216-.014-.323-.026-.631-.347-1.287-.602-1.96-.763-.177-.128-.353-.261-.508-.417-.75-.749-1.175-1.736-1.205-2.791 1.041.033 2.052.468 2.791 1.206zm-29.793-26.207c0-2.206 1.794-4 4-4s4 1.794 4 4-1.794 4-4 4-4-1.794-4-4zm-13 9c0-1.654 1.346-3 3-3h28c1.654 0 3 1.346 3 3v3h-34zm32 42c0 1.654-1.346 3-3 3h-24c-1.654 0-3-1.346-3-3v-37h30v19.635c-1.25 2.337-2 5.227-2 8.365s.75 6.028 2 8.365zm18 3c-1.524 0-3.013-.661-4.305-1.911-.194-.188-.444-.281-.695-.281s-.501.094-.695.281c-1.292 1.25-2.781 1.911-4.305 1.911-4.411 0-8-5.383-8-12s3.589-12 8-12c1.524 0 3.013.661 4.305 1.911.388.375 1.003.375 1.391 0 1.291-1.25 2.78-1.911 4.304-1.911 4.411 0 8 5.383 8 12s-3.589 12-8 12z"/><path d="m57 49c0 4.715-2.108 8-4 8v2c3.364 0 6-4.393 6-10z"/></g></svg>