<svg id="Layer_3" enable-background="new 0 0 64 64" height="512" viewBox="0 0 64 64" width="512" xmlns="http://www.w3.org/2000/svg"><g><path d="m28 13h-17v-11c0-.552-.448-1-1-1h-4c-.552 0-1 .448-1 1v11h-3c-.552 0-1 .448-1 1v46c0 1.654 1.346 3 3 3h22c1.654 0 3-1.346 3-3v-46c0-.552-.448-1-1-1zm-25 13.334c1.316.933 3.252.829 4.414-.334l.586-.586c.526-.526 1.474-.526 2 0l.586.586c1.289 1.29 3.539 1.29 4.828 0l.586-.586c.526-.526 1.474-.526 2 0l.586.586c.645.645 1.502 1 2.414 1s1.77-.355 2.414-1l.586-.586c.526-.526 1.474-.526 2 0l1 1v28.586h-24zm4-2.668v-8.666h2v8.032c-.71 0-1.414.218-2 .634zm20-8.666v8.666c-1.316-.933-3.252-.829-4.414.334l-.586.586c-.526.526-1.474.526-2 0l-.586-.586c-1.289-1.29-3.539-1.29-4.828 0l-.586.586c-.526.526-1.474.526-2 0l-.586-.586c-.127-.127-.27-.232-.414-.334v-8.666zm-20-12h2v10h-2zm-2 12v9.981c-.368 0-.737-.132-1-.395l-1-1v-8.586zm21 46h-22c-.551 0-1-.448-1-1v-3h24v3c0 .552-.449 1-1 1z"/><path d="m21 36c-1.654 0-3 1.346-3 3s1.346 3 3 3 3-1.346 3-3-1.346-3-3-3zm0 4c-.551 0-1-.448-1-1s.449-1 1-1 1 .448 1 1-.449 1-1 1z"/><path d="m12 31c0-1.654-1.346-3-3-3s-3 1.346-3 3 1.346 3 3 3 3-1.346 3-3zm-4 0c0-.551.449-1 1-1s1 .449 1 1-.449 1-1 1-1-.449-1-1z"/><path d="m12 47c-1.654 0-3 1.346-3 3s1.346 3 3 3 3-1.346 3-3-1.346-3-3-3zm0 4c-.551 0-1-.448-1-1s.449-1 1-1 1 .448 1 1-.449 1-1 1z"/><path d="m62.763 49.354c-.19-.225-.469-.354-.763-.354h-3c-.265 0-.52.105-.707.293l-.438.438c-.701-5.646-3.981-10.773-8.915-13.733l-1.425-.855c-.316-.189-.713-.189-1.029 0l-1.425.855c-4.934 2.96-8.214 8.087-8.915 13.733l-.438-.438c-.188-.188-.443-.293-.708-.293h-3c-.294 0-.573.129-.763.354s-.271.521-.223.811l2 12c.08.481.497.835.986.835h26c.489 0 .906-.354.986-.836l2-12c.049-.29-.033-.586-.223-.81zm-6.776 2.245-.401.401h-3.614c-.113-4.574-1.045-9.128-2.728-13.385 4.092 3.038 6.617 7.854 6.743 12.984zm-8.987-13.223c1.837 4.283 2.843 8.927 2.971 13.624h-5.943c.122-4.673 1.129-9.327 2.972-13.624zm-2.244.239c-1.678 4.244-2.609 8.789-2.727 13.385h-3.615l-.401-.401c.126-5.13 2.651-9.947 6.743-12.984zm14.397 22.385h-24.306l-1.667-10h1.405l2.707 2.707c.188.188.443.293.708.293h18c.265 0 .52-.105.707-.293l2.707-2.707h1.405z"/><path d="m47 27c7.168 0 13-5.832 13-13s-5.832-13-13-13-13 5.832-13 13 5.832 13 13 13zm0-24c6.065 0 11 4.935 11 11s-4.935 11-11 11-11-4.935-11-11 4.935-11 11-11z"/><path d="m47 23c4.962 0 9-4.038 9-9s-4.038-9-9-9-9 4.038-9 9 4.038 9 9 9zm-1-2.08c-1.183-.17-2.269-.636-3.184-1.322l3.184-3.184zm2-4.506 3.184 3.184c-.915.686-2.001 1.152-3.184 1.322zm1.414-1.414h4.506c-.17 1.183-.636 2.269-1.322 3.184zm0-2 3.184-3.184c.686.915 1.151 2.001 1.322 3.184zm-1.414-1.414v-4.506c1.183.17 2.269.636 3.184 1.322zm-2 0-3.184-3.184c.915-.686 2.001-1.152 3.184-1.322zm-1.414 1.414h-4.506c.17-1.183.636-2.269 1.322-3.184zm0 2-3.184 3.184c-.686-.915-1.152-2.001-1.322-3.184z"/><path d="m35.425 35.966c.189.022.38.034.575.034s.386-.012.578-.034c1.38-.166 2.535-.99 3.089-2.205.532-1.164.421-2.493-.296-3.556l-2.542-3.764c-.372-.551-1.285-.551-1.657 0l-2.542 3.764c-.718 1.063-.829 2.392-.296 3.556.554 1.215 1.708 2.039 3.091 2.205zm-1.138-4.642 1.713-2.537 1.713 2.537c.329.488.378 1.073.135 1.606-.267.583-.817.966-1.507 1.049-.223.025-.463.025-.68 0-.693-.083-1.243-.466-1.51-1.049-.243-.533-.193-1.118.136-1.606z"/><path d="m57.171 26.44-2.542 3.764c-.718 1.063-.829 2.392-.296 3.556.555 1.215 1.709 2.039 3.092 2.205.189.023.38.035.575.035s.386-.012.578-.034c1.38-.166 2.535-.99 3.089-2.205.532-1.164.421-2.493-.296-3.556l-2.542-3.764c-.372-.551-1.286-.551-1.658-.001zm2.677 6.49c-.267.583-.817.966-1.507 1.049-.223.025-.463.025-.68 0-.693-.083-1.243-.466-1.51-1.049-.244-.533-.194-1.119.135-1.606l1.714-2.537 1.713 2.537c.329.488.379 1.073.135 1.606z"/></g></svg>