<svg id="Layer_3" enable-background="new 0 0 64 64" height="512" viewBox="0 0 64 64" width="512" xmlns="http://www.w3.org/2000/svg"><g><path d="m54.773 36.98-2.438-1.625c-.836-.557-1.335-1.491-1.335-2.496v-14.859c0-4.275-2.998-7.855-7-8.768v-7.232c0-.553-.447-1-1-1h-14c-.553 0-1 .447-1 1v7.149c-7.327.983-13 7.259-13 14.851v5h-7c-.553 0-1 .447-1 1v28c0 2.757 2.243 5 5 5h10c.692 0 1.351-.142 1.951-.397.992.259 2.016.397 3.049.397h18c6.617 0 12-5.383 12-12v-9.859c0-1.676-.832-3.231-2.227-4.161zm-24.773-33.98h12v6h-12zm-5 28v4.586l-1 1c-.535.533-1.465.533-2 0l-.586-.586c-1.289-1.289-3.539-1.289-4.828 0l-.586.586c-.535.533-1.465.533-2 0l-.586-.586c-1.162-1.162-3.098-1.267-4.414-.334v-4.666zm-16 7.414 1-1c.535-.533 1.465-.533 2 0l.586.586c1.289 1.289 3.539 1.289 4.828 0l.586-.586c.535-.533 1.465-.533 2 0l.586.586c.645.645 1.502 1 2.414 1 .731 0 1.421-.237 2-.66v18.66h-16zm18 2.586h19c1.654 0 3 1.346 3 3v8c0 1.654-1.346 3-3 3h-19zm-15 20c-1.302 0-2.402-.839-2.816-2h15.631c-.414 1.161-1.514 2-2.816 2zm43-10c0 5.514-4.486 10-10 10h-18c-.326 0-.648-.035-.971-.067.604-.826.971-1.834.971-2.933v-1h19c2.757 0 5-2.243 5-5v-8c0-2.757-2.243-5-5-5h-19v-9c0-.553-.447-1-1-1h-9v-5c0-7.168 5.832-13 13-13h12c3.859 0 7 3.141 7 7v14.859c0 1.676.832 3.23 2.227 4.16l2.438 1.625c.836.558 1.335 1.492 1.335 2.497z"/><path d="m42 14c-2.757 0-5 2.243-5 5v10c0 2.757 2.243 5 5 5s5-2.243 5-5v-10c0-2.757-2.243-5-5-5zm3 15c0 1.654-1.346 3-3 3s-3-1.346-3-3v-10c0-1.654 1.346-3 3-3s3 1.346 3 3z"/><path d="m39.229 43.026c-.449-.106-.917.111-1.124.526l-2.105 4.212-2.105-4.211c-.207-.415-.676-.632-1.124-.526-.452.107-.771.509-.771.973v9h2v-4.764l1.105 2.211c.34.678 1.449.678 1.789 0l1.106-2.211v4.764h2v-9c0-.464-.319-.866-.771-.974z"/></g></svg>