<svg id="Layer_3" enable-background="new 0 0 64 64" height="512" viewBox="0 0 64 64" width="512" xmlns="http://www.w3.org/2000/svg"><g><path d="m54.733 10.924-.039.036c-.875-2.868-3.544-4.96-6.694-4.96-.097 0-.192.02-.289.024-.855-2.9-3.538-5.024-6.711-5.024-1.018 0-1.983.223-2.856.616-2.013-.404-4.077-.616-6.144-.616-17.094 0-31 13.906-31 31s13.906 31 31 31 31-13.906 31-31c0-7.844-2.936-15.329-8.267-21.076zm-22.733 33.076c-13.552 0-25-5.495-25-12s11.448-12 25-12 25 5.495 25 12-11.448 12-25 12zm24.191-5.689c-2.803 10.74-12.585 18.689-24.191 18.689s-21.388-7.949-24.191-18.689c4.379 4.596 13.457 7.689 24.191 7.689s19.812-3.093 24.191-7.689zm-24.191-20.311c-10.734 0-19.812 3.093-24.191 7.689 2.803-10.74 12.585-18.689 24.191-18.689.686 0 1.377.038 2.065.094-.038.298-.065.598-.065.906 0 3.859 3.141 7 7 7 .098 0 .194-.011.291-.015.864 2.949 3.561 5.015 6.709 5.015 1.842 0 3.516-.721 4.767-1.889 1.568 2.337 2.719 4.885 3.417 7.571-4.381-4.593-13.456-7.682-24.184-7.682zm21-5c0 2.757-2.243 5-5 5-2.178 0-4.051-1.386-4.728-3.386 1.57-.541 2.886-1.625 3.728-3.027v.413h2v-2h-1.295c.19-.634.295-1.305.295-2 2.757 0 5 2.243 5 5zm-7-5c0 2.757-2.243 5-5 5s-5-2.243-5-5 2.243-5 5-5 5 2.243 5 5zm-14 53c-15.99 0-29-13.01-29-29s13.01-29 29-29c1.293 0 2.583.096 3.86.265-.507.55-.928 1.18-1.24 1.87-.872-.083-1.75-.135-2.62-.135-14.888 0-27 12.112-27 27s12.112 27 27 27 27-12.112 27-27c0-5.613-1.711-10.968-4.929-15.531.397-.692.677-1.458.819-2.271 3.954 5.075 6.11 11.306 6.11 17.802 0 15.99-13.01 29-29 29z"/><path d="m13.586 28h2.828v2h-2.828z" transform="matrix(.707 -.707 .707 .707 -16.113 19.101)"/><path d="m22 23.586h2v2.828h-2z" transform="matrix(.707 -.707 .707 .707 -10.941 23.586)"/><path d="m29.586 26h2.828v2h-2.828z" transform="matrix(.707 -.707 .707 .707 -10.012 29.828)"/><path d="m38 23.586h2v2.828h-2z" transform="matrix(.707 -.707 .707 .707 -6.255 34.9)"/><path d="m44.586 27h2.828v2h-2.828z" transform="matrix(.707 -.707 .707 .707 -6.326 40.728)"/><path d="m47 35.586h2v2.828h-2z" transform="matrix(.707 -.707 .707 .707 -12.104 44.778)"/><path d="m38.586 32h2.828v2h-2.828z" transform="matrix(.707 -.707 .707 .707 -11.619 37.95)"/><path d="m31 33.586h2v2.828h-2z" transform="matrix(.707 -.707 .707 .707 -15.376 32.879)"/><path d="m22.586 32h2.828v2h-2.828z" transform="matrix(.707 -.707 .707 .707 -16.305 26.636)"/><path d="m16 34.586h2v2.828h-2z" transform="matrix(.707 -.707 .707 .707 -20.477 22.565)"/><path d="m40 5h2v2h-2z"/><path d="m40 9h2v2h-2z"/><path d="m38 7h2v2h-2z"/><path d="m42 7h2v2h-2z"/><path d="m47 14h2v2h-2z"/><path d="m49 12h2v2h-2z"/></g></svg>