<svg id="Layer_3" enable-background="new 0 0 64 64" height="512" viewBox="0 0 64 64" width="512" xmlns="http://www.w3.org/2000/svg"><g><path d="m62 63c.552 0 1-.447 1-1v-6c0-.553-.448-1-1-1h-3.556c.344-.591.556-1.268.556-2 0-1.201-.542-2.266-1.382-3 .84-.734 1.382-1.799 1.382-3s-.542-2.266-1.382-3c.84-.734 1.382-1.799 1.382-3s-.542-2.266-1.382-3c.84-.734 1.382-1.799 1.382-3 0-2.206-1.794-4-4-4h-12.556c.344-.591.556-1.268.556-2 0-1.822-1.232-3.346-2.901-3.827.158-.705.507-1.365 1.022-1.88l.586-.586-1.414-1.414-.586.586c-.875.875-1.443 2.023-1.632 3.24-1.759.419-3.075 1.995-3.075 3.881 0 .732.212 1.409.556 2h-3.692c-1.561-5.304-4.611-9.951-8.865-13.476v-9.524h1c.552 0 1-.447 1-1v-5c0-.553-.448-1-1-1h-13.999c-.552 0-1 .447-1 1v5c0 .553.448 1 1 1h1v9.524c-6.362 5.271-10 12.999-10 21.283v19.193c0 2.757 2.243 5 5 5zm-5-10c0 1.103-.897 2-2 2h-32c-1.103 0-2-.897-2-2s.897-2 2-2h23.184c.414 1.161 1.514 2 2.816 2s2.402-.839 2.816-2h3.184c1.103 0 2 .897 2 2zm-4.5-16c-1.378 0-2.5 1.121-2.5 2.5v10.5c0 .552-.449 1-1 1s-1-.448-1-1v-7c0-1.654-1.346-3-3-3s-3 1.346-3 3v2c0 .552-.449 1-1 1s-1-.448-1-1v-7c0-1.654-1.346-3-3-3s-3 1.346-3 3v1c0 .552-.449 1-1 1s-1-.448-1-1v-6h21v3.5c0 .275-.224.5-.5.5zm-29.5 12c-1.103 0-2-.897-2-2s.897-2 2-2h15c0 1.654 1.346 3 3 3s3-1.346 3-3v-2c0-.552.449-1 1-1s1 .448 1 1v6zm-2-8c0-1.103.897-2 2-2h7c0 1.654 1.346 3 3 3s3-1.346 3-3v-1c0-.552.449-1 1-1s1 .448 1 1v5h-15c-1.103 0-2-.897-2-2zm9-4h-7c-1.103 0-2-.897-2-2s.897-2 2-2h7zm-9.618 1c-.84.734-1.382 1.799-1.382 3s.542 2.266 1.382 3c-.84.734-1.382 1.799-1.382 3s.542 2.266 1.382 3c-.112.097-.219.197-.319.306-.97.455-1.998.694-3.063.694-4.411 0-8-4.037-8-9s3.589-9 8-9c.804 0 1.585.143 2.337.403-.214.49-.337 1.029-.337 1.597 0 1.201.542 2.266 1.382 3zm36.618 9c0 1.103-.897 2-2 2h-3v-4h3c1.103 0 2 .897 2 2zm0-6c0 1.103-.897 2-2 2h-3v-3.5c0-.275.224-.5.5-.5h.5 2c1.103 0 2 .897 2 2zm0-6c0 1.103-.897 2-2 2h-.051c.033-.162.051-.329.051-.5v-3.5c1.103 0 2 .897 2 2zm-20-6c0-1.103.897-2 2-2s2 .897 2 2-.897 2-2 2-2-.897-2-2zm-26-26h12v3h-12zm1.625 15.781c.237-.19.375-.477.375-.781v-10h8v10c0 .304.138.591.375.781 2.829 2.264 5.095 5.059 6.731 8.219h-22.231c1.626-3.134 3.901-5.94 6.75-8.219zm-9.625 39.219v-1h12v4h-9c-1.654 0-3-1.346-3-3zm0-3v-16.193c0-3.423.67-6.744 1.935-9.807h24.098c.27.654.513 1.32.73 2h-6.763c-.878 0-1.683.293-2.344.774-1.162-.505-2.386-.774-3.656-.774-5.514 0-10 4.935-10 11s4.486 11 10 11c.688 0 1.363-.081 2.023-.23-.004.078-.023.151-.023.23 0 .732.212 1.409.556 2h-3.556zm58 6h-44v-4h6 32 6z"/><path d="m51 21h2v2h-2z"/><path d="m53 23h2v2h-2z"/><path d="m53 19h2v2h-2z"/><path d="m55 21h2v2h-2z"/><path d="m31 13h2v2h-2z"/><path d="m33 15h2v2h-2z"/><path d="m33 11h2v2h-2z"/><path d="m35 13h2v2h-2z"/></g></svg>