<svg id="Layer_3" enable-background="new 0 0 64 64" height="512" viewBox="0 0 64 64" width="512" xmlns="http://www.w3.org/2000/svg"><g><path d="m26 30c-3.309 0-6 2.691-6 6-3.309 0-6 2.691-6 6s2.691 6 6 6 6-2.691 6-6c3.309 0 6-2.691 6-6s-2.691-6-6-6zm0 10c-.282 0-.581-.038-.914-.117-.338-.077-.691.021-.936.267-.245.244-.346.599-.267.936.079.335.117.634.117.914 0 2.206-1.794 4-4 4s-4-1.794-4-4 1.794-4 4-4c.282 0 .581.038.914.117.338.079.691-.021.936-.267.245-.244.346-.599.267-.936-.079-.335-.117-.634-.117-.914 0-2.206 1.794-4 4-4s4 1.794 4 4-1.794 4-4 4z"/><path d="m56 33h-11v-5c0-3.491-1.36-6.773-3.828-9.242l-.929-.93c-1.853-1.853-2.964-4.249-3.194-6.828h.951c.552 0 1-.447 1-1v-8c0-.553-.448-1-1-1h-30c-.552 0-1 .447-1 1v8c0 .553.448 1 1 1h.951c-.23 2.579-1.341 4.975-3.194 6.828l-.928.93c-2.469 2.469-3.829 5.751-3.829 9.242v27c0 3.309 2.691 6 6 6h31v1c0 .553.448 1 1 1h20c.552 0 1-.447 1-1v-16.262c1.864-1.302 3-3.45 3-5.738 0-3.859-3.14-7-7-7zm-47-30h28v6h-28zm-2 56c-2.206 0-4-1.794-4-4v-27c0-2.957 1.152-5.737 3.243-7.828l.928-.93c2.231-2.231 3.545-5.129 3.78-8.242h24.097c.235 3.114 1.549 6.011 3.779 8.242l.929.93c2.092 2.091 3.244 4.871 3.244 7.828v5h-1c-1.075 0-2.089.251-3 .685v-7.685c0-.553-.448-1-1-1h-30c-.552 0-1 .447-1 1v26c0 .553.448 1 1 1h30v6zm31-8h-29v-24h28v8.111c-1.235 1.263-2 2.988-2 4.889 0 2.288 1.136 4.437 3 5.738zm20.499-6.675c-.309.179-.499.509-.499.865v15.81h-18v-15.81c0-.356-.19-.687-.499-.865-1.543-.893-2.501-2.551-2.501-4.325 0-2.757 2.243-5 5-5h14c2.757 0 5 2.243 5 5 0 1.774-.958 3.432-2.501 4.325z"/><path d="m53.365 46.814c-.209-.206-.325-.478-.325-.766s.115-.56.325-.765c.596-.584.924-1.362.924-2.191 0-.83-.328-1.609-.924-2.194-1.217-1.192-3.198-1.192-4.416 0l-4.523 4.437c-.73.717-1.132 1.671-1.132 2.688 0 1.016.403 1.969 1.133 2.685.344.337.533.784.533 1.258s-.189.921-.534 1.258l-.502.493c-.595.583-.924 1.361-.924 2.19 0 .83.328 1.609.924 2.194.609.597 1.408.896 2.208.896s1.6-.299 2.208-.896l5.528-5.423c.73-.716 1.132-1.67 1.132-2.686s-.402-1.97-1.132-2.686zm-.898 4.437-5.528 5.423c-.445.435-1.169.438-1.614 0-.21-.205-.325-.478-.325-.766s.115-.56.325-.765l.502-.493c.73-.716 1.133-1.67 1.133-2.686s-.402-1.97-1.133-2.686c-.344-.337-.533-.783-.533-1.258 0-.474.189-.921.533-1.259l4.523-4.437c.445-.436 1.17-.436 1.614 0 .21.205.325.478.325.766s-.115.56-.324.765c-.596.584-.925 1.362-.925 2.191 0 .83.328 1.609.924 2.194l.503.493c.344.339.533.787.533 1.26s-.189.921-.533 1.258z"/></g></svg>