<svg id="Layer_3" enable-background="new 0 0 64 64" height="512" viewBox="0 0 64 64" width="512" xmlns="http://www.w3.org/2000/svg"><g><path d="m20 37h2v2h-2z"/><path d="m24 35h2v2h-2z"/><path d="m28 37h2v2h-2z"/><path d="m32 35h2v2h-2z"/><path d="m36 37h2v2h-2z"/><path d="m62.991 2c0-.129-.015-.259-.067-.383-.155-.373-.52-.617-.924-.617h-34c-.265 0-.52.105-.707.293l-6 6c-.191.191-.283.447-.284.707h-.009v23.38l-3.196.639c-.096.019-.187.052-.272.098l-8.824-8.824c-.391-.391-1.023-.391-1.414 0l-3 3c-.391.391-.391 1.023 0 1.414l7.769 7.769-3.226.538c-.289.048-.542.221-.693.472l-2.71 4.514h-3.434c-.391 0-.745.228-.909.582-.163.355-.104.772.149 1.069l1.411 1.646c2.96 3.454 5.191 7.394 6.63 11.709.597 1.791 2.267 2.994 4.154 2.994h.565v3c0 .552.448 1 1 1h23.979c.552 0 1-.448 1-1v-3h.565c1.509 0 2.868-.777 3.662-2h11.794c.26 0 .516-.102.707-.293l6-6c.188-.187.293-.442.293-.707v-48zm-34.577 1h31.172l-4 4h-31.172zm20.204 38-.544-1.089c-.186-.371-.46-.7-.794-.951l-3.43-2.573-.901-2.704c-.076-.226-.229-.418-.434-.541l-5-3c-.156-.093-.334-.142-.515-.142h-5c-.155 0-.309.036-.447.105l-3.693 1.847-.86-.172v-14.78h24v24zm-.68 8h4.062c.552 0 1-.448 1-1v-32c0-.552-.448-1-1-1h-26c-.552 0-1 .448-1 1v15.38l-1.804-.361c-.065-.013-.131 0-.196 0v-22.019h32v46h-9.939c.77-2.098 1.732-4.102 2.877-6zm1.292-2c.554-.79 1.149-1.554 1.77-2.301v2.301zm-42.816-20 1.586-1.586 8.086 8.086-1.566 1.566-.034.006zm3.206 10.911 5.544-.924c.206-.034.395-.132.542-.279l2.786-2.786 4.508-.902 4.804.96c.218.043.444.014.644-.086l3.788-1.894h4.487l4.445 2.667.883 2.649c.064.193.186.361.349.483l3.679 2.759c.087.065.158.15.206.246l.097.196h-38.616zm28.359 23.089h-21.979v-2h21.979zm2.565-4h-27.109c-1.025 0-1.932-.654-2.256-1.626-1.52-4.561-3.877-8.724-7.005-12.374h45.632c-3.128 3.65-5.485 7.813-7.005 12.374-.324.972-1.231 1.626-2.257 1.626zm16.456-3.414v-45.172l4-4v45.172z"/></g></svg>