<svg id="Layer_3" enable-background="new 0 0 64 64" height="512" viewBox="0 0 64 64" width="512" xmlns="http://www.w3.org/2000/svg"><g><path d="m60 49h-4.556c.344-.591.556-1.268.556-2v-8h-.026c.473-.624.803-1.355.94-2.158 1.206-.389 2.086-1.509 2.086-2.842 0-1.317-.859-2.427-2.042-2.829-.396-4.796-4.184-8.644-8.958-9.121v-3.358l7.351-2.756c.373-.14.626-.487.647-.884s-.196-.769-.551-.947l-8-4c-.31-.154-.677-.138-.973.044-.294.183-.474.504-.474.851v11.054c-2.516.252-4.832 1.441-6.5 3.335-1.668-1.894-3.984-3.083-6.5-3.335v-3.361l7.351-2.756c.373-.14.626-.487.647-.884s-.196-.769-.551-.947l-8-4c-.309-.154-.678-.138-.973.044-.294.182-.474.503-.474.85v11.054c-2.516.252-4.832 1.441-6.5 3.335-1.668-1.894-3.984-3.083-6.5-3.335v-3.361l7.351-2.756c.373-.14.626-.487.647-.884s-.196-.769-.551-.947l-8-4c-.31-.154-.678-.138-.973.044-.294.182-.474.503-.474.85v11.051c-4.774.476-8.562 4.324-8.958 9.121-1.183.401-2.042 1.511-2.042 2.828 0 1.333.88 2.453 2.085 2.842.138.803.468 1.533.94 2.158h-.025v8c0 .732.212 1.409.556 2h-4.556c-1.654 0-3 1.346-3 3s1.346 3 3 3h1.65l9.726 7.781c.177.142.397.219.624.219h32c.227 0 .447-.077.625-.219l9.725-7.781h1.65c1.654 0 3-1.346 3-3s-1.346-3-3-3zm-12-36.382 4.501 2.25-4.501 1.689zm-15 0 4.501 2.25-4.501 1.689zm-15 0 4.501 2.25-4.501 1.689zm-8 27.958c.614.27 1.288.424 2 .424.886 0 1.737-.235 2.5-.686 1.525.9 3.475.9 5 0 1.525.9 3.475.9 5 0 1.525.9 3.475.9 5 0 1.525.9 3.475.9 5 0 1.525.9 3.475.9 5 0 1.525.9 3.475.9 5 0 1.525.9 3.475.9 5 0 .763.451 1.614.686 2.5.686.712 0 1.386-.154 2-.424v2.424h-25c-.093 0-.186.013-.275.039l-6.702 1.915-5.707-1.902c-.102-.035-.209-.052-.316-.052h-6zm-.816-3.576h45.631c-.414 1.161-1.514 2-2.816 2-.675 0-1.322-.234-1.872-.678-.366-.296-.891-.296-1.257 0-1.099.888-2.645.888-3.743 0-.366-.296-.891-.296-1.257 0-1.099.888-2.645.888-3.743 0-.366-.296-.891-.296-1.257 0-1.099.888-2.645.888-3.743 0-.366-.296-.891-.296-1.257 0-1.099.888-2.645.888-3.743 0-.366-.296-.891-.296-1.257 0-1.099.888-2.645.888-3.743 0-.366-.296-.891-.296-1.257 0-1.099.888-2.645.888-3.743 0-.366-.296-.891-.296-1.257 0-1.099.888-2.645.888-3.743 0-.366-.296-.891-.296-1.257 0-.548.444-1.195.678-1.87.678-1.302 0-2.402-.839-2.816-2zm7.816-13c2.685 0 5.177 1.339 6.667 3.582.371.559 1.295.559 1.666 0 1.49-2.243 3.982-3.582 6.667-3.582s5.177 1.339 6.667 3.582c.371.559 1.295.559 1.666 0 1.49-2.243 3.982-3.582 6.667-3.582 4.072 0 7.436 3.06 7.931 7h-45.862c.495-3.94 3.859-7 7.931-7zm-9 9h48c.551 0 1 .449 1 1s-.449 1-1 1h-48c-.551 0-1-.449-1-1s.449-1 1-1zm2 14v-2h5.838l5.846 1.949c.102.034.209.051.316.051.092 0 .185-.013.275-.039l6.865-1.961h24.86v2c0 1.103-.897 2-2 2h-40c-1.103 0-2-.897-2-2zm37.649 14h-31.298l-7.5-6h46.299zm12.351-8h-56c-.551 0-1-.449-1-1s.449-1 1-1h56c.551 0 1 .449 1 1s-.449 1-1 1z"/><path d="m31 1h2v2h-2z"/><path d="m33 3h2v2h-2z"/><path d="m29 3h2v2h-2z"/><path d="m31 5h2v2h-2z"/><path d="m5 11h2v2h-2z"/><path d="m7 13h2v2h-2z"/><path d="m3 13h2v2h-2z"/><path d="m5 15h2v2h-2z"/><path d="m59 18h2v2h-2z"/><path d="m61 20h2v2h-2z"/><path d="m57 20h2v2h-2z"/><path d="m59 22h2v2h-2z"/></g></svg>