<svg id="Layer_3" enable-background="new 0 0 64 64" height="512" viewBox="0 0 64 64" width="512" xmlns="http://www.w3.org/2000/svg"><g><path d="m62.634 47.227c-.232-.19-.536-.265-.83-.207l-4.238.848c-1.75-2.911-4.93-4.868-8.566-4.868h-34c-3.636 0-6.816 1.957-8.566 4.867l-4.238-.847c-.295-.058-.598.017-.83.207s-.366.473-.366.773v10c0 .3.134.583.366.773.18.148.405.227.634.227.065 0 .131-.007.196-.02l4.238-.848c1.75 2.911 4.93 4.868 8.566 4.868h34c3.636 0 6.816-1.957 8.566-4.867l4.238.848c.065.012.131.019.196.019.229 0 .454-.079.634-.227.232-.19.366-.473.366-.773v-10c0-.3-.134-.583-.366-.773zm-43.634-2.227h26v10h-26zm-16 11.78v-7.56l2.56.512c-.357 1.026-.56 2.122-.56 3.268s.203 2.242.56 3.268zm46 4.22h-34c-4.411 0-8-3.589-8-8s3.589-8 8-8h2v11c0 .553.448 1 1 1h28c.552 0 1-.447 1-1v-11h2c4.411 0 8 3.589 8 8s-3.589 8-8 8zm12-4.22-2.56-.512c.357-1.026.56-2.122.56-3.268s-.203-2.242-.56-3.268l2.56-.512z"/><path d="m15 41c6.065 0 11-4.935 11-11s-4.935-11-11-11-11 4.935-11 11 4.935 11 11 11zm0-20c4.962 0 9 4.037 9 9s-4.038 9-9 9-9-4.037-9-9 4.038-9 9-9z"/><path d="m14 23h2v2h-2z"/><path d="m9 26h2v2h-2z"/><path d="m14 29h2v2h-2z"/><path d="m19 26h2v2h-2z"/><path d="m14 35h2v2h-2z"/><path d="m9 32h2v2h-2z"/><path d="m19 32h2v2h-2z"/><path d="m38 30c0 6.065 4.935 11 11 11s11-4.935 11-11-4.935-11-11-11-11 4.935-11 11zm11-9c4.962 0 9 4.037 9 9s-4.038 9-9 9-9-4.037-9-9 4.038-9 9-9z"/><path d="m48 23h2v2h-2z"/><path d="m43 26h2v2h-2z"/><path d="m48 29h2v2h-2z"/><path d="m53 26h2v2h-2z"/><path d="m48 35h2v2h-2z"/><path d="m43 32h2v2h-2z"/><path d="m53 32h2v2h-2z"/><path d="m32 23c6.065 0 11-4.935 11-11s-4.935-11-11-11-11 4.935-11 11 4.935 11 11 11zm0-20c4.962 0 9 4.037 9 9s-4.038 9-9 9-9-4.037-9-9 4.038-9 9-9z"/><path d="m31 5h2v2h-2z"/><path d="m26 8h2v2h-2z"/><path d="m31 11h2v2h-2z"/><path d="m36 8h2v2h-2z"/><path d="m31 17h2v2h-2z"/><path d="m26 14h2v2h-2z"/><path d="m36 14h2v2h-2z"/></g></svg>