<svg id="Layer_3" enable-background="new 0 0 64 64" height="512" viewBox="0 0 64 64" width="512" xmlns="http://www.w3.org/2000/svg"><g><path d="m32 1c-17.094 0-31 13.906-31 31s13.906 31 31 31 31-13.906 31-31-13.906-31-31-31zm0 60c-15.99 0-29-13.01-29-29s13.01-29 29-29 29 13.01 29 29-13.01 29-29 29z"/><path d="m57.917 33h-12.851c.311-.63.55-1.3.707-2h12.144c.278 0 .544-.116.733-.32s.285-.479.264-.756c-1.003-13.156-11.681-23.834-24.838-24.837-.278-.023-.552.074-.756.264s-.32.455-.32.733v14.865c-.342.171-.679.355-1 .571-.321-.216-.658-.4-1-.571v-14.865c0-.278-.116-.544-.32-.733s-.476-.282-.756-.264c-13.157 1.003-23.835 11.681-24.838 24.837-.022.277.074.552.264.756s.455.32.733.32h12.156c.16.697.404 1.366.721 2h-12.877c-.278 0-.544.116-.733.32s-.285.479-.264.756c1.003 13.156 11.681 23.834 24.838 24.837.025.002.051.003.076.003.251 0 .494-.095.68-.267.204-.189.32-.455.32-.733v-13.916c.687 0 1.355-.081 2-.227v14.143c0 .278.116.544.32.733.186.172.429.267.68.267.025 0 .051-.001.076-.003 13.157-1.002 23.835-11.68 24.838-24.837.021-.277-.074-.552-.264-.756s-.455-.32-.733-.32zm-8.917 2v6h-6v-5.29c.252-.224.493-.459.717-.71zm0 14h-6v-6h6zm-.83 2c-1.571 1.341-3.306 2.494-5.17 3.419v-3.419zm-7.17-10h-3.29c.853-.958 1.512-2.103 1.898-3.392.485-.145.949-.33 1.392-.547zm2.689-18h5.311v6h-3c0-2.306-.879-4.406-2.311-6zm5.311-8v6h-6v-6zm-6-2v-3.418c1.864.925 3.599 2.077 5.169 3.418zm8 16v-6h4.3c.744 1.903 1.263 3.913 1.515 6zm3.419-8h-3.419v-5.17c1.341 1.571 2.494 3.306 3.419 5.17zm-13.419-12.299v4.299h-6v-5.813c2.087.251 4.097.771 6 1.514zm-6 6.299h6v5.95c-1.207-.603-2.562-.95-4-.95-.685 0-1.349.099-2 .247zm-8 5c-1.438 0-2.793.347-4 .95v-5.95h6v5.247c-.651-.148-1.315-.247-2-.247zm-12-5h6v6h-6zm.831-2c1.571-1.341 3.305-2.494 5.169-3.418v3.418zm13.169 0h-6v-4.299c1.903-.744 3.913-1.263 6-1.515zm-16 2.83v5.17h-3.419c.925-1.864 2.078-3.599 3.419-5.17zm-4.3 7.17h4.3v6h-5.814c.251-2.087.771-4.097 1.514-6zm6.3 6v-6h5.311c-1.432 1.594-2.311 3.694-2.311 6zm6 6.682v5.318h-6v-6h5.311c.215.24.448.465.689.682zm2 3.42c.354.691.793 1.328 1.305 1.898h-1.305zm-8 9.898v-6h6v6zm6 2v3.418c-1.864-.925-3.599-2.077-5.169-3.418zm-8-16v6h-4.3c-.744-1.903-1.263-3.913-1.515-6zm-3.419 8h3.419v5.17c-1.341-1.571-2.494-3.306-3.419-5.17zm13.419 12.299v-4.299h6v5.813c-2.087-.251-4.097-.771-6-1.514zm6-6.299h-6v-6h3.895c.66.34 1.365.598 2.105.767zm-4.944-13.16c-.038-.315-.224-.594-.5-.751-2.194-1.243-3.556-3.576-3.556-6.089 0-3.859 3.141-7 7-7 1.605 0 3.118.533 4.374 1.541.365.293.887.293 1.252 0 1.256-1.008 2.769-1.541 4.374-1.541 3.859 0 7 3.141 7 7 0 3.28-2.233 6.083-5.433 6.816-.374.086-.665.377-.751.751-.733 3.2-3.536 5.433-6.816 5.433-3.539 0-6.524-2.648-6.944-6.16zm11.084 7.16h5.86v6h-6v-5.934c.046-.023.094-.042.14-.066zm-.14 8h6v4.299c-1.903.744-3.913 1.263-6 1.514zm16-2.83v-5.17h3.419c-.925 1.864-2.078 3.6-3.419 5.17zm4.3-7.17h-4.3v-6h5.814c-.251 2.087-.771 4.097-1.514 6z"/><path d="m35 27h-6c-.553 0-1 .447-1 1v6c0 .553.447 1 1 1h6c.553 0 1-.447 1-1v-6c0-.553-.447-1-1-1zm-1 6h-4v-4h4z"/><path d="m39 25.586h2v2.828h-2z" transform="matrix(.707 -.707 .707 .707 -7.376 36.192)"/><path d="m22.586 29h2.828v2h-2.828z" transform="matrix(.707 -.707 .707 .707 -14.184 25.757)"/><path d="m30 37.586h2v2.828h-2z" transform="matrix(.707 -.707 .707 .707 -18.498 33.343)"/></g></svg>