<svg id="Layer_3" enable-background="new 0 0 64 64" height="512" viewBox="0 0 64 64" width="512" xmlns="http://www.w3.org/2000/svg"><g><path d="m19 12.327v-3.327h1c.552 0 1-.448 1-1v-6c0-.552-.448-1-1-1h-12c-.552 0-1 .448-1 1v6c0 .552.448 1 1 1h1v3.327c-4.813 2.103-8 6.926-8 12.217v32.456c0 3.309 2.691 6 6 6h14c3.309 0 6-2.691 6-6v-32.456c0-5.291-3.188-10.114-8-12.217zm-10-9.327h10v4h-10zm1.351 10.937c.39-.147.649-.52.649-.937v-4h6v4c0 .417.259.79.649.937 3.909 1.466 6.672 4.998 7.238 9.063h-21.774c.566-4.065 3.329-7.598 7.238-9.063zm14.649 11.063v28h-22v-28zm-4 36h-14c-2.206 0-4-1.794-4-4v-2h22v2c0 2.206-1.794 4-4 4z"/><path d="m8.583 43.798c.898 1.795 2.677 2.981 4.76 3.171.215.021.435.031.657.031s.442-.01.658-.03c2.083-.19 3.862-1.376 4.76-3.171.848-1.695.762-3.669-.229-5.281l-4.336-7.042c-.364-.591-1.339-.591-1.703 0l-4.336 7.042c-.994 1.611-1.08 3.585-.231 5.28zm1.932-4.232 3.485-5.659 3.485 5.659c.636 1.033.688 2.249.144 3.337-.586 1.172-1.765 1.947-3.154 2.075-.312.028-.638.028-.95 0-1.389-.127-2.568-.903-3.154-2.075-.544-1.088-.492-2.304.144-3.337z"/><path d="m62 55h-.883l1.877-16.89c.032-.283-.059-.565-.249-.777-.189-.212-.46-.333-.745-.333h-14c-.285 0-.556.121-.745.333-.19.212-.28.495-.249.777l1.877 16.89h-5.766l1.877-16.89c.032-.283-.059-.565-.249-.777-.189-.212-.46-.333-.745-.333h-14c-.285 0-.556.121-.745.333-.19.212-.28.495-.249.777l1.877 16.89h-.883c-.552 0-1 .448-1 1v6c0 .552.448 1 1 1h32c.552 0 1-.448 1-1v-6c0-.552-.448-1-1-1zm-1.117-16-.481 4.328c-1.256-.542-2.821-.324-3.816.672l-.586.586c-.526.526-1.474.526-2 0l-.586-.586c-.995-.996-2.56-1.214-3.816-.672l-.481-4.328zm-11.036 6.567.153-.153c.526-.526 1.474-.526 2 0l.586.586c.645.645 1.502 1 2.414 1s1.77-.355 2.414-1l.586-.586c.526-.526 1.474-.526 2 0l.153.153-1.048 9.433h-8.21zm-6.964-6.567-.481 4.328c-1.256-.542-2.821-.324-3.816.672l-.586.586c-.526.526-1.474.526-2 0l-.586-.586c-.995-.996-2.56-1.214-3.816-.672l-.481-4.328zm-11.036 6.567.153-.153c.526-.526 1.474-.526 2 0l.586.586c.645.645 1.502 1 2.414 1s1.77-.355 2.414-1l.586-.586c.526-.526 1.474-.526 2 0l.153.153-1.048 9.433h-8.21zm29.153 15.433h-30v-4h30z"/><path d="m46 31c6.617 0 12-5.383 12-12s-5.383-12-12-12-12 5.383-12 12 5.383 12 12 12zm0-22c5.514 0 10 4.486 10 10s-4.486 10-10 10-10-4.486-10-10 4.486-10 10-10z"/><path d="m45 25c.013 0 .025 0 .039-.001.365-.014.692-.226.856-.552l5-10-1.789-.895-4.185 8.371-2.063-3.438-1.715 1.029 3 5c.181.302.506.486.857.486z"/></g></svg>