<svg id="Layer_3" enable-background="new 0 0 64 64" height="512" viewBox="0 0 64 64" width="512" xmlns="http://www.w3.org/2000/svg"><g><path d="m42 9c0-2.757-2.243-5-5-5h-5v2h5c1.654 0 3 1.346 3 3s-1.346 3-3 3h-27v2h27c2.757 0 5-2.243 5-5z"/><path d="m53 13.172c.265 0 .52-.105.707-.292l3.938-3.933c1.804-1.814 1.804-4.767 0-6.581-.876-.881-2.041-1.366-3.28-1.366s-2.403.485-3.276 1.363l-3.936 3.929c-.188.187-.294.442-.294.708v1.657l-7.276 7.343h-28.583c-.553 0-1 .447-1 1v6c0 .553.447 1 1 1h1.142l5.87 38.152c.075.488.495.848.988.848h25c.484 0 .898-.347.984-.823l6.853-38.177h1.163c.553 0 1-.447 1-1v-6c0-.553-.447-1-1-1h-4.545l2.896-2.828zm-37.604 18.828h32.972l-4.128 23h-25.305zm4.462 29-.615-4h24.638l-.718 4zm28.869-31h-33.638l-.923-6h35.639zm3.273-8h-40v-4h40zm-1.755-10.544-4.652 4.544h-3.194l6.171-6.228c.186-.188.29-.44.29-.704v-1.653l3.645-3.639c.996-1.002 2.727-1.002 3.723 0 1.03 1.037 1.03 2.724.002 3.758l-3.643 3.638h-1.643c-.261 0-.512.102-.699.284z"/><path d="m36.864 39.45c-.242-.243-.507-.454-.787-.638l.892-3.57c.095-.379-.039-.778-.344-1.022-.306-.245-.725-.287-1.073-.114l-3.552 1.776-3.553-1.776c-.349-.173-.768-.131-1.073.114-.305.244-.438.644-.344 1.022l.892 3.57c-.28.184-.545.396-.787.638-1.402 1.402-1.833 3.498-1.097 5.34l2.289 5.725c.606 1.509 2.047 2.485 3.673 2.485s3.067-.976 3.672-2.486l2.289-5.724c.736-1.842.306-3.937-1.097-5.34zm-7.367-2.583 2.056 1.027c.14.071.294.106.447.106s.307-.035.447-.105l2.056-1.027-.304 1.214c-.274-.047-.552-.082-.836-.082h-1.363-1.363c-.284 0-.562.035-.836.082zm6.607 7.181-2.289 5.723c-.299.747-1.011 1.229-1.815 1.229s-1.516-.482-1.814-1.229l-2.289-5.724c-.439-1.098-.183-2.348.653-3.184.557-.556 1.299-.863 2.087-.863h2.727c.788 0 1.529.307 2.087.864.835.836 1.092 2.086.653 3.184z"/><path d="m29 42h2v2h-2z"/><path d="m33 42h2v2h-2z"/><path d="m31 46h2v2h-2z"/></g></svg>