<svg height="512pt" viewBox="-16 0 512 512.00513" width="512pt" xmlns="http://www.w3.org/2000/svg"><path d="m480.3125 183.546875v-9.660156c0-45.40625-27.046875-67.625-46.367188-84.046875-1.933593-1.929688-5.796874-4.828125-8.695312-8.691406-1.933594-1.933594-1.933594-4.832032-1.933594-6.765626 0-4.828124 2.898438-9.660156 6.761719-12.554687l.96875-.96875c.964844-.964844 1.933594-1.929687 2.898437-2.898437 0 0 .964844-.964844.964844-1.929688.96875-.96875 1.933594-2.898438 2.898438-3.867188 0-.964843.96875-.964843.96875-1.933593.964844-1.929688.964844-2.898438 1.929687-4.828125v-.964844c0-1.933594.96875-3.867188.96875-6.761719v-8.695312c-.003906-16.421875-12.5625-28.980469-28.984375-28.980469h-106.265625c-16.421875 0-28.980469 12.558594-28.980469 28.980469v9.660156c0 1.933594 0 4.832031.964844 6.765625v.964844c0 1.933594.96875 2.898437 1.933594 4.828125l.96875.96875c.964844 1.929687 1.929688 2.898437 2.898438 3.863281l.964843.964844c.964844 1.933594 2.898438 2.898437 4.828125 3.867187 3.867188 2.898438 6.761719 7.726563 7.730469 11.59375 0 2.898438 0 5.792969-1.933594 7.726563-1.933593 1.933594-2.898437 2.898437-2.898437 3.863281-1.933594 1.933594-4.828125 3.867187-6.761719 5.796875-20.289063 16.421875-47.335937 38.640625-47.335937 84.046875v109.160156c-17.386719-14.488281-23.183594-27.046875-25.117188-34.777343 9.660156-4.828126 16.421875-14.488282 16.421875-26.082032 0-16.421875-12.554687-28.980468-28.980469-28.980468h-115.925781c-16.421875 0-28.980469 12.554687-28.980469 28.980468 0 11.59375 7.726563 22.21875 17.386719 27.050782-1.929687 7.726562-8.691406 20.285156-25.113281 33.808593-37.675782 31.878907-50.234375 77.285157-48.304688 117.859375v2.898438c0 4.828125.96875 8.691406 1.933594 13.523437 0 .964844 0 1.933594.964844 3.863281.96875 3.867188 1.933594 7.730469 2.898437 11.59375v1.933594c.96875 2.898438 1.933594 6.761719 2.902344 9.660156 0 .964844.964844 2.898438 1.929687 3.863282v.96875l1.933594 4.828125c16.421875 35.742187 47.335938 57.960937 84.046875 57.960937h92.738281c21.25 0 40.574219-7.726562 56.996094-21.25 8.695313 12.558594 22.21875 21.25 38.640625 21.25h148.769531c25.117188 0 46.367188-20.285156 46.367188-46.367187zm-455.003906 250.203125c-.964844-2.898438-1.929688-4.828125-1.929688-7.726562-.96875-1.933594-.96875-2.898438-.96875-4.832032 0-1.929687-.964844-2.898437-.964844-4.828125-.964843-7.726562-1.933593-15.457031-1.933593-23.183593 0-8.695313.96875-18.355469 2.898437-28.015626 0 0 0 0 0-.96875 0-1.929687.96875-3.863281.96875-6.761718 0-.964844.964844-2.898438.964844-3.863282.964844-1.933593.964844-3.863281 1.933594-5.796874.964844-1.929688 1.929687-3.863282 1.929687-5.792969 0-.96875.96875-1.933594.96875-2.902344h82.113281c5.792969 0 9.660157 3.867187 9.660157 9.664063v77.28125c0 5.796874-3.867188 9.660156-9.660157 9.660156h-86.945312c1.933594-.96875.964844-1.933594.964844-1.933594zm230.886718 12.558594c-.96875 1.933594-1.933593 4.832031-2.898437 6.761718 0 .96875-.96875 1.933594-.96875 1.933594-2.898437 4.828125-5.796875 9.660156-9.660156 13.523438l-2.898438 2.898437c-13.523437 14.492188-30.914062 22.21875-50.234375 22.21875h-92.738281c-26.082031 0-48.300781-14.488281-61.828125-38.640625h78.25c16.421875 0 28.984375-12.558594 28.984375-28.980468v-77.285157c0-16.421875-12.558594-28.980469-28.984375-28.980469h-72.453125c5.796875-7.730468 11.59375-15.457031 19.320313-21.253906 22.21875-18.355468 28.984374-35.742187 31.878906-46.367187h12.558594c5.796874 0 9.660156-3.867188 9.660156-9.660157 0-5.796874-3.863282-9.660156-9.660156-9.660156h-20.285157c-5.796875 0-9.660156-3.867187-9.660156-9.664062 0-5.792969 3.863281-9.660156 9.660156-9.660156h115.925781c5.792969 0 9.660157 3.867187 9.660157 9.660156 0 5.796875-3.867188 9.664062-9.660157 9.664062h-46.371093c-5.796875 0-9.660157 3.863282-9.660157 9.660156 0 5.792969 3.863282 9.660157 9.660157 9.660157h39.605469c2.902343 10.625 9.664062 28.015625 31.878906 46.367187 4.832031 3.867188 9.664062 8.695313 13.527344 13.523438l.964843 1.933594c1.933594 2.898437 3.863281 5.796874 6.761719 8.695312.964844.964844.964844 1.933594 1.933594 3.863281.964844 1.933594 1.929687 2.898438 2.898437 4.832031.964844 1.929688 2.898438 4.828126 3.863281 6.761719v.964844c10.628907 23.183594 13.523438 50.234375 10.628907 74.382813 0 1.933593-.96875 4.832031-.96875 6.765624 0 1.929688-.964844 3.863282-.964844 5.792969 0 .96875 0 1.933594-.964844 2.898438-.96875 4.832031-2.898437 9.660156-4.832031 14.492187-.96875 0-.96875.96875-1.929688 2.898438zm204.796876-30.914063h-86.945313v-212.527343h86.945313zm0-231.847656h-106.261719v251.167969h106.261719v30.914062c0 14.492188-11.59375 27.050782-27.050782 27.050782h-148.765625c-10.628906 0-20.289062-6.761719-24.152343-16.421876 6.761718-7.730468 11.59375-17.390624 16.421874-28.015624 0 0 0-.96875.964844-.96875 0-.964844.96875-1.933594.96875-2.898438.964844-1.933594.964844-3.863281 1.933594-5.796875v-.964844c11.589844-39.605469 8.691406-92.738281-22.21875-133.3125v-130.414062c0-36.710938 21.25-54.097657 40.570312-69.554688 2.898438-1.933593 4.832032-3.867187 6.761719-5.796875.96875-.964844 2.902344-2.898437 3.867188-3.863281 5.796875-6.761719 7.726562-14.492187 6.761719-23.1875 0-.964844-.964844-2.898437-.964844-3.863281h3.863281c5.796875 0 9.660156-3.863282 9.660156-9.660156 0-5.796876-3.863281-9.660157-9.660156-9.660157h-12.558594c-1.929687 0-4.828125-.96875-5.792969-1.933593l-.96875-.964844c-.964843-.96875-.964843-1.933594-1.933593-2.898438 0 0 0 0 0-.96875 0-.964844-.964844-1.929687-.964844-2.898437v-9.660157c0-5.796874 3.867187-9.660156 9.660156-9.660156h106.265625c5.792969 0 9.660156 3.863282 9.660156 9.660156v9.660157c0 .96875 0 2.898437-.96875 3.867187 0 0 0 .964844-.964843.964844-.964844.964844-.964844 1.933594-1.933594 1.933594-2.898437 1.929687-4.828125 2.898437-6.761719 2.898437h-55.0625c-5.796875 0-9.660156 3.863281-9.660156 9.660157 0 5.796874 3.863281 9.660156 9.660156 9.660156h47.335938c0 1.933594-.964844 3.863281-.964844 5.796875 0 9.660156 2.898438 18.355469 10.625 24.148437 1.933594 1.933594 4.828125 3.867188 7.726562 5.796875 18.355469 15.457031 39.609376 32.84375 39.609376 69.554688v10.628906zm0 0"/></svg>