<svg height="512pt" viewBox="-49 0 512 512.00166" width="512pt" xmlns="http://www.w3.org/2000/svg"><path d="m399.09375 371.605469c-13.320312-12.929688-13.640625-34.296875-.710938-47.628907 9.753907-10.042968 15.015626-23.28125 14.800782-37.277343-.214844-13.988281-5.871094-27.066407-15.914063-36.824219-13.332031-12.929688-13.652343-34.292969-.722656-47.625 9.757813-10.046875 15.019531-23.285156 14.804687-37.28125-.21875-13.984375-5.871093-27.066406-15.917968-36.820312-13.332032-12.929688-13.648438-34.296876-.71875-47.628907 9.753906-10.042969 15.015625-23.28125 14.800781-37.277343-.214844-13.988282-5.871094-27.066407-15.914063-36.824219l-2.78125-2.695313-112.582031 1.695313c-5.382812.089843-10.335937 3.070312-12.929687 7.777343-2.59375 4.730469-2.460938 10.523438.355468 15.128907 7.996094 13.089843 6.105469 29.933593-4.605468 40.96875-20.109375 20.738281-19.613282 53.992187 1.125 74.113281 13.320312 12.929688 13.640625 34.292969.710937 47.625-9.753906 10.046875-15.015625 23.285156-14.800781 37.28125.214844 13.984375 5.871094 27.066406 15.914062 36.820312 13.332032 12.929688 13.652344 34.296876.722657 47.628907-3.070313 3.152343-5.515625 6.71875-7.667969 10.4375-8.789062-8.972657-12.050781-22.179688-7.585938-34.605469 9.777344-27.1875-4.410156-57.265625-31.597656-67.039062-8.46875-3.042969-15.25-9.195313-19.078125-17.332032-3.828125-8.132812-4.257812-17.28125-1.214843-25.753906 4.734374-13.183594 4.0625-27.414062-1.902344-40.058594-5.972656-12.667968-16.515625-22.246094-29.6875-26.984375-17.476563-6.28125-26.589844-25.605469-20.304688-43.09375 9.765625-27.1875-4.410156-57.257812-31.597656-67.035156l-3.648438-1.296875-101.8125 47.972656c-4.867187 2.292969-8.164062 7.050782-8.585937 12.40625-.429687 5.371094 2.097656 10.617188 6.566406 13.660156 12.675781 8.621094 17.898438 24.753907 12.695313 39.21875-9.773438 27.1875 4.410156 57.265626 31.597656 67.039063 8.472656 3.042969 15.25 9.195313 19.078125 17.332031 3.828125 8.132813 4.257813 17.28125 1.214844 25.753906-9.765625 27.199219 4.410156 57.269532 31.589843 67.042969 17.476563 6.28125 26.589844 25.605469 20.304688 43.09375-9.765625 27.1875 4.410156 57.257813 31.589844 67.035157 17.476562 6.28125 26.585937 25.605468 20.304687 43.09375-4.738281 13.183593-4.0625 27.414062 1.902344 40.058593 5.972656 12.667969 16.515625 22.246094 29.695313 26.984375l3.652343 1.308594 45.425781-21.398438c2.695313 6.683594 6.691407 12.824219 12.019532 18.003907l2.78125 2.695312 112.335937-1.695312c5.484375-.082031 10.355469-2.976563 13.023438-7.769531 2.628906-4.757813 2.527343-10.609376-.289063-15.28125-7.894531-13.070313-5.964844-29.855469 4.6875-40.828126 20.113282-20.738281 19.609375-53.992187-1.128906-74.121093zm-287.933594-351.242188c15.234375 7.425781 22.769532 25.34375 16.90625 41.652344-9.761718 27.179687 4.410156 57.257813 31.597656 67.042969 17.472657 6.28125 26.582032 25.605468 20.300782 43.09375-4.738282 13.171875-4.066406 27.402344 1.898437 40.050781 5.972657 12.667969 16.515625 22.246094 29.699219 26.984375 17.46875 6.28125 26.578125 25.605469 20.296875 43.09375-7.902344 21.992188.113281 46.59375 18.714844 60.050781-.335938 2.542969-.675781 5.101563-.636719 7.722657.019531 1.105468.28125 2.144531.363281 3.238281.085938 1.179687.234375 2.339843.394531 3.507812.316407 2.183594.738282 4.316407 1.328126 6.425781.433593 1.597657.925781 3.171876 1.507812 4.726563.429688 1.125.851562 2.246094 1.355469 3.332031 1.085937 2.371094 2.363281 4.652344 3.800781 6.84375.421875.636719.882812 1.238282 1.320312 1.855469 1.75 2.421875 3.640626 4.761719 5.832032 6.878906 1.65625 1.613281 3.117187 3.351563 4.371094 5.1875.160156.222657.253906.484375.402343.71875 7.042969 10.878907 7.210938 24.960938.375 35.988281-.074219.132813-.121093.273438-.203125.402344-1.199218 1.882813-2.601562 3.671875-4.214844 5.328125-9.304687 9.585938-14.371093 22.113281-14.640624 35.398438-6.003907-7.519531-13.089844-11.609375-18.238282-14.558594-1.339844-.765625-3.027344-1.742187-4.101562-2.480469.347656-1.667968 1.546875-5.515625 5.671875-12.835937.394531-.683594.722656-1.414063.984375-2.152344 10.644531-29.625-4.792969-62.382813-34.414063-73.035156-15.046875-5.414063-22.890625-22.050781-17.480469-37.101563 10.644532-29.613281-4.792968-62.382812-34.414062-73.027344-15.046875-5.410156-22.890625-22.046874-17.480469-37.101562 10.648438-29.621094-4.792969-62.390625-34.402343-73.023438-15.046876-5.414062-22.890626-22.050781-17.480469-37.101562 7.285156-20.261719-.945313-48.179688-14.296875-65.96875zm98.367188 471.273438c-15.234375-7.433594-22.769532-25.351563-16.90625-41.660157 9.761718-27.179687-4.410156-57.257812-31.597656-67.042968-8.472657-3.042969-15.253907-9.191406-19.082032-17.328125s-4.257812-17.285157-1.214844-25.757813c9.765626-27.175781-4.410156-57.257812-31.597656-67.039062-17.472656-6.273438-26.582031-25.609375-20.300781-43.097656 4.738281-13.171876 4.066406-27.402344-1.898437-40.050782-5.972657-12.667968-16.515626-22.246094-29.699219-26.980468-8.46875-3.042969-15.25-9.195313-19.078125-17.339844-3.828125-8.125-4.257813-17.285156-1.214844-25.757813 7.375-20.53125 1.253906-43.214843-14.878906-57.238281l17.789062-8.378906c10.355469 9.035156 18.347656 32.691406 14.285156 44.019531-10.644531 29.621094 4.792969 62.378906 34.414063 73.035156 15.035156 5.402344 22.882813 22.046875 17.472656 37.09375-10.644531 29.621094 4.792969 62.390625 34.414063 73.035157 15.046875 5.410156 22.890625 22.046874 17.488281 37.09375-10.644531 29.621093 4.792969 62.378906 34.414063 73.035156 14.71875 5.289062 22.546874 21.335937 17.816406 36.109375-16.230469 29.492187-7.929688 42.273437 9.550781 52.308593 2.398437 1.375 4.523437 2.65625 6.453125 4.109376zm61.875-13.191407-.375-2.472656c-.382813-2.5625-.457032-5.109375-.28125-7.609375.011718-.160156.03125-.320312.039062-.480469.1875-2.246093.648438-4.445312 1.273438-6.578124.113281-.367188.195312-.734376.316406-1.097657.636719-1.917969 1.5-3.753906 2.484375-5.523437.230469-.421875.410156-.878906.671875-1.300782 1.273438-2.078124 2.742188-4.0625 4.484375-5.851562 2.492187-2.566406 4.664063-5.347656 6.554687-8.285156.195313-.308594.308594-.648438.496094-.957032 5.128906-8.367187 7.902344-17.984374 7.742188-28.046874-.148438-9.945313-3.164063-19.351563-8.433594-27.507813-.265625-.402344-.421875-.851563-.695312-1.253906-1.976563-2.875-4.230469-5.578125-6.785157-8.070313-1.386719-1.339844-2.566406-2.828125-3.679687-4.34375-.421875-.578125-.824219-1.167968-1.199219-1.777344-.589844-.925781-1.105469-1.902343-1.601563-2.882812-.890624-1.789062-1.648437-3.632812-2.199218-5.554688-.082032-.269531-.1875-.542968-.261719-.8125-.355469-1.367187-.636719-2.761718-.824219-4.175781-.007812-.074219-.015625-.148437-.027344-.222656-.550781-4.382813-.253906-8.921875.964844-13.351563l.972656-3.539062c1.609376-4.035156 4.015626-7.761719 7.132813-10.980469 20.121094-20.746093 19.613281-53.992187-1.125-74.105469-6.457031-6.269531-10.089844-14.667968-10.230469-23.65625-.140625-9 3.25-17.5 9.519532-23.96875 20.113281-20.734374 19.625-53.980468-1.113282-74.101562-13.332031-12.9375-13.648437-34.300781-.71875-47.632812 15.195313-15.664063 18.976563-38.855469 10.0625-58.292969l40.101563-.597657c1.917969 11.234376 7.421875 19.003907 11.316406 24.414063.910156 1.246094 2.039063 2.828125 2.714844 3.953125-1.011719 1.375-3.679688 4.390625-10.457031 9.351562-.636719.460938-1.238282.984376-1.789063 1.554688-21.917969 22.59375-21.375 58.804688 1.214844 80.722656 11.480469 11.128906 11.75 29.535156.621093 41.003906-21.917968 22.582032-21.367187 58.796876 1.226563 80.722657 11.476563 11.128906 11.757813 29.535156.617187 41.003906-21.917968 22.59375-21.375 58.804687 1.207032 80.722656 11.476562 11.128907 11.75 29.527344.617187 41.003907-14.519531 14.960937-18.769531 42.507812-14.648437 63.953124l-39.089844.628907c-3.390625-4.078125-5.65625-8.882813-6.816406-14.003907zm115.378906-45.761718c-15.175781 15.636718-18.957031 38.863281-10.066406 58.289062l-30.632813.460938c-4.566406-13.023438-1.878906-35.792969 6.046875-43.964844 21.917969-22.59375 21.375-58.804688-1.214844-80.722656-11.46875-11.128906-11.75-29.527344-.609374-41.003906 21.917968-22.59375 21.375-58.804688-1.214844-80.722657-11.476563-11.128906-11.75-29.539062-.625-41.007812 21.914062-22.589844 21.371094-58.800781-1.21875-80.71875-11.226563-10.898438-11.742188-28.742188-1.328125-40.246094 26.953125-20.167969 24.667969-35.230469 12.882812-51.585937-2.117187-2.929688-3.90625-5.554688-5.132812-8.4375l29.40625-.4375c4.890625 5.886718 7.613281 13.199218 7.722656 20.953124.144531 8.996094-3.246094 17.496094-9.519531 23.964844-9.753906 10.054688-15.015625 23.292969-14.792969 37.28125.207031 13.988282 5.859375 27.066406 15.917969 36.820313 6.457031 6.273437 10.089844 14.671875 10.230468 23.660156.140626 9-3.246093 17.5-9.519531 23.96875-20.121093 20.746094-19.613281 53.992187 1.121094 74.101563 6.460937 6.273437 10.09375 14.671874 10.234375 23.660156.140625 8.996094-3.25 17.496094-9.523438 23.964844-20.109374 20.738281-19.621093 53.984374 1.113282 74.101562 13.335937 12.925781 13.652344 34.289062.722656 47.621094zm0 0"/></svg>