<svg height="512pt" viewBox="0 0 512 512" width="512pt" xmlns="http://www.w3.org/2000/svg"><path d="m359.125 196.828125c-4.230469 2.417969-5.703125 7.8125-3.285156 12.039063 2.425781 4.238281 7.820312 5.722656 12.042968 3.285156 1.058594-.609375 2.398438-.246094 3.007813.820312 2.628906 4.609375 6.902344 7.917969 12.015625 9.320313 5.117188 1.398437 10.476562.71875 15.074219-1.921875 1.050781-.601563 2.410156-.230469 3.011719.820312 3.664062 6.410156 10.371093 10 17.277343 10 3.335938 0 6.722657-.839844 9.824219-2.613281 4.226562-2.40625 5.703125-7.808594 3.28125-12.039063-2.410156-4.230468-7.792969-5.703124-12.039062-3.285156-1.050782.601563-2.410157.230469-3.011719-.820312-5.445313-9.507813-17.601563-12.804688-27.101563-7.386719-.660156.378906-1.277344.316406-1.667968.210937-.394532-.113281-.953126-.378906-1.332032-1.042968-2.628906-4.605469-6.902344-7.90625-12.023437-9.3125-5.109375-1.382813-10.457031-.703125-15.074219 1.925781zm0 0"/><path d="m209.390625 140.890625c.820313.238281 1.660156.351563 2.472656.351563 3.824219 0 7.34375-2.5 8.464844-6.355469.34375-1.171875 1.554687-1.890625 2.738281-1.511719 10.519532 3.082031 21.554688-2.992188 24.625-13.496094.347656-1.171875 1.546875-1.878906 2.746094-1.507812 5.105469 1.480468 10.460938.890625 15.105469-1.652344 4.652343-2.550781 8.03125-6.761719 9.515625-11.855469 1.367187-4.675781-1.324219-9.585937-6.003906-10.945312-4.667969-1.386719-9.566407 1.324219-10.945313 6.003906-.34375 1.183594-1.5625 1.824219-2.738281 1.5-10.519532-3.101563-21.5625 2.992187-24.628906 13.503906-.34375 1.175781-1.570313 1.847657-2.734376 1.5-10.503906-3.105469-21.554687 2.996094-24.628906 13.507813-1.359375 4.6875 1.332032 9.597656 6.011719 10.957031zm0 0"/><path d="m102.375 288.316406c4.34375 3.039063 9.605469 4.175782 14.839844 3.292969 1.199218-.289063 2.347656.59375 2.558594 1.800781 1.695312 9.621094 10.097656 16.410156 19.554687 16.410156 1.128906 0 2.285156-.097656 3.429687-.289062 4.804688-.847656 8.015626-5.414062 7.179688-10.222656-.839844-4.800782-5.386719-7.945313-10.214844-7.175782-1.21875.238282-2.347656-.585937-2.558594-1.785156-1.898437-10.777344-12.191406-18.085937-23.003906-16.128906-.726562.089844-1.308594-.132812-1.644531-.359375-.34375-.242187-.765625-.679687-.910156-1.429687-.917969-5.238282-3.8125-9.78125-8.15625-12.828126-4.34375-3.054687-9.613281-4.230468-14.847657-3.292968-4.800781.847656-8.003906 5.417968-7.160156 10.222656.847656 4.800781 5.441406 8.03125 10.234375 7.15625.722657-.105469 1.304688.132812 1.648438.363281.34375.238281.765625.679688.910156 1.429688.902344 5.230469 3.796875 9.78125 8.140625 12.835937zm0 0"/><path d="m163.496094 264.472656c.820312.242188 1.660156.355469 2.472656.355469 3.820312 0 7.34375-2.5 8.464844-6.355469.335937-1.175781 1.542968-1.882812 2.734375-1.511718 10.503906 3.109374 21.566406-2.992188 24.628906-13.496094.34375-1.175782 1.546875-1.863282 2.738281-1.511719 10.511719 3.074219 21.554688-3 24.628906-13.496094 1.367188-4.679687-1.324218-9.585937-6.003906-10.945312-4.652344-1.332031-9.578125 1.324219-10.945312 6-.214844.734375-.691406 1.121093-1.0625 1.316406-.359375.195313-.953125.398437-1.675782.1875-10.519531-3.074219-21.554687 3-24.628906 13.507813-.34375 1.171874-1.589844 1.84375-2.746094 1.5-10.503906-3.089844-21.554687 2.992187-24.628906 13.503906-1.347656 4.679687 1.335938 9.585937 6.023438 10.945312zm0 0"/><path d="m398.007812 273.859375c-16.367187-1.484375-30.621093 4.800781-36.261718 15.878906-3.628906 7.125-2.726563 15.175781 2.355468 21.019531 2.164063 2.480469 6.976563 8.660157 5.078126 12.488282-1.8125 3.636718-9.359376 6.675781-15.46875 6.269531-5.824219-.398437-10.054688-1.765625-11.589844-3.757813-1.261719-1.652343-1.421875-4.8125-.46875-9.6875.214844-1.101562 1.203125-3.820312 2.066406-6.214843 3.585938-9.894531 7.644531-21.113281 2.992188-29.21875-2.027344-3.539063-5.472657-5.914063-9.742188-6.699219l-1.34375-.210938c-4.839844-.664062-8.960938 2.796876-9.613281 7.617188-.519531 3.859375 1.710937 7.484375 5.09375 9.128906-.453125 3.628906-2.855469 10.246094-3.984375 13.363282-1.242188 3.441406-2.320313 6.417968-2.796875 8.855468-1.265625 6.460938-2.234375 15.96875 3.804687 23.816406 4.820313 6.277344 13.03125 9.84375 24.390625 10.621094.777344.050782 1.5625.078125 2.367188.078125 11.351562 0 24.742187-5.296875 30.109375-16.109375 2.746094-5.527344 5.410156-17.027344-7.566406-31.929687-.238282-.273438-.421876-.484375.054687-1.421875 1.5625-3.0625 7.953125-7.238282 18.996094-6.300782 4.871093.476563 9.136719-3.167968 9.5625-8.023437.414062-4.847656-3.179688-9.140625-8.035157-9.5625zm0 0"/><path d="m203.792969 309.082031c-17.035157-1.546875-25.996094 4.359375-30.507813 9.523438-5.382812 6.171875-7.335937 14.742187-5.347656 23.523437 3.371094 14.902344 2.503906 25.882813-2.5 31.726563-4.980469 5.820312-13.683594 5.898437-17.1875 5.660156-3.714844-.246094-6.371094-1.570313-8.359375-4.160156-4.605469-5.992188-4.933594-17.679688-3.6875-24.0625.925781-4.785157-2.191406-9.417969-6.976563-10.355469-4.816406-.960938-9.425781 2.179688-10.351562 6.976562-1.679688 8.613282-2.085938 26.347657 7.023438 38.203126 5.085937 6.601562 12.402343 10.417968 21.160156 11.007812 1.121094.070312 2.234375.113281 3.328125.113281 11.671875 0 21.917969-4.246093 28.46875-11.90625 8.910156-10.398437 11.027343-26.253906 6.3125-47.105469-.433594-1.898437-.8125-5.445312 1.429687-8.023437 2.570313-2.949219 8.121094-4.21875 15.679688-3.539063 4.855468.449219 9.136718-3.167968 9.558594-8.023437.414062-4.863281-3.179688-9.136719-8.042969-9.558594zm0 0"/><path d="m256 0c-141.160156 0-256 114.847656-256 256 0 66.125 25.042969 128.652344 70.621094 176.480469v26.554687c0 14.601563 11.882812 26.484375 26.484375 26.484375 2.171875 0 4.253906-.335937 6.273437-.832031.601563-.148438 1.167969-.363281 1.75-.546875 1.445313-.464844 2.832032-1.03125 4.164063-1.738281.53125-.273438 1.050781-.53125 1.554687-.839844 1.660156-1.015625 3.210938-2.164062 4.609375-3.503906.050781-.054688.113281-.089844.15625-.132813 1.511719-1.476562 2.792969-3.152343 3.910157-4.953125.0625-.097656.160156-.175781.222656-.273437 40.808594 25.75 87.667968 39.300781 136.253906 39.300781 141.160156 0 256-114.847656 256-256s-114.839844-256-256-256zm-167.726562 459.035156v-88.605468l-1.472657-2.222657c-22.136719-33.304687-33.835937-72.105469-33.835937-112.207031 0-58.375 24.460937-112.691406 67.609375-151.222656 3.851562 14.449218 12.113281 26.648437 26.484375 27.621094 10.371094.75 21.679687-4.378907 29.289062-13.289063 7.539063-8.800781 15.167969-25.199219 9.039063-53.476563 22.625-8.410156 46.34375-12.667968 70.613281-12.667968 111.953125 0 203.03125 91.074218 203.03125 203.035156 0 88.671875-56.714844 166.398438-141.132812 193.394531l-8.785157 2.804688 3.195313 8.652343c.546875 1.472657 1.492187 3.699219 3.378906 5.863282 2.164062 2.480468 6.976562 8.648437 5.078125 12.488281-1.808594 3.648437-9.347656 6.667969-15.46875 6.269531-5.824219-.398437-10.054687-1.765625-11.589844-3.761718-1.261719-1.648438-1.417969-4.816407-.476562-9.683594.390625-1.996094.617187-3.972656.691406-5.902344l.367187-10.480469-10.378906 1.414063c-9.492187 1.324218-18.882812 1.976562-27.914062 1.976562-50.015625 0-98.082032-18.378906-135.355469-51.738281l-14.714844-13.179687v64.917968c0 4.871094-3.960937 8.828125-8.828125 8.828125-4.859375 0-8.824218-3.957031-8.824218-8.828125zm35.3125-5.058594v-21.453124c38.074218 28.59375 84.417968 44.164062 132.414062 44.164062 6.214844 0 12.570312-.28125 18.996094-.847656-.230469 5.34375.664062 11.363281 4.714844 16.640625.175781.238281.441406.398437.636718.628906-8.007812.820313-16.128906 1.234375-24.347656 1.234375-47.484375 0-93.132812-14.007812-132.414062-40.367188zm215.101562 25.554688c.460938-4.5625-.34375-10.355469-4.335938-17.1875 85.609376-32.394531 142.335938-113.882812 142.335938-206.34375 0-121.6875-99-220.691406-220.6875-220.691406-28.644531 0-56.601562 5.464844-83.085938 16.234375l-4.871093 1.988281-.574219 5.234375c-.371094 3.40625-.214844 6.679687.476562 9.726563 4.925782 21.777343 0 33.308593-4.996093 39.160156-4.867188 5.675781-10.957031 7.484375-14.691407 7.140625-8.039062-.546875-11.976562-16.976563-12.570312-27.199219l-.960938-16.683594-13.242187 10.195313c-54.765625 42.171875-86.175781 105.921875-86.175781 174.894531 0 42.691406 12.203125 84.027344 35.3125 119.726562v30.003907c-34.296875-42.300781-52.96875-94.675781-52.96875-149.734375 0-131.421875 106.921875-238.34375 238.347656-238.34375s238.34375 106.921875 238.34375 238.34375c0 102.367187-64.871094 189.847656-155.65625 223.535156zm0 0"/><path d="m288.972656 360.367188c-9.066406-7.632813-22.664062-6.488282-30.316406 2.570312l-6.40625 7.59375c-3.710938 4.386719-5.484375 9.957031-4.996094 15.683594.484375 5.722656 3.167969 10.914062 7.554688 14.628906l21.089844 17.804688c3.917968 3.308593 8.773437 5.078124 13.839843 5.078124.609375 0 1.226563-.027343 1.835938-.082031 5.730469-.484375 10.921875-3.160156 14.628906-7.554687l6.417969-7.601563c7.644531-9.058593 6.496094-22.652343-2.5625-30.3125zm10.160156 36.734374-6.417968 7.601563c-.902344 1.058594-2.023438 1.296875-2.625 1.339844-.609375.070312-1.753906 0-2.8125-.898438l-21.089844-17.796875c-1.058594-.898437-1.296875-2.03125-1.351562-2.628906-.042969-.589844 0-1.75.902343-2.808594l6.417969-7.589844c1.367188-1.644531 3.8125-1.835937 5.4375-.460937l21.089844 17.796875c1.613281 1.375 1.824218 3.820312.449218 5.445312zm0 0"/><path d="m310.261719 151.003906c.972656 5.667969 4.089843 10.613282 8.792969 13.929688 3.671874 2.597656 7.960937 3.945312 12.359374 3.945312 1.21875 0 2.453126-.105468 3.679688-.316406l27.207031-4.652344c5.667969-.960937 10.613281-4.078125 13.929688-8.765625 3.320312-4.6875 4.609375-10.398437 3.648437-16.054687l-1.679687-9.800782c-.96875-5.667968-4.085938-10.609374-8.773438-13.929687-4.6875-3.308594-10.390625-4.609375-16.046875-3.636719l-27.207031 4.652344c-5.667969.964844-10.613281 4.085938-13.933594 8.777344-3.316406 4.6875-4.605469 10.398437-3.644531 16.046875zm16.375-15.660156c.34375-.492188 1.121093-1.339844 2.488281-1.578125l27.207031-4.652344c.230469-.035156.453125-.054687.664063-.054687 1.035156 0 1.808594.425781 2.214844.707031.488281.34375 1.335937 1.128906 1.570312 2.5l1.679688 9.796875c.238281 1.367188-.3125 2.394531-.65625 2.871094-.34375.492187-1.117188 1.332031-2.496094 1.578125l-27.214844 4.652343c-1.378906.195313-2.382812-.308593-2.871094-.652343-.484375-.335938-1.339844-1.121094-1.570312-2.492188l-1.675782-9.804687c-.21875-1.371094.316407-2.382813.660157-2.871094zm0 0"/><path d="m254.527344 217.230469c-4.316406 3.796875-6.886719 9.039062-7.25 14.777343l-.625 9.929688c-.75 11.828125 8.269531 22.070312 20.109375 22.828125l27.550781 1.738281c.464844.027344.914062.046875 1.382812.046875 5.238282 0 10.234376-1.882812 14.1875-5.367187 4.316407-3.796875 6.886719-9.039063 7.25-14.777344l.625-9.933594c.75-11.828125-8.269531-22.066406-20.109374-22.828125l-27.539063-1.738281c-5.722656-.253906-11.273437 1.527344-15.582031 5.324219zm45.601562 18.121093-.625 9.941407c-.089844 1.375-.847656 2.25-1.289062 2.640625-.453125.386718-1.421875 1.042968-2.800782.953125l-27.542968-1.742188c-2.125-.140625-3.742188-1.96875-3.609375-4.085937l.628906-9.9375c.085937-1.378906.847656-2.253906 1.289063-2.640625.449218-.398438 1.410156-1.105469 2.796874-.953125l27.535157 1.738281c2.132812.140625 3.75 1.96875 3.617187 4.085937zm0 0"/><path d="m105.03125 230.851562 26.914062 6.109376h.007813c1.589844.351562 3.179687.527343 4.742187.527343 9.824219 0 18.722657-6.777343 20.980469-16.746093l4.679688-20.636719c1.269531-5.605469.292969-11.363281-2.773438-16.226563-3.0625-4.867187-7.835937-8.246094-13.433593-9.515625l-26.914063-6.101562c-5.605469-1.277344-11.371094-.28125-16.226563 2.78125-4.867187 3.0625-8.246093 7.839843-9.507812 13.425781l-4.679688 20.640625c-1.28125 5.605469-.289062 11.371094 2.78125 16.242187 3.058594 4.863282 7.832032 8.234376 13.429688 9.5zm5.683594-42.472656c.308594-1.339844 1.203125-2.082031 1.703125-2.398437.503906-.308594 1.574219-.792969 2.90625-.496094l26.914062 6.101563c1.359375.300781 2.089844 1.199218 2.410157 1.695312.316406.511719.800781 1.554688.492187 2.914062l-4.679687 20.636719c-.464844 2.058594-2.515626 3.398438-4.605469 2.902344l-26.925781-6.105469c-1.34375-.300781-2.082032-1.195312-2.390626-1.695312-.320312-.503906-.804687-1.554688-.503906-2.90625zm0 0"/></svg>