<svg height="512pt" viewBox="0 0 512 512.0051" width="512pt" xmlns="http://www.w3.org/2000/svg"><path d="m256.011719 42.703125c-117.613281 0-213.296875 95.683594-213.296875 213.292969s95.683594 213.292968 213.296875 213.292968c117.609375 0 213.292969-95.683593 213.292969-213.292968s-95.683594-213.292969-213.292969-213.292969zm0 409.523437c-108.203125 0-196.230469-88.023437-196.230469-196.230468 0-108.207032 88.027344-196.230469 196.230469-196.230469 108.199219 0 196.226562 88.023437 196.226562 196.230469 0 108.207031-88.027343 196.230468-196.226562 196.230468zm0 0"/><path d="m187.753906 187.742188c28.234375 0 51.191406-22.957032 51.191406-51.191407 0-28.230469-22.957031-51.1875-51.191406-51.1875-28.230468 0-51.1875 22.957031-51.1875 51.1875 0 28.234375 22.957032 51.191407 51.1875 51.191407zm0-85.320313c18.824219 0 34.128906 15.308594 34.128906 34.128906 0 18.820313-15.304687 34.125-34.128906 34.125-18.820312 0-34.125-15.304687-34.125-34.125 0-18.820312 15.304688-34.128906 34.125-34.128906zm0 0"/><path d="m187.753906 119.488281c0 4.710938-3.816406 8.53125-8.53125 8.53125-4.710937 0-8.53125-3.820312-8.53125-8.53125 0-4.710937 3.820313-8.53125 8.53125-8.53125 4.714844 0 8.53125 3.820313 8.53125 8.53125zm0 0"/><path d="m187.753906 153.613281c0 4.714844-3.816406 8.53125-8.53125 8.53125-4.710937 0-8.53125-3.816406-8.53125-8.53125 0-4.710937 3.820313-8.53125 8.53125-8.53125 4.714844 0 8.53125 3.820313 8.53125 8.53125zm0 0"/><path d="m213.351562 136.550781c0 4.714844-3.820312 8.53125-8.53125 8.53125-4.710937 0-8.53125-3.816406-8.53125-8.53125 0-4.710937 3.820313-8.53125 8.53125-8.53125 4.710938 0 8.53125 3.820313 8.53125 8.53125zm0 0"/><path d="m179.222656 281.589844c0-28.230469-22.957031-51.1875-51.1875-51.1875-28.234375 0-51.191406 22.957031-51.191406 51.1875 0 28.234375 22.957031 51.191406 51.191406 51.191406 28.230469 0 51.1875-22.957031 51.1875-51.191406zm-51.1875 34.128906c-18.824218 0-34.128906-15.308594-34.128906-34.128906 0-18.820313 15.304688-34.125 34.128906-34.125 18.820313 0 34.125 15.304687 34.125 34.125 0 18.820312-15.3125 34.128906-34.125 34.128906zm0 0"/><path d="m128.035156 264.527344c0 4.710937-3.820312 8.53125-8.535156 8.53125-4.710938 0-8.53125-3.820313-8.53125-8.53125 0-4.710938 3.820312-8.53125 8.53125-8.53125 4.714844 0 8.535156 3.820312 8.535156 8.53125zm0 0"/><path d="m128.035156 298.65625c0 4.710938-3.820312 8.53125-8.535156 8.53125-4.710938 0-8.53125-3.820312-8.53125-8.53125 0-4.714844 3.820312-8.53125 8.53125-8.53125 4.714844 0 8.535156 3.816406 8.535156 8.53125zm0 0"/><path d="m153.628906 281.589844c0 4.714844-3.820312 8.535156-8.53125 8.535156-4.710937 0-8.53125-3.820312-8.53125-8.535156 0-4.710938 3.820313-8.53125 8.53125-8.53125 4.710938 0 8.53125 3.820312 8.53125 8.53125zm0 0"/><path d="m341.328125 230.402344c28.230469 0 51.191406-22.960938 51.191406-51.191406 0-28.230469-22.960937-51.191407-51.191406-51.191407-28.234375 0-51.191406 22.960938-51.191406 51.191407 0 28.230468 22.957031 51.191406 51.191406 51.191406zm0-85.320313c18.820313 0 34.125 15.308594 34.125 34.128907 0 18.820312-15.304687 34.125-34.125 34.125s-34.128906-15.304688-34.128906-34.125c0-18.820313 15.308593-34.128907 34.128906-34.128907zm0 0"/><path d="m341.328125 162.144531c0 4.714844-3.820313 8.535157-8.53125 8.535157-4.714844 0-8.535156-3.820313-8.535156-8.535157 0-4.710937 3.820312-8.53125 8.535156-8.53125 4.710937 0 8.53125 3.820313 8.53125 8.53125zm0 0"/><path d="m341.328125 196.273438c0 4.714843-3.820313 8.53125-8.53125 8.53125-4.714844 0-8.535156-3.816407-8.535156-8.53125 0-4.710938 3.820312-8.53125 8.535156-8.53125 4.710937 0 8.53125 3.820312 8.53125 8.53125zm0 0"/><path d="m366.921875 179.210938c0 4.710937-3.820313 8.53125-8.53125 8.53125s-8.53125-3.820313-8.53125-8.53125c0-4.710938 3.820313-8.53125 8.53125-8.53125s8.53125 3.820312 8.53125 8.53125zm0 0"/><path d="m209.808594 337.117188c-25.839844 11.355468-37.617188 41.617187-26.257813 67.460937 8.417969 19.152344 27.230469 30.585937 46.929688 30.585937 6.871093 0 13.859375-1.390624 20.527343-4.335937 25.84375-11.355469 37.617188-41.617187 26.261719-67.460937-11.355469-25.824219-41.625-37.605469-67.460937-26.25zm34.332031 78.097656c-17.222656 7.578125-37.402344-.265625-44.96875-17.507813-7.578125-17.234375.28125-37.410156 17.503906-44.976562 4.457031-1.957031 9.105469-2.882813 13.6875-2.882813 13.128907 0 25.671875 7.625 31.285157 20.390625 7.578124 17.222657-.28125 37.410157-17.507813 44.976563zm0 0"/><path d="m224.265625 371.789062c0 4.710938-3.820313 8.53125-8.535156 8.53125-4.710938 0-8.53125-3.820312-8.53125-8.53125 0-4.710937 3.820312-8.53125 8.53125-8.53125 4.714843 0 8.535156 3.820313 8.535156 8.53125zm0 0"/><path d="m238 403.023438c0 4.710937-3.820312 8.53125-8.53125 8.53125-4.714844 0-8.535156-3.820313-8.535156-8.53125 0-4.710938 3.820312-8.53125 8.535156-8.53125 4.710938 0 8.53125 3.820312 8.53125 8.53125zm0 0"/><path d="m254.558594 377.105469c0 4.710937-3.816406 8.53125-8.53125 8.53125-4.710938 0-8.53125-3.820313-8.53125-8.53125 0-4.714844 3.820312-8.53125 8.53125-8.53125 4.714844 0 8.53125 3.816406 8.53125 8.53125zm0 0"/><path d="m367.9375 273.964844c-13.4375-2.578125-27.0625.28125-38.359375 7.976562-11.304687 7.695313-18.929687 19.332032-21.480469 32.769532-2.550781 13.429687.28125 27.054687 7.976563 38.351562 7.695312 11.304688 19.332031 18.941406 32.761719 21.492188 3.21875.613281 6.453124.910156 9.65625.910156 10.171874 0 20.109374-3.035156 28.703124-8.898438 11.304688-7.6875 18.933594-19.324218 21.484376-32.761718 2.550781-13.429688-.28125-27.054688-7.980469-38.351563-7.695313-11.3125-19.332031-18.945313-32.761719-21.488281zm23.972656 56.648437c-1.695312 8.960938-6.78125 16.714844-14.316406 21.84375v.007813c-7.542969 5.128906-16.628906 7.003906-25.570312 5.316406-8.957032-1.699219-16.710938-6.792969-21.839844-14.324219-5.136719-7.542969-7.019532-16.613281-5.324219-25.570312 1.699219-8.960938 6.785156-16.714844 14.324219-21.851563 5.726562-3.898437 12.355468-5.921875 19.136718-5.921875 2.132813 0 4.289063.199219 6.433594.605469 8.957032 1.699219 16.710938 6.792969 21.839844 14.324219 5.132812 7.542969 7.015625 16.613281 5.316406 25.570312zm0 0"/><path d="m376.222656 307.597656c0 4.710938-3.820312 8.53125-8.53125 8.53125-4.714844 0-8.53125-3.820312-8.53125-8.53125 0-4.714844 3.816406-8.53125 8.53125-8.53125 4.710938 0 8.53125 3.816406 8.53125 8.53125zm0 0"/><path d="m348.015625 326.800781c0 4.710938-3.820313 8.53125-8.53125 8.53125s-8.53125-3.820312-8.53125-8.53125c0-4.710937 3.820313-8.53125 8.53125-8.53125s8.53125 3.820313 8.53125 8.53125zm0 0"/><path d="m376.523438 338.351562c0 4.714844-3.820313 8.535157-8.535157 8.535157-4.710937 0-8.53125-3.820313-8.53125-8.535157 0-4.710937 3.820313-8.53125 8.53125-8.53125 4.714844 0 8.535157 3.820313 8.535157 8.53125zm0 0"/><path d="m260.222656 294.015625c12.441406-5.683594 21.917969-15.863281 26.691406-28.675781 4.773438-12.816406 4.273438-26.722656-1.410156-39.15625-5.679687-12.4375-15.859375-21.917969-28.675781-26.695313-12.820313-4.792969-26.71875-4.289062-39.152344 1.398438-12.4375 5.683593-21.917969 15.863281-26.695312 28.675781-4.777344 12.816406-4.273438 26.722656 1.40625 39.15625 5.683593 12.4375 15.863281 21.917969 28.675781 26.695312 5.828125 2.171876 11.878906 3.257813 17.917969 3.257813 7.246093 0 14.460937-1.5625 21.242187-4.65625zm-52.3125-32.386719c-3.789062-8.292968-4.121094-17.558594-.933594-26.101562 3.191407-8.546875 9.507813-15.339844 17.796876-19.117188 4.523437-2.066406 9.335937-3.105468 14.164062-3.105468 4.027344 0 8.054688.722656 11.9375 2.167968 8.539062 3.191406 15.332031 9.503906 19.117188 17.804688 3.789062 8.292968 4.121093 17.558594.929687 26.097656-3.179687 8.550781-9.503906 15.339844-17.792969 19.121094-8.296875 3.785156-17.558594 4.113281-26.101562.9375-8.539063-3.191406-15.332032-9.503906-19.117188-17.804688zm0 0"/><path d="m245.457031 228.480469c0 4.710937-3.820312 8.53125-8.53125 8.53125-4.714843 0-8.535156-3.820313-8.535156-8.53125 0-4.710938 3.820313-8.53125 8.535156-8.53125 4.710938 0 8.53125 3.820312 8.53125 8.53125zm0 0"/><path d="m233.527344 260.457031c0 4.714844-3.820313 8.535157-8.53125 8.535157-4.710938 0-8.53125-3.820313-8.53125-8.535157 0-4.710937 3.820312-8.53125 8.53125-8.53125 4.710937 0 8.53125 3.820313 8.53125 8.53125zm0 0"/><path d="m263.476562 253.421875c0 4.710937-3.820312 8.53125-8.53125 8.53125-4.714843 0-8.535156-3.820313-8.535156-8.53125 0-4.714844 3.820313-8.535156 8.535156-8.535156 4.710938 0 8.53125 3.820312 8.53125 8.535156zm0 0"/><path d="m256.011719 153.613281c23.519531 0 42.65625-19.136719 42.65625-42.65625 0-4.71875-3.820313-8.535156-8.53125-8.535156-4.710938 0-8.53125 3.816406-8.53125 8.535156 0 14.109375-11.484375 25.59375-25.597657 25.59375-4.707031 0-8.53125 3.816407-8.53125 8.53125 0 4.71875 3.816407 8.53125 8.535157 8.53125zm0 0"/><path d="m151.410156 219.617188c4.453125 0 8.984375-.699219 13.445313-2.183594 4.472656-1.496094 6.886719-6.324219 5.402343-10.792969-1.484374-4.472656-6.304687-6.867187-10.792968-5.410156-13.375 4.460937-27.914063-2.796875-32.378906-16.183594-1.492188-4.460937-6.3125-6.886719-10.792969-5.390625-4.46875 1.484375-6.882813 6.3125-5.390625 10.792969 5.945312 17.847656 22.632812 29.167969 40.507812 29.167969zm0 0"/><path d="m338.625 382.652344c-6.496094 2.15625-13.4375 1.671875-19.546875-1.382813-6.109375-3.046875-10.667969-8.320312-12.832031-14.804687-1.484375-4.460938-6.304688-6.890625-10.792969-5.390625-4.472656 1.484375-6.886719 6.3125-5.394531 10.792969 5.957031 17.855468 22.636718 29.167968 40.5 29.167968 4.464844 0 9.003906-.707031 13.464844-2.199218 4.46875-1.484376 6.886718-6.3125 5.390624-10.792969-1.492187-4.472657-6.3125-6.894531-10.789062-5.390625zm0 0"/><path d="m372.75 247.480469c-2.304688 4.113281-.828125 9.316406 3.285156 11.613281 6.449219 3.609375 13.566406 5.453125 20.765625 5.453125 3.898438 0 7.816407-.539063 11.671875-1.632813 10.953125-3.097656 20.058594-10.289062 25.621094-20.234374 2.304688-4.113282.828125-9.320313-3.285156-11.613282-4.121094-2.3125-9.316406-.828125-11.613282 3.285156-3.335937 5.972657-8.796874 10.289063-15.371093 12.160157-6.570313 1.859375-13.480469 1.046875-19.460938-2.304688-4.121093-2.304687-9.308593-.828125-11.613281 3.273438zm0 0"/><path d="m239.527344 327.347656c6.449218 3.609375 13.566406 5.453125 20.765625 5.453125 3.898437 0 7.8125-.539062 11.671875-1.628906 10.953125-3.097656 20.058594-10.292969 25.621094-20.238281 2.300781-4.113282.824218-9.316406-3.285157-11.613282-4.121093-2.292968-9.320312-.828124-11.613281 3.285157-3.335938 5.972656-8.796875 10.289062-15.375 12.160156-6.558594 1.859375-13.480469 1.039063-19.460938-2.304687-4.117187-2.304688-9.308593-.828126-11.609374 3.285156-2.296876 4.109375-.828126 9.304687 3.285156 11.601562zm0 0"/><path d="m194.164062 296.871094c-1.765624-4.375-6.742187-6.472656-11.109374-4.707032-4.367188 1.765626-6.476563 6.738282-4.703126 11.105469 5.300782 13.082031-1.039062 28.035157-14.121093 33.335938-4.367188 1.765625-6.472657 6.738281-4.699219 11.109375 1.339844 3.324218 4.539062 5.332031 7.90625 5.332031 1.066406 0 2.152344-.195313 3.199219-.621094 21.800781-8.835937 32.355469-33.753906 23.527343-55.554687zm0 0"/><path d="m342.863281 250.246094c4.632813-.855469 7.703125-5.300782 6.851563-9.929688-.84375-4.625-5.273438-7.714844-9.929688-6.851562-11.210937 2.054687-20.957031 8.351562-27.414062 17.738281-6.457032 9.375-8.890625 20.710937-6.824219 31.925781.75 4.109375 4.339844 6.984375 8.375 6.984375.511719 0 1.035156-.042969 1.554687-.144531 4.632813-.851562 7.703126-5.296875 6.851563-9.929688-1.238281-6.730468.210937-13.539062 4.09375-19.164062 3.875-5.613281 9.710937-9.382812 16.441406-10.628906zm0 0"/><path d="m508.03125 241.789062c7.820312-19.699218 3.890625-41.777343-10.28125-57.628906-6.605469-7.390625-10.101562-16.886718-9.855469-26.722656.539063-21.140625-10.792969-40.542969-29.5625-50.644531-8.777343-4.726563-15.371093-12.476563-18.554687-21.824219-6.808594-20.015625-24.144532-34.402344-45.253906-37.542969-9.914063-1.472656-18.8125-6.542969-25.058594-14.273437-13.308594-16.484375-34.535156-24.167969-55.445313-19.957032-9.855469 1.972657-19.972656.199219-28.53125-4.964843v-.007813c-18.191406-10.960937-40.789062-10.96875-58.988281.011719-8.550781 5.160156-18.667969 6.9375-28.53125 4.964844-20.886719-4.195313-42.128906 3.464843-55.449219 19.957031-6.234375 7.730469-15.132812 12.796875-25.058593 14.273438-21.097657 3.140624-38.433594 17.53125-45.242188 37.539062-3.183594 9.351562-9.777344 17.097656-18.558594 21.824219-18.765625 10.101562-30.097656 29.503906-29.558594 50.648437.246094 9.835938-3.253906 19.332032-9.855468 26.71875-14.1640628 15.84375-18.105469 37.933594-10.28125 57.632813 3.632812 9.164062 3.632812 19.25 0 28.410156-7.824219 19.699219-3.8906252 41.78125 10.28125 57.632813 6.601562 7.390624 10.101562 16.886718 9.855468 26.722656-.539062 21.140625 10.792969 40.542968 29.558594 50.644531 8.78125 4.726563 15.375 12.472656 18.558594 21.824219 6.808594 20.015625 24.144531 34.402344 45.25 37.539062 9.914062 1.476563 18.8125 6.546875 25.058594 14.277344 13.308594 16.484375 34.546875 24.144531 55.449218 19.953125 9.851563-1.960937 19.972657-.1875 28.53125 4.976563 9.09375 5.484374 19.289063 8.230468 29.492188 8.230468 10.207031 0 20.398438-2.746094 29.496094-8.242187 8.546875-5.160157 18.667968-6.933594 28.53125-4.964844 20.882812 4.222656 42.128906-3.472656 55.445312-19.957031 6.238282-7.730469 15.136719-12.796875 25.058594-14.273438 21.101562-3.140625 38.4375-17.53125 45.246094-37.539062 3.183594-9.351563 9.777344-17.097656 18.554687-21.824219 18.769531-10.101563 30.101563-29.503906 29.5625-50.648437-.246093-9.835938 3.25-19.332032 9.855469-26.71875 14.160156-15.84375 18.101562-37.933594 10.28125-57.632813-3.636719-9.164063-3.636719-19.25 0-28.414063zm-15.855469 34.710938c5.417969 13.648438 2.679688 28.972656-7.140625 39.96875-9.503906 10.632812-14.546875 24.316406-14.1875 38.523438.367188 14.664062-7.515625 28.144531-20.59375 35.175781-12.59375 6.773437-22.046875 17.917969-26.628906 31.351562-4.742188 13.941407-16.847656 23.96875-31.601562 26.160157-14.164063 2.105468-26.882813 9.367187-35.816407 20.441406-9.308593 11.507812-24.179687 16.824218-38.828125 13.941406-14.042968-2.824219-28.488281-.28125-40.6875 7.089844-12.753906 7.695312-28.597656 7.6875-41.34375.007812-8.957031-5.417968-19.121094-8.214844-29.445312-8.214844-3.742188 0-7.515625.367188-11.25 1.117188-14.675782 2.890625-29.523438-2.433594-38.828125-13.941406-8.941407-11.074219-21.664063-18.324219-35.820313-20.441406-14.75-2.203126-26.863281-12.226563-31.609375-26.160157-4.578125-13.4375-14.035156-24.578125-26.625-31.351562-13.070312-7.03125-20.964843-20.511719-20.597656-35.175781.359375-14.207032-4.683594-27.890626-14.1875-38.523438-9.828125-10.996094-12.566406-26.320312-7.140625-39.96875 5.253906-13.226562 5.253906-27.789062 0-41.015625-5.417969-13.648437-2.679688-28.972656 7.140625-39.96875 9.503906-10.632813 14.546875-24.316406 14.1875-38.523437-.367187-14.664063 7.519531-28.144532 20.597656-35.175782 12.589844-6.773437 22.046875-17.917968 26.625-31.351562 4.746094-13.941406 16.851563-23.96875 31.601563-26.160156 14.164062-2.105469 26.886718-9.367188 35.816406-20.441407 9.308594-11.519531 24.171875-16.867187 38.828125-13.941406 14.042969 2.804687 28.488281.28125 40.6875-7.089844 12.753906-7.695312 28.597656-7.695312 41.355469 0 12.207031 7.371094 26.660156 9.921875 40.6875 7.089844 14.671875-2.917969 29.519531 2.421875 38.828125 13.941406 8.941406 11.074219 21.660156 18.328125 35.816406 20.441407 14.75 2.203124 26.867187 12.226562 31.609375 26.160156 4.582031 13.4375 14.035156 24.578125 26.628906 31.351562 13.070313 7.03125 20.960938 20.511719 20.59375 35.175782-.359375 14.207031 4.683594 27.890624 14.1875 38.523437 9.828125 10.996094 12.570313 26.320313 7.140625 39.96875-5.253906 13.234375-5.253906 27.796875 0 41.015625zm0 0"/></svg>