<svg height="512pt" viewBox="-18 0 512 512.00064" width="512pt" xmlns="http://www.w3.org/2000/svg"><path d="m464.148438 410.050781-15.496094-7.046875c3.285156-4.5 5.253906-7.382812 5.382812-7.578125l.609375-1.023437c22.152344-43.011719 16.136719-86.390625-16.492187-119.011719l-68.6875-68.6875-133.105469-133.09375c-39.246094-39.246094-98.621094-46.328125-145.1875-21.335937l-5.304687-37.085938c-1.082032-7.617188-6.691407-13.453125-14.257813-14.859375-7.617187-1.457031-14.898437 2.046875-18.648437 8.785156l-21.640626 38.96875-19.257812 6.414063c-6.9375 2.324218-11.664062 8.523437-12.0390625 15.824218-.3828125 7.300782 3.6718745 13.972657 10.3242185 16.996094l31.234375 14.191406c-25.546875 46.691407-18.667969 106.554688 20.824219 146.054688l195.398438 195.382812 6.394531 6.398438c19.671875 19.671875 43.199219 29.667969 68.195312 29.667969 12.890625 0 26.175781-2.695313 39.527344-8.058594l3.496094 24.433594c1.191406 8.355469 7.308593 14.734375 15.605469 16.269531 1.230468.226562 2.453124.34375 3.660156.34375 6.929687 0 13.265625-3.667969 16.757812-9.96875l26.550782-47.980469 24.257812-8.082031c7.585938-2.527344 12.773438-9.316406 13.195312-17.320312.425782-7.992188-4.011718-15.292969-11.296874-18.597657zm-230.988282-311.8125 44.214844 44.222657c-55.324219 7.066406-132.730469 43.636718-145.699219 146.558593l-44.472656-44.460937c7.085937-134.292969 122.664063-145.460938 145.957031-146.320313zm62.65625 62.648438 44.242188 44.25c-55.1875 7.125-132.75 43.59375-145.738282 146.5l-44.460937-44.460938c7.078125-134.480469 122.878906-145.394531 145.957031-146.289062zm62.597656 62.613281 44.203126 44.203125c-55.324219 7.078125-132.703126 43.636719-145.691407 146.558594l-44.457031-44.460938c7.074219-134.453125 122.808594-145.472656 145.945312-146.300781zm-305.90625-138.632812-29.324218-13.324219 15.074218-5.03125c4.203126-1.394531 7.695313-4.289063 9.871094-8.175781l19.101563-34.402344 5.753906 40.316406c-1.199219.945312-2.351563 1.96875-3.519531 2.972656-2.5 2.09375-4.890625 4.210938-7.054688 6.386719l-.015625.007813c-.007812.011718-.015625.019531-.039062.03125-3.453125 3.460937-6.59375 7.113281-9.554688 10.863281-.085937.128906-.195312.226562-.292969.355469zm10 19.855468 1.394532-2.0625c1.878906-2.777344 3.859375-5.433594 5.925781-7.953125.433594-.519531.914063-.992187 1.359375-1.496093 1.671875-1.957032 3.363281-3.90625 5.144531-5.6875.355469-.355469.789063-.710938 1.152344-1.0625 1.644531-1.59375 3.324219-3.097657 5.046875-4.554688 2.089844-1.734375 4.320312-3.457031 6.769531-5.207031l4.015625-2.871094c16.996094-10.984375 36.519532-16.515625 56.074219-16.515625 22.898437 0 45.796875 7.578125 64.601563 22.675781-54.996094 7.359375-131.65625 43.820313-144.851563 145.6875-28.273437-34.816406-30.460937-83.890625-6.632813-120.953125zm215.613282 330.714844-3.019532-3.019531c7.078126-134.265625 122.625-145.433594 145.9375-146.300781l3.207032 3.210937c26.421875 26.410156 31.085937 60.320313 13.195312 95.542969-.875 1.257812-3.421875 4.910156-7.09375 9.820312l-23.945312-10.875-4.652344 6.882813c-4.644531 6.867187-9.800781 13.15625-15.34375 18.683593-4.535156 4.539063-9.769531 8.90625-16.011719 13.363282l-4.871093 3.484375 3.515624 24.601562c-21.863281 9.867188-58.027343 17.503907-90.917968-15.394531zm153.652344-.039062c-4.605469 1.527343-8.421876 4.714843-10.785157 8.945312l-26.078125 48.269531-8.214844-57.449219c5.085938-3.898437 9.574219-7.8125 13.636719-11.878906 2.273438-2.273437 4.488281-4.652344 6.644531-7.125 2.136719-2.457031 4.210938-5.019531 6.21875-7.664062l23.214844 10.558594.234375-.304688 19.398438 8.550781zm0 0"/><path d="m69.179688 157.292969c1.945312 2.214843 4.671874 3.347656 7.398437 3.347656 2.304687 0 4.625-.808594 6.496094-2.441406 4.082031-3.582031 4.484375-9.800781.90625-13.894531-1.578125-1.792969-2.945313-3.265626-4.15625-4.578126-4.347657-4.722656-5.53125-5.992187-7.917969-12.800781-1.804688-5.136719-7.433594-7.832031-12.539062-6.023437-5.128907 1.800781-7.832032 7.421875-6.023438 12.539062 3.5625 10.164063 6.574219 13.726563 12.027344 19.621094 1.109375 1.210938 2.371094 2.578125 3.808594 4.230469zm0 0"/><path d="m107.132812 180.949219c-3.847656 3.847656-3.847656 10.066406 0 13.914062l24.402344 24.414063c1.921875 1.921875 4.441406 2.882812 6.960938 2.882812 2.515625 0 5.035156-.964844 6.957031-2.882812 3.847656-3.847656 3.847656-10.066406 0-13.914063l-24.40625-24.414062c-3.847656-3.847657-10.078125-3.847657-13.914063 0zm0 0"/><path d="m194.644531 282.386719c1.917969 1.917969 4.4375 2.882812 6.957031 2.882812 2.519532 0 5.039063-.964843 6.957032-2.882812 3.851562-3.847657 3.851562-10.066407 0-13.914063l-25.417969-25.429687c-3.847656-3.847657-10.066406-3.847657-13.914063 0-3.847656 3.847656-3.847656 10.070312 0 13.914062zm0 0"/><path d="m258.984375 346.722656c1.917969 1.921875 4.4375 2.886719 6.957031 2.886719 2.519532 0 5.035156-.96875 6.957032-2.886719 3.847656-3.847656 3.847656-10.066406 0-13.910156l-24.121094-24.121094c-3.847656-3.847656-10.066406-3.847656-13.910156 0-3.851563 3.847656-3.851563 10.066406 0 13.914063zm0 0"/><path d="m311.316406 372.613281c-3.878906-3.796875-10.097656-3.71875-13.914062.160157-3.796875 3.886718-3.730469 10.113281.15625 13.914062 16.453125 16.097656 31.773437 28.910156 46.839844 39.15625 1.695312 1.148438 3.621093 1.699219 5.53125 1.699219 3.148437 0 6.238281-1.503907 8.148437-4.308594 3.058594-4.488281 1.890625-10.609375-2.609375-13.679687-14.097656-9.5625-28.535156-21.65625-44.152344-36.941407zm0 0"/><path d="m110.28125 90.25c6.78125 2.851562 8.699219 4.792969 14.347656 10.550781l1.742188 1.769531c1.921875 1.941407 4.457031 2.925782 6.996094 2.925782 2.5 0 5-.945313 6.917968-2.847656 3.867188-3.816407 3.898438-10.046876.078125-13.914063l-1.691406-1.722656c-6.21875-6.335938-10.332031-10.519531-20.773437-14.90625-4.980469-2.125-10.785157.234375-12.882813 5.261719-2.105469 5.007812.246094 10.777343 5.265625 12.882812zm0 0"/><path d="m187.472656 164.101562c1.917969 1.921876 4.4375 2.882813 6.957032 2.882813 2.519531 0 5.035156-.964844 6.957031-2.882813 3.847656-3.847656 3.847656-10.066406 0-13.914062l-26.953125-26.960938c-3.847656-3.847656-10.066406-3.847656-13.914063 0-3.847656 3.847657-3.847656 10.066407 0 13.914063zm0 0"/><path d="m248.835938 225.460938c1.921874 1.917968 4.441406 2.882812 6.957031 2.882812 2.519531 0 5.039062-.964844 6.960937-2.882812 3.847656-3.847657 3.847656-10.070313 0-13.914063l-24.316406-24.316406c-3.847656-3.847657-10.066406-3.847657-13.914062 0-3.847657 3.847656-3.847657 10.066406 0 13.914062zm0 0"/><path d="m311.394531 288.035156c1.917969 1.921875 4.4375 2.882813 6.957031 2.882813 2.519532 0 5.039063-.964844 6.957032-2.882813 3.847656-3.847656 3.847656-10.066406 0-13.914062l-24.296875-24.296875c-3.847657-3.847657-10.066407-3.847657-13.914063 0-3.847656 3.851562-3.847656 10.070312 0 13.914062zm0 0"/><path d="m389.902344 373.824219c1.863281 3.011719 5.089844 4.667969 8.386718 4.667969 1.769532 0 3.550782-.472657 5.164063-1.46875 4.628906-2.863282 6.042969-8.925782 3.191406-13.550782-11.691406-18.871094-26.726562-35.089844-41.242187-49.800781-3.839844-3.878906-10.058594-3.910156-13.914063-.101563-3.878906 3.820313-3.90625 10.046876-.097656 13.914063 13.703125 13.90625 27.855469 29.121094 38.511719 46.339844zm0 0"/></svg>