<svg height="511pt" viewBox="1 -66 511.99852 511" width="511pt" xmlns="http://www.w3.org/2000/svg"><path d="m504.34375 167.835938-.246094-.035157c-.097656-.019531-.1875-.082031-.28125-.089843l-47.113281-6.191407-.015625-92.207031c0-.0625.027344-.140625.027344-.140625 0-.160156-.027344-.25-.027344-.355469v-.222656c-.007812-.269531-.070312-.527344-.085938-.800781-.0625-.96875-.140624-1.941407-.335937-2.894531-.046875-.210938-.125-.421876-.167969-.632813-.238281-1.050781-.53125-2.09375-.925781-3.125-.035156-.078125-.082031-.160156-.105469-.238281-14.457031-36.464844-123.941406-60.402344-226.699218-60.402344-110.296876.007812-228.367188 27.574219-228.367188 68.605469 0 .132812.0351562.265625.0351562.390625l-.0351562 160.347656c0 38.113281 105.027344 71.542969 224.757812 71.542969l4.675782-.035157c4.832031-.050781 8.714844-3.984374 8.714844-8.820312v-59.34375c9.515624 3.167969 23.40625 7.824219 35.28125 11.820312v73.042969c0 2.0625.722656 4.0625 2.035156 5.652344l44.105468 52.921875c.085938.109375.226563.140625.316407.25.097656.105469.140625.253906.238281.359375.503906.496094 1.128906.785156 1.71875 1.148437.335938.203126.609375.484376.972656.640626 1.101563.488281 2.292969.777343 3.527344.777343h.042969c71.5625-.335937 138.703125-8.695312 179.585937-22.367187 3.589844-1.199219 6.027344-4.578125 6.027344-8.363282v-172.492187c.015625-4.429687-3.261719-8.167969-7.65625-8.742187zm-173.589844 21.777343-23.921875-27.640625 97.695313 10.53125.0625.007813h.011718l19.722657 2.585937 30.457031 4.003906c-35.097656 6.296876-78.433594 10.042969-124.027344 10.511719zm108.300782-30.414062-24.488282-3.21875v-33.773438c9.535156-3.828125 17.828125-10.019531 24.480469-17.242187zm-226.074219-35.308594c-121.546875-2.214844-194.941407-38.34375-195.3125-54.652344v-.210937c.433593-17.871094 87.605469-50.886719 210.679687-50.886719 98.96875 0 174.691406 21.347656 200.792969 38.890625.308594.210938.652344.421875.953125.636719.296875.210937.554688.414062.835938.625 4.332031 3.191406 7.023437 6.246093 7.84375 9.003906.078124.292969.105468.566406.148437.847656.042969.265625.105469.527344.113281.777344v.335937c-.140625 6.570313-11.058594 28.851563-30.933594 36.761719l-216.589843-45.160156-1.851563-.386719c-.21875-.046875-.449218-.011718-.667968-.039062-2.859376-.378906-5.613282.65625-7.542969 2.726562-.300781.316406-.644531.589844-.898438.960938-1.007812 1.472656-1.527343 3.175781-1.546875 4.886718-.015625 1.703126.460938 3.421876 1.429688 4.914063zm7.535156 159.839844c-126.335937-.804688-202.875-37.601563-202.875-53.886719l.027344-134.089844c34.558593 25.667969 115.453125 45.222656 202.847656 45.847656zm17.640625-68.75v-82.164063c0-.09375-.035156-.183594-.042969-.289062-.011719-.316406-.097656-.617188-.132812-.933594-.070313-.476562-.105469-.964844-.246094-1.429688-.117187-.378906-.335937-.734374-.503906-1.09375-.167969-.363281-.28125-.742187-.492188-1.074218l-29.867187-45.859375 190.058594 40.1875v31.339843l-113.097657-14.863281c-.125-.019531-.246093.015625-.371093.007813l-.054688-.007813c-.273438-.035156-.535156.027344-.808594.007813-.425781-.015625-.847656-.015625-1.269531.019531-.488281.050781-.945313.15625-1.414063.289063-.246093.070312-.492187.0625-.742187.148437-.15625.0625-.28125.175781-.429687.246094-.425782.1875-.804688.425781-1.199219.671875-.371094.238281-.722657.464844-1.050781.75-.328126.28125-.609376.609375-.890626.941406-.292968.34375-.566406.679688-.804687 1.058594-.085937.152344-.226563.257812-.308594.40625-.132812.257812-.167969.53125-.28125.785156-.175781.40625-.328125.8125-.441406 1.246094-.113281.457031-.167969.898437-.210937 1.355468-.019532.292969-.117188.546876-.117188.820313v78.839844c-17.085938-5.722657-28.058594-9.351563-35.28125-11.40625zm52.921875 23.683593v-67.441406l26.464844 30.582032v144.816406l-26.464844-31.761719zm44.105469 123.398438v-154.878906c62.042968-.917969 119.914062-7.859375 159.191406-18.980469v154.402344c-37.882812 11.433593-96.222656 18.578125-159.191406 19.457031zm0 0"/></svg>