<svg height="512pt" viewBox="-13 0 512 512.00088" width="512pt" xmlns="http://www.w3.org/2000/svg"><path d="m83.5 218.464844c-4.855469-2.546875-10.847656-.664063-13.382812 4.171875-19.496094 37.15625-24.71875 78.515625-14.710938 116.453125 1.167969 4.449218 5.179688 7.390625 9.566406 7.390625.84375 0 1.695313-.109375 2.539063-.335938 5.289062-1.398437 8.449219-6.816406 7.050781-12.105469-8.734375-33.144531-4.078125-69.441406 13.105469-102.199218 2.546875-4.84375.675781-10.828125-4.167969-13.375zm0 0"/><path d="m133.246094 153.351562c-10.0625 6.609376-19.535156 14.207032-28.132813 22.566407-3.921875 3.816406-4.019531 10.085937-.207031 14.007812 1.941406 2 4.527344 3 7.109375 3 2.488281 0 4.984375-.929687 6.898437-2.804687 7.714844-7.488282 16.207032-14.292969 25.207032-20.226563 4.578125-3.003906 5.847656-9.144531 2.84375-13.71875-3.011719-4.554687-9.152344-5.816406-13.71875-2.824219zm0 0"/><path d="m283.808594 72.796875c13.839844-9.726563 32.796875-11.210937 33.027344-11.234375 4.882812-.324219 8.804687-4.167969 9.210937-9.042969.414063-4.871093-2.78125-9.320312-7.546875-10.46875-22.230469-5.359375-41.386719-5.867187-57.148438-1.539062-5.320312-25.4375-12.261718-35.5-13.132812-36.699219-3.738281-5.082031-12.246094-5.082031-15.980469 0-.871093 1.199219-7.816406 11.261719-13.136719 36.699219-15.78125-4.328125-34.917968-3.820313-57.144531 1.539062-4.753906 1.148438-7.964843 5.597657-7.550781 10.46875.417969 4.875 4.332031 8.71875 9.214844 9.042969.257812.019531 20.039062 1.675781 33.925781 11.910156-113.828125 19.445313-197.546875 110.203125-197.546875 217.574219 0 113.640625 93.285156 208.304687 217.742188 220.242187l40.378906.710938c127.433594-7.300781 227.265625-104.359375 227.265625-220.953125.007812-109.441406-85.390625-200.386719-201.578125-218.25zm-26.0625 419.410156-38.859375-.683593c-113.484375-10.90625-199.070313-97.097657-199.070313-200.476563 0-102.785156 85.050782-188.90625 197.839844-200.332031 3.242188-.324219 6.105469-2.226563 7.679688-5.070313 1.566406-2.851562 1.644531-6.28125.199218-9.191406-3.597656-7.234375-8.679687-12.976563-14.367187-17.515625 4.042969.902344 7.757812 2.191406 11.136719 3.875 2.832031 1.394531 6.160156 1.375 8.964843-.058594 2.800781-1.449218 4.742188-4.152344 5.238281-7.273437 1.128907-7.21875 2.417969-13.320313 3.714844-18.402344 1.296875 5.082031 2.585938 11.171875 3.714844 18.402344.492188 3.121093 2.4375 5.816406 5.238281 7.273437 2.804688 1.453125 6.140625 1.464844 8.964844.058594 3.386719-1.683594 7.125-2.980469 11.183594-3.882812-5.566407 4.429687-10.53125 9.996093-14.117188 16.980468-1.503906 2.941406-1.445312 6.445313.160157 9.328125 1.605468 2.894531 4.546874 4.796875 7.84375 5.0625 115.367187 9.53125 202.371093 95.832031 202.371093 200.746094 0 106.113281-91.617187 194.472656-207.835937 201.160156zm0 0"/></svg>