<svg height="512pt" viewBox="0 0 512 512" width="512pt" xmlns="http://www.w3.org/2000/svg"><path d="m500.410156 11.585938c-7.472656-7.472657-17.433594-11.585938-28.054687-11.585938-10.632813 0-20.59375 4.113281-28.066407 11.585938l-47.925781 71.609374-19.59375-20.183593c-9.839843-9.839844-27.132812-9.796875-36.871093-.042969l-278.445313 274.851562c-10.160156 10.179688-10.160156 26.734376.21875 37.125l22.308594 20.859376-71.078125 47.40625-1.324219 1.085937c-7.464844 7.464844-11.578125 17.425781-11.578125 28.058594 0 10.621093 4.113281 20.582031 11.585938 28.058593 7.464843 7.472657 17.4375 11.585938 28.066406 11.585938 10.621094 0 20.585937-4.113281 28.058594-11.585938l50.1875-72.898437 21.863281 20.445313c4.917969 4.917968 11.46875 7.628906 18.460937 7.628906 6.996094 0 13.546875-2.710938 18.496094-7.671875l271.171875-274.789063c10.144531-10.179687 10.136719-26.71875.070313-36.792968l-18.90625-19.472657 70.128906-48.144531 1.226562-1.015625c7.472656-7.464844 11.589844-17.4375 11.589844-28.058594 0-10.621093-4.113281-20.59375-11.589844-28.058593zm-445.542968 477.027343c-8.410157 7.902344-22.78125 7.683594-30.980469-.511719-4.183594-4.183593-6.488281-9.777343-6.488281-15.746093 0-5.707031 2.097656-11.066407 5.941406-15.1875l72.15625-48.109375 8.300781 8.289062zm380.679687-327.769531-271.179687 274.808594c-3.246094 3.261718-8.824219 3.460937-12.511719-.203125l-78.078125-73.015625c-3.402344-3.394532-3.402344-8.917969-.054688-12.265625l278.445313-274.855469c1.625-1.632812 3.808593-2.53125 6.140625-2.53125 2.332031 0 4.523437.90625 6.054687 2.4375l71.191407 73.320312c3.390624 3.394532 3.390624 8.917969-.007813 12.304688zm53.066406-105.976562-71.265625 48.929687-8.289062-8.300781 48.109375-72.15625c8.429687-7.855469 22.75-7.636719 30.945312.546875 4.183594 4.1875 6.488281 9.78125 6.488281 15.765625 0 5.726562-2.125 11.101562-5.988281 15.214844zm0 0"/><path d="m160.761719 301.535156c-3.402344-3.402344-8.898438-3.402344-12.300781 0l-43.496094 43.496094c-3.402344 3.402344-3.402344 8.902344 0 12.300781 1.695312 1.699219 3.921875 2.550781 6.148437 2.550781 2.230469 0 4.457031-.851562 6.152344-2.550781l43.5-43.496093c3.398437-3.394532 3.398437-8.898438-.003906-12.300782zm0 0"/><path d="m212.960938 301.535156c-3.402344-3.402344-8.898438-3.402344-12.300782 0l-69.597656 69.597656c-3.402344 3.402344-3.402344 8.902344 0 12.300782 1.695312 1.699218 3.925781 2.550781 6.152344 2.550781 2.226562 0 4.453125-.855469 6.148437-2.550781l69.601563-69.597656c3.398437-3.394532 3.398437-8.898438-.003906-12.300782zm0 0"/><path d="m252.859375 301.535156-95.695313 95.695313c-3.402343 3.402343-3.402343 8.902343 0 12.300781 1.695313 1.699219 3.921876 2.550781 6.148438 2.550781s4.457031-.855469 6.152344-2.550781l95.695312-95.695312c3.402344-3.402344 3.402344-8.902344 0-12.300782-3.402344-3.402344-8.898437-3.394531-12.300781 0zm0 0"/></svg>