<svg height="512pt" viewBox="0 -39 512.00081 512" width="512pt" xmlns="http://www.w3.org/2000/svg"><path d="m501.316406 10.675781c-14.222656-14.222656-37.378906-14.242187-51.628906 0l-183.375 183.375-29.40625-29.402343c-6.902344-6.921876-18.164062-6.921876-25.101562-.046876l-211.804688 210.34375 6.480469 6.480469c35.59375 35.601563 82.359375 53.40625 129.125 53.40625 46.730469 0 93.460937-17.785156 129.027343-53.351562l82.558594-81.207031c3.40625-3.351563 5.292969-7.824219 5.3125-12.605469.019532-4.785157-1.824218-9.273438-5.203125-12.644531l-29.332031-29.332032 183.359375-183.367187c14.230469-14.242188 14.230469-37.410157-.011719-51.648438zm-127.953125 102.140625 38.734375 12.90625-4.929687 4.9375-38.734375-12.90625zm-39.316406 174.777344-82.277344 80.914062c-61.894531 61.894532-161.292969 63.984376-225.742187 6.28125l197.972656-197.246093 29.402344 29.40625-11.820313 11.820312c-3.761719 3.761719-5.84375 8.773438-5.84375 14.09375 0 5.324219 2.082031 10.332031 5.84375 14.097657l23.449219 23.449218c3.761719 3.761719 8.773438 5.84375 14.097656 5.84375 5.320313 0 10.332032-2.082031 14.09375-5.84375l11.820313-11.820312zm-67.734375-67.726562 25.824219 25.824218-11.820313 11.820313c-.660156.660156-1.71875.660156-2.375 0l-23.453125-23.449219c-.644531-.648438-.644531-1.71875 0-2.375zm12.90625-12.90625 74.78125-74.78125 38.734375 12.90625-87.691406 87.699218zm209.191406-157.542969-61.882812 61.882812-38.734375-12.90625 74.800781-74.800781c3.425781-3.425781 8.015625-5.304688 12.910156-5.304688 4.898438 0 9.484375 1.878907 12.90625 5.3125 3.429688 3.421876 5.3125 8.007813 5.3125 12.90625 0 4.894532-1.890625 9.476563-5.3125 12.910157zm0 0"/></svg>