<svg height="511pt" viewBox="0 0 511 511.99724" width="511pt" xmlns="http://www.w3.org/2000/svg"><path d="m503.570312 48.277344c9.945313-9.945313 11.605469-25.660156 3.847657-36.550782-4.792969-6.714843-12.226563-10.953124-20.40625-11.632812-8.265625-.667969-16.214844 2.246094-21.996094 8.035156l-205.96875 205.96875c-10.425781 10.4375-26.46875 13.339844-39.902344 7.226563-16.085937-7.308594-30.605469-17.367188-43.136719-29.898438l-46.050781-46.0625c-3.851562-3.832031-9.324219-5.511719-14.667969-4.519531-5.378906 1.011719-9.90625 4.609375-12.125 9.621094-2.328124 5.277344-3.230468 11.261718-2.820312 17.199218-10.039062-.84375-20.09375 2.179688-27.28125 9.378907-6.941406 6.941406-9.992188 16.867187-9.25 26.753906-.296875-.027344-.59375-.042969-.902344-.0625-10.148437-.585937-19.296875 2.753906-25.929687 9.386719-7.1875 7.191406-10.277344 17.285156-9.378907 27.285156-5.9375-.410156-11.910156.480469-17.199218 2.820312-5.019532 2.207032-8.617188 6.742188-9.621094 12.125-1 5.332032.6875 10.824219 4.527344 14.675782l100.175781 100.171875 5.664063-2.246094c10.023437-4 21.089843-2.070313 28.445312 5.25 6.984375 7.042969 8.933594 18.082031 4.933594 28.128906l-2.242188 5.667969 100.179688 100.183594c3.117187 3.105468 7.304687 4.8125 11.625 4.8125 1.011718 0 2.03125-.101563 3.042968-.285156 5.378907-1.003907 9.910157-4.601563 12.125-9.613282 2.328126-5.285156 3.230469-11.269531 2.820313-17.199218 10.066406.902343 20.09375-2.179688 27.285156-9.378907 6.957031-6.957031 10.007813-16.917969 9.238281-26.835937 9.898438.742187 19.878907-2.273438 26.835938-9.242188 7.191406-7.1875 10.28125-17.28125 9.382812-27.28125 5.925782.386719 11.890626-.484375 17.179688-2.820312 5.027344-2.207032 8.628906-6.746094 9.640625-12.125 1-5.335938-.679687-10.816406-4.53125-14.675782l-46.050781-46.042968c-12.523438-12.523438-22.578125-27.039063-29.898438-43.148438-6.105468-13.414062-3.199218-29.453125 7.226563-39.890625zm-25.4375-27.039063c1.929688-1.921875 4.636719-2.847656 7.339844-2.664062 1.613282.140625 4.628906.828125 6.835938 3.914062 2.511718 3.546875 1.707031 9.101563-1.855469 12.664063l-77.917969 77.917968-13.117187-13.113281zm-439.507812 242.722657 13.117188-13.117188c-6.855469-6.863281-7.644532-18.601562-1.644532-24.601562 6.019532-6.003907 17.746094-5.214844 24.59375 1.640624l13.117188-13.117187c-6.863282-6.863281-7.644532-18.589844-1.640625-24.59375 6-6 17.726562-5.222656 24.601562 1.644531l13.117188-13.117187c-4.15625-4.15625-6.019531-11.726563-4.695313-17.820313l16.886719 16.882813-98.390625 98.390625-16.882812-16.886719c6.074218-1.351563 13.652343.53125 17.820312 4.695313zm295.183594 124.628906-13.117188 13.117187c6.855469 6.863281 7.648438 18.597657 1.644532 24.601563-6.011719 6.003906-17.746094 5.222656-24.59375-1.640625l-13.117188 13.117187c3.285156 3.285156 5.335938 7.96875 5.613281 12.867188.167969 2.734375-.148437 7.902344-3.980469 11.734375-6 5.992187-17.726562 5.214843-24.601562-1.640625l-13.117188 13.117187c4.15625 4.15625 6.019532 11.722657 4.695313 17.820313l-16.886719-16.886719 98.402344-98.398437 16.882812 16.882812c-6.078124 1.347656-13.648437-.527344-17.824218-4.691406zm-59.53125-87.574219c8.238281 18.144531 19.558594 34.488281 33.667968 48.59375l13.683594 13.671875-98.402344 98.410156-59.5-59.503906c3.828126-15.25-.226562-31.269531-11.355468-42.460938-10.84375-10.777343-26.839844-14.804687-42.074219-10.964843l-59.503906-59.503907 98.414062-98.398437 13.671875 13.683594c14.121094 14.109375 30.464844 25.433593 48.585938 33.664062 20.398437 9.285157 44.804687 4.878907 60.6875-11.003906l114.144531-114.125 13.117187 13.117187-114.136718 114.136719c-15.871094 15.882813-20.292969 40.261719-11 60.683594zm0 0"/></svg>