<svg height="512pt" viewBox="0 -24 512 511" width="512pt" xmlns="http://www.w3.org/2000/svg"><path d="m450.53125 30.042969-29.863281-8.097657c-40.890625-11.078124-80.625-17.820312-118.125-20.023437-33.320313-1.9609375-67.0625-1.8945312-100.3125.210937-39.367188 2.492188-81.175781 10.230469-124.273438 22.992188l-16.597656 4.914062c-37.332031.523438-61.359375 21.257813-61.359375 53.125 0 31.871094 24.027344 52.601563 61.363281 53.125l16.605469 4.925782c5.234375 1.554687 10.382812 2.792968 15.582031 4.191406.085938.03125.144531.097656.242188.125.179687.058594.355469.039062.539062.078125 37.296875 10.007813 73.5625 16.414063 107.914063 18.585937 13.054687.820313 26.160156 1.238282 39.273437 1.429688v38.285156c0 .105469.054688.203125.054688.308594.019531.722656.242187 1.390625.425781 2.085938.136719.539062.195312 1.089843.425781 1.582031.253907.550781.660157 1.003906 1.015625 1.5.367188.519531.667969 1.0625 1.128906 1.496093.386719.367188.890626.601563 1.34375.910157.597657.40625 1.160157.820312 1.84375 1.082031.109376.039062.175782.125.28125.164062 18.414063 6.375 22.453126 13.011719 22.453126 15.03125 0 2.019532-4.039063 8.65625-22.472657 15.023438-29.328125 10.125-35.492187 23.6875-35.492187 33.277344 0 9.59375 6.164062 23.148437 35.492187 33.28125 18.433594 6.367187 22.472657 13 22.472657 15.023437 0 2.019531-4.039063 8.652344-22.472657 15.019531-29.328125 10.125-35.492187 23.6875-35.492187 33.28125 0 9.589844 6.164062 23.144532 35.492187 33.277344.070313.019532.136719.011719.207031.03125.046876.019532.074219.058594.125.066406 7.714844 2.355469 12.488282 6.164063 14.605469 11.652344 3.03125 7.890625.625 19.667969-6.453125 31.492188-2.742187 4.578125-1.265625 10.511718 3.324219 13.246094 1.542969.9375 3.261719 1.378906 4.953125 1.378906 3.285156 0 6.484375-1.667969 8.289062-4.691406 10.269532-17.121094 13.160157-34.761719 7.914063-48.359376-2.949219-7.664062-9.972656-17.835937-26.585937-23.03125-.03125-.011718-.050782-.039062-.078126-.046874-18.433593-6.367188-22.46875-12.996094-22.46875-15.011719 0-2.019531 4.035157-8.65625 22.46875-15.023438 29.328126-10.132812 35.492188-23.6875 35.492188-33.28125 0-9.589843-6.164062-23.144531-35.492188-33.277343-18.433593-6.375-22.46875-13.003907-22.46875-15.023438s4.035157-8.652344 22.46875-15.019531c29.328126-10.136719 35.492188-23.6875 35.492188-33.28125 0-8.808594-5.429688-20.933594-28.980469-30.699219v-31.6875c23.085938-.191406 46.195313-1.207031 69.109375-3.320312 24.683594-2.292969 50.765625-7.132813 77.554688-14.394532l43.027344-11.671875c37.402343-.480469 61.476562-21.222656 61.476562-53.132812 0-31.90625-24.074219-52.652344-61.46875-53.125zm-149.117188-8.839844c23.242188 1.371094 47.492188 4.742187 72.308594 9.699219-9.921875 15.332031-25.746094 52.695312 8.945313 103.335937-11.980469 2.722657-23.746094 4.910157-35.242188 6.558594-3.871093-69.300781-64.992187-72.0625-66.007812-72.0625-.011719 0-.019531 0-.011719 0-47.789062-5.382813-57.363281-40.730469-58.871094-48.226563 26.25-1.035156 52.699219-.847656 78.878906.695313zm-282.09375 61.960937c0-27.433593 25.4375-32.738281 38.640626-33.644531v67.28125c-13.203126-.898437-38.640626-6.199219-38.640626-33.636719zm57.964844 37.6875v-75.5l6.171875-1.699218c27.273438-8.085938 53.894531-13.859375 79.71875-17.707032-.476562 11.929688-3.5 27.351563-9.828125 31.148438-3.753906 2.21875-9.777344-.320312-14.160156-2.84375-9.0625-5.195312-16.363281-3.765625-20.914062-1.679688-15.59375 7.21875-21.28125 31.675782-27.097657 62.929688-.582031 3.089844-1.140625 6.066406-1.683593 8.816406-2.027344-.578125-4.007813-1.023437-6.035157-1.621094zm98.300782 21.417969c4.570312-6.511719 12.171874-10.019531 19.640624-8.242187 4.808594 1.148437 14.257813 4.308594 17.089844 11.273437-2.949218-.152343-5.914062-.203125-8.859375-.386719-9.148437-.570312-18.453125-1.476562-27.871093-2.644531zm79.785156 4.113281c-1.285156-.628906-2.675782-1.054687-4.203125-1.054687-1.496094 0-2.867188.40625-4.132813 1.015625-4.957031-.046875-9.914062-.03125-14.859375-.164062-1.574219-14.53125-13.398437-26.375-32.449219-30.941407-18.277343-4.386719-36.832031 6.152344-44.28125 23.945313-15.484374-2.550782-31.230468-5.785156-47.257812-9.84375.644531-3.15625 1.292969-6.605469 1.980469-10.316406 2.53125-13.554688 8.433593-45.316407 16.210937-48.910157.773438-.347656 2.328125.398438 3.199219.890625 16.109375 9.253906 27.21875 6.539063 33.710937 2.636719 17.351563-10.40625 19.226563-39.117187 19.292969-50.246094 6.898438-.753906 13.816407-1.527343 20.566407-1.949219.011718.058594-.019532.105469-.011719.164063 2.628906 20.265625 21.941406 60.203125 77.042969 66.375 1.90625.027344 45.722656 1.546875 48.089843 55.101563-.027343 0-.058593.011718-.085937.011718-24.144532 2.242188-48.488282 3.246094-72.8125 3.285156zm147.503906-17.1875c-42.785156-56.578124-11.101562-90.816406-9.582031-92.378906.433593-.445312.636719-.996094.976562-1.488281 7.089844 1.667969 14.171875 3.3125 21.347657 5.253906l19.097656 5.1875v75.03125zm51.164062-12.394531v-67.28125c13.203126.894531 38.640626 6.210938 38.640626 33.644531 0 27.4375-25.4375 32.738282-38.640626 33.636719zm0 0"/></svg>