<svg height="511pt" viewBox="-37 0 511 511.99794" width="511pt" xmlns="http://www.w3.org/2000/svg"><path d="m219.429688 125.867188c1.816406 1.816406 4.199218 2.730468 6.582031 2.730468 2.382812 0 4.765625-.914062 6.582031-2.730468 3.636719-3.640626 3.636719-9.523438 0-13.160157-11.535156-11.535156-11.535156-30.292969 0-41.824219 18.785156-18.796874 18.785156-49.367187 0-68.152343-3.640625-3.640625-9.523438-3.640625-13.164062 0-3.640626 3.640625-3.640626 9.523437 0 13.160156 11.523437 11.527344 11.523437 30.304687 0 41.828125-18.796876 18.792969-18.796876 49.363281 0 68.148438zm0 0"/><path d="m140.132812 103.023438c0 8.628906 3.359376 16.746093 9.476563 22.84375 1.816406 1.816406 4.199219 2.730468 6.582031 2.730468 2.382813 0 4.765625-.914062 6.589844-2.730468 3.632812-3.640626 3.632812-9.523438 0-13.160157-2.605469-2.585937-4.027344-6.023437-4.027344-9.683593 0-3.667969 1.421875-7.101563 4.019532-9.6875 12.605468-12.605469 12.605468-33.105469 0-45.699219-3.640626-3.640625-9.523438-3.640625-13.164063 0s-3.640625 9.523437 0 13.164062c5.34375 5.339844 5.34375 14.027344 0 19.371094-6.117187 6.105469-9.476563 14.222656-9.476563 22.851563zm0 0"/><path d="m279.769531 103.023438c0 8.628906 3.359375 16.746093 9.476563 22.84375 1.816406 1.816406 4.199218 2.730468 6.582031 2.730468s4.765625-.914062 6.589844-2.730468c3.628906-3.640626 3.628906-9.523438 0-13.160157-2.609375-2.585937-4.03125-6.023437-4.03125-9.683593 0-3.667969 1.421875-7.101563 4.019531-9.6875 12.605469-12.605469 12.605469-33.105469 0-45.699219-3.640625-3.640625-9.523438-3.640625-13.160156 0-3.640625 3.640625-3.640625 9.523437 0 13.164062 5.34375 5.339844 5.34375 14.027344 0 19.371094-6.117188 6.105469-9.476563 14.222656-9.476563 22.851563zm0 0"/><path d="m130.835938 279.273438c1.898437 0 3.824218-.585938 5.472656-1.789063 4.152344-3.023437 5.0625-8.851563 2.027344-13.003906-9.726563-13.328125-13.738282-30.96875-10.730469-47.203125.941406-5.054688-2.402344-9.90625-7.457031-10.847656-5.082032-.964844-9.914063 2.410156-10.855469 7.464843-3.976563 21.488281 1.132812 43.921875 14.011719 61.570313 1.824218 2.476562 4.652343 3.808594 7.53125 3.808594zm0 0"/><path d="m338.714844 373.472656c-.671875-.113281-1.359375-.160156-2.03125-.261718.09375-.148438.179687-.289063.273437-.4375 1.265625.074218 2.425781.304687 3.75.304687 31.921875 0 75.625-21.523437 86.601563-68.078125 5.121094-21.6875 3.863281-37.839844-3.835938-49.394531-9.523437-14.277344-26.082031-17.898438-41.433594-20.488281.707032-30.367188-5.390624-52.792969-10.890624-63.664063-1.667969-3.265625-6.695313-13.199219-15.734376-13.199219h-270.828124c-9.039063 0-14.066407 9.933594-15.722657 13.199219-12.121093 23.945313-27.203125 103.804687 34.3125 201.53125-.648437.09375-1.304687.140625-1.953125.253906-37.617187 6.710938-100.722656 22.871094-100.722656 55.585938 0 41.972656 108.355469 83.171875 218.761719 83.171875s218.761719-41.199219 218.761719-83.171875c0-32.453125-62.222657-48.601563-99.308594-55.351563zm42.066406-119.6875c11.691406 2.027344 22.175781 4.625 27.191406 12.15625 4.617188 6.90625 5.019532 18.617188 1.210938 34.777344-8.0625 34.191406-38.328125 50.234375-61.171875 53.191406 20.257812-37.253906 29.605469-71.386718 32.769531-100.125zm-293.652344-76.914062h265.746094c9.875 12.820312 29.992188 96.40625-39.371094 197.753906l-.046875.007812-2.957031 4.226563c-1.304688 1.855469-2.578125 3.699219-3.949219 5.558594-20.085937 27.359375-52.417969 43.726562-86.488281 43.78125h-.066406c-34.089844-.039063-66.4375-16.410157-86.535156-43.78125-1.417969-1.925781-2.738282-3.835938-4.070313-5.742188l-2.96875-4.265625-.058594-.007812c-69.199219-101.246094-49.105469-184.71875-39.234375-197.53125zm132.132813 316.511718c-115.628907 0-200.144531-42.460937-200.144531-64.558593 0-8.855469 22.730468-26.085938 85.390624-37.265625 2.132813-.382813 4.273438-.578125 6.441407-.578125 1.5 0 3.007812.09375 4.515625.273437.96875 1.386719 1.953125 2.78125 2.980468 4.175782 2.773438 3.78125 5.769532 7.335937 8.925782 10.746093.988281 1.070313 2.066406 2.039063 3.101562 3.070313 2.242188 2.261718 4.515625 4.488281 6.914063 6.570312 1.285156 1.109375 2.617187 2.132813 3.9375 3.1875 2.308593 1.839844 4.644531 3.617188 7.066406 5.292969 1.433594.988281 2.894531 1.929687 4.375 2.859375 2.464844 1.554688 4.980469 3.027344 7.546875 4.402344 1.511719.808594 3.027344 1.621094 4.5625 2.367187 2.710938 1.320313 5.476562 2.503907 8.277344 3.621094 1.488281.59375 2.949218 1.226563 4.460937 1.765625 3.164063 1.136719 6.382813 2.078125 9.640625 2.960938 1.210938.324218 2.394532.734374 3.613282 1.023437 4.488281 1.070313 9.019531 1.945313 13.628906 2.523437v1.015626h15.398437.230469 15.398438v-.980469c4.589843-.574219 9.121093-1.441407 13.589843-2.511719 1.3125-.304688 2.570313-.746094 3.871094-1.097656 3.15625-.867188 6.292969-1.78125 9.367187-2.875 1.574219-.570313 3.097657-1.222656 4.652344-1.84375 2.726563-1.101563 5.425782-2.253906 8.074219-3.539063 1.601563-.773437 3.152344-1.609375 4.71875-2.449219 2.511719-1.347656 4.96875-2.78125 7.382813-4.308593 1.515624-.960938 3.023437-1.917969 4.503906-2.941407 2.375-1.636718 4.664062-3.386718 6.933594-5.195312 1.363281-1.078125 2.738281-2.132812 4.050781-3.277344 2.355469-2.035156 4.578125-4.226562 6.785156-6.441406 1.0625-1.070312 2.179687-2.074219 3.214844-3.191406 3.070312-3.332032 5.992187-6.816406 8.710937-10.492188.054688-.082031.128906-.148437.1875-.222656.976563-1.332031 1.917969-2.652344 2.839844-3.976562 3.683594-.457032 7.371094-.34375 10.992188.308593 61.625 11.199219 84.003906 28.277344 84.003906 37.019531.003906 22.101563-84.515625 64.5625-200.140625 64.5625zm0 0"/></svg>