<svg height="512pt" viewBox="-103 0 512 512" width="512pt" xmlns="http://www.w3.org/2000/svg"><path d="m274.734375 168.5c10.101563-6.074219 16.941406-17.035156 16.941406-29.652344 0-13.882812-8.242187-25.789062-20.039062-31.34375-11.507813-62.507812-60.832031-107.503906-118.808594-107.503906-57.980469 0-107.304687 44.996094-118.808594 107.503906-11.796875 5.550782-20.039062 17.457032-20.039062 31.34375 0 12.625 6.839843 23.578125 16.941406 29.652344l-30.714844 299.484375c-1.152343 11.222656 2.527344 22.460937 10.085938 30.832031 7.558593 8.375 18.351562 13.183594 29.640625 13.183594h225.792968c11.28125 0 22.085938-4.808594 29.652344-13.183594s11.230469-19.609375 10.085938-30.832031zm-121.90625-151.144531c47.546875 0 88.445313 35.925781 100.480469 86.78125h-200.964844c12.039062-50.855469 52.9375-86.78125 100.484375-86.78125zm-104.136719 104.136719h208.269532c9.574218 0 17.359374 7.785156 17.359374 17.355468 0 9.574219-7.785156 17.355469-17.359374 17.355469h-208.269532c-9.570312 0-17.355468-7.78125-17.355468-17.355469 0-9.570312 7.785156-17.355468 17.355468-17.355468zm208.269532 52.066406h.84375l8.609374 83.96875-9.460937-9.457032-23.488281 23.488282c-3.394532 3.394531-3.394532 8.878906 0 12.269531 3.394531 3.394531 8.878906 3.394531 12.269531 0l11.21875-11.21875 11.222656 11.21875c.292969.296875.675781.425781 1 .667969l9.136719 89.0625-21.347656-21.355469-23.492188 23.488281c-3.394531 3.394532-3.394531 8.878906 0 12.269532 3.394532 3.394531 8.878906 3.394531 12.269532 0l11.222656-11.21875 11.21875 11.21875c1.695312 1.695312 3.914062 2.542968 6.136718 2.542968 1.980469 0 3.914063-.777344 5.519532-2.132812l7.34375 71.554687h-268.707032l7.339844-71.554687c3.410156 2.863281 8.453125 2.800781 11.65625-.410156l11.21875-11.21875 11.222656 11.21875c1.691407 1.695312 3.914063 2.542968 6.132813 2.542968 2.222656 0 4.445313-.851562 6.136719-2.542968 3.394531-3.390626 3.394531-8.875 0-12.269532l-23.492188-23.488281-21.355468 21.355469 9.136718-89.058594c.320313-.242188.703125-.375 1-.667969l11.21875-11.222656 11.222656 11.222656c1.691407 1.691407 3.914063 2.539063 6.132813 2.539063 2.222656 0 4.445313-.847656 6.136719-2.539063 3.394531-3.394531 3.394531-8.878906 0-12.273437l-23.492188-23.488282-9.457031 9.457032 8.617187-83.96875zm-216.738282 321.085937c-6.507812 0-12.480468-2.675781-16.816406-7.515625-2.570312-2.875-4.324219-6.242187-5.171875-9.839844h269.1875c-.851563 3.597657-2.59375 6.964844-5.171875 9.839844-4.335938 4.839844-10.308594 7.515625-16.816406 7.515625zm0 0"/><path d="m72.183594 231.761719 11.21875-11.21875 11.222656 11.21875c1.691406 1.695312 3.914062 2.542969 6.132812 2.542969 2.222657 0 4.445313-.851563 6.136719-2.542969 3.394531-3.390625 3.394531-8.875 0-12.269531l-23.488281-23.488282-23.492188 23.488282c-3.394531 3.394531-3.394531 8.878906 0 12.269531 3.390626 3.394531 8.875 3.394531 12.269532 0zm0 0"/><path d="m141.605469 231.761719 11.222656-11.21875 11.21875 11.21875c1.695313 1.695312 3.914063 2.542969 6.136719 2.542969s4.441406-.851563 6.136718-2.542969c3.390626-3.390625 3.390626-8.875 0-12.269531l-23.492187-23.488282-23.488281 23.488282c-3.394532 3.394531-3.394532 8.878906 0 12.269531 3.390625 3.394531 8.875 3.394531 12.265625 0zm0 0"/><path d="m211.03125 231.761719 11.21875-11.21875 11.222656 11.21875c1.691406 1.695312 3.914063 2.542969 6.136719 2.542969 2.21875 0 4.441406-.851563 6.132813-2.542969 3.394531-3.390625 3.394531-8.875 0-12.269531l-23.488282-23.488282-23.492187 23.488282c-3.394531 3.394531-3.394531 8.878906 0 12.269531 3.390625 3.394531 8.875 3.394531 12.269531 0zm0 0"/><path d="m94.625 335.898438c1.691406 1.691406 3.914062 2.542968 6.132812 2.542968 2.222657 0 4.445313-.851562 6.136719-2.542968 3.394531-3.394532 3.394531-8.878907 0-12.269532l-23.488281-23.492187-23.492188 23.492187c-3.394531 3.394532-3.394531 8.878906 0 12.269532 3.394532 3.394531 8.878907 3.394531 12.269532 0l11.222656-11.222657zm0 0"/><path d="m141.605469 335.898438 11.222656-11.222657 11.21875 11.222657c1.695313 1.691406 3.914063 2.542968 6.136719 2.542968s4.441406-.851562 6.136718-2.542968c3.390626-3.394532 3.390626-8.878907 0-12.269532l-23.492187-23.492187-23.488281 23.492187c-3.394532 3.394532-3.394532 8.878906 0 12.269532 3.390625 3.390624 8.875 3.390624 12.265625 0zm0 0"/><path d="m198.757812 323.625c-3.390624 3.394531-3.390624 8.878906 0 12.273438 3.394532 3.390624 8.878907 3.390624 12.269532 0l11.222656-11.222657 11.21875 11.222657c1.695312 1.691406 3.914062 2.539062 6.136719 2.539062 2.222656 0 4.445312-.847656 6.136719-2.539062 3.394531-3.394532 3.394531-8.878907 0-12.273438l-23.492188-23.488281zm0 0"/><path d="m83.402344 404.269531-23.488282 23.492188c-3.394531 3.394531-3.394531 8.878906 0 12.269531 3.390626 3.394531 8.875 3.394531 12.269532 0l11.21875-11.21875 11.222656 11.21875c1.691406 1.695312 3.914062 2.542969 6.132812 2.542969 2.222657 0 4.445313-.851563 6.136719-2.542969 3.394531-3.394531 3.394531-8.878906 0-12.269531zm0 0"/><path d="m152.828125 404.269531-23.492187 23.492188c-3.394532 3.394531-3.394532 8.878906 0 12.269531 3.394531 3.394531 8.878906 3.394531 12.269531 0l11.222656-11.21875 11.21875 11.21875c1.695313 1.695312 3.914063 2.542969 6.136719 2.542969s4.441406-.851563 6.136718-2.542969c3.390626-3.394531 3.390626-8.878906 0-12.269531zm0 0"/><path d="m198.757812 427.761719c-3.390624 3.394531-3.390624 8.878906 0 12.269531 3.394532 3.394531 8.878907 3.394531 12.269532 0l11.222656-11.21875 11.21875 11.21875c1.695312 1.695312 3.914062 2.542969 6.136719 2.542969 2.222656 0 4.445312-.851563 6.136719-2.542969 3.394531-3.394531 3.394531-8.878906 0-12.269531l-23.492188-23.492188zm0 0"/><path d="m94.625 283.832031c3.390625 3.390625 8.875 3.390625 12.269531 0l11.21875-11.222656 11.222657 11.222656c1.691406 1.691407 3.914062 2.539063 6.136718 2.539063 2.21875 0 4.441406-.847656 6.132813-2.539063 3.394531-3.394531 3.394531-8.878906 0-12.273437l-23.488281-23.488282-23.492188 23.488282c-3.394531 3.394531-3.394531 8.878906 0 12.273437zm0 0"/><path d="m164.046875 283.832031c3.394531 3.390625 8.878906 3.390625 12.269531 0l11.222656-11.222656 11.21875 11.222656c1.695313 1.691407 3.914063 2.539063 6.136719 2.539063 2.222657 0 4.441407-.847656 6.136719-2.539063 3.394531-3.394531 3.394531-8.878906 0-12.273437l-23.492188-23.488282-23.488281 23.488282c-3.398437 3.394531-3.398437 8.878906-.003906 12.273437zm0 0"/><path d="m135.472656 390.507812c2.21875 0 4.441406-.851562 6.132813-2.542968 3.394531-3.394532 3.394531-8.878906 0-12.269532l-23.488281-23.488281-23.492188 23.488281c-3.394531 3.394532-3.394531 8.878907 0 12.269532 3.394531 3.394531 8.878906 3.394531 12.269531 0l11.222657-11.21875 11.21875 11.21875c1.691406 1.691406 3.914062 2.542968 6.136718 2.542968zm0 0"/><path d="m204.894531 390.507812c2.222657 0 4.441407-.851562 6.136719-2.542968 3.394531-3.394532 3.394531-8.878906 0-12.269532l-23.492188-23.488281-23.488281 23.488281c-3.394531 3.394532-3.394531 8.878907 0 12.269532 3.390625 3.394531 8.875 3.394531 12.269531 0l11.21875-11.21875 11.222657 11.21875c1.691406 1.691406 3.910156 2.542968 6.132812 2.542968zm0 0"/></svg>