<svg height="512pt" viewBox="-123 0 512 512.00168" width="512pt" xmlns="http://www.w3.org/2000/svg"><path d="m75.851562 260.738281c0 7.855469-6.367187 14.222657-14.222656 14.222657-7.855468 0-14.222656-6.367188-14.222656-14.222657 0-7.851562 6.367188-14.21875 14.222656-14.21875 7.855469 0 14.222656 6.367188 14.222656 14.21875zm0 0"/><path d="m94.816406 370.628906c0 5.238282-4.246094 9.484375-9.480468 9.484375-5.238282 0-9.484376-4.246093-9.484376-9.484375 0-5.234375 4.246094-9.480468 9.484376-9.480468 5.234374 0 9.480468 4.246093 9.480468 9.480468zm0 0"/><path d="m151.707031 303.40625c0 5.238281-4.246093 9.484375-9.484375 9.484375-5.234375 0-9.480468-4.246094-9.480468-9.484375 0-5.234375 4.246093-9.480469 9.480468-9.480469 5.238282 0 9.484375 4.246094 9.484375 9.480469zm0 0"/><path d="m180.148438 437c0 5.238281-4.246094 9.480469-9.480469 9.480469-5.238281 0-9.484375-4.242188-9.484375-9.480469 0-5.234375 4.246094-9.480469 9.484375-9.480469 5.234375 0 9.480469 4.246094 9.480469 9.480469zm0 0"/><path d="m113.777344 451.222656c0 7.855469-6.367188 14.222656-14.222656 14.222656-7.851563 0-14.21875-6.367187-14.21875-14.222656 0-7.855468 6.367187-14.222656 14.21875-14.222656 7.855468 0 14.222656 6.367188 14.222656 14.222656zm0 0"/><path d="m227.554688 365.890625c0 7.855469-6.367188 14.222656-14.222657 14.222656-7.851562 0-14.21875-6.367187-14.21875-14.222656s6.367188-14.222656 14.21875-14.222656c7.855469 0 14.222657 6.367187 14.222657 14.222656zm0 0"/><path d="m216.480469 109.386719-3.136719-2.730469c-6.136719-7.347656-2.019531-49.984375 5.015625-65.65625 3.722656-2.882812 5.992187-6.355469 6.652344-10.375.125-.492188.21875-.964844.257812-1.476562.019531-.238282.121094-.457032.121094-.703126 0-.445312-.179687-.835937-.214844-1.261718-.070312-.492188-.117187-.964844-.257812-1.449219-4.917969-23.761719-72.902344-25.734375-94.339844-25.734375-21.492187 0-89.777344 1.992188-94.367187 25.933594-.058594.199218-.066407.398437-.105469.605468-.09375.644532-.332031 1.234376-.332031 1.90625 0 .339844.144531.632813.171874.964844.027344.265625.085938.503906.132813.769532.570313 4.390624 3.117187 8.089843 7.253906 11.160156 8.078125 15.902344 15.082031 58.019531 9.726563 65.261718l-3.097656 2.65625c-19.902344 16.980469-49.960938 42.667969-49.960938 89.855469v225.574219c0 48.148438 39.167969 87.3125 87.316406 87.3125h90.851563c48.144531 0 87.3125-39.164062 87.3125-87.3125v-225.578125c.003906-47.101563-29.484375-72.75-49-89.722656zm-85.902344-90.421875c37.445313 0 62.3125 5.308594 72.214844 9.480468-9.898438 4.171876-34.769531 9.480469-72.214844 9.480469-37.441406 0-62.308594-5.308593-72.210937-9.480469 9.902343-4.171874 34.769531-9.480468 72.210937-9.480468zm-68.3125 104.703125 3.148437-2.703125c5.980469-5.148438 8.644532-14.914063 8.164063-29.855469-.371094-11.445313-2.824219-26.671875-6.820313-40.230469 22.558594 5.347656 51.238282 6.011719 63.820313 6.011719 12.855469 0 42.496094-.722656 65.25-6.402344-2.671875 11.558594-3.933594 23.695313-4.246094 31.792969-.75 19.578125 2.3125 32.539062 9.121094 38.515625l3.335937 2.910156c17.285157 15.035157 38.382813 33.476563 41.90625 65.867188-22.0625 50.8125-55.4375 60.035156-68.957031 61.582031-21.808593 2.339844-42.15625-20.488281-55.410156-40.191406-29.269531-43.519532-70.960937-44.621094-98.929687-36.277344 7.445312-23.476562 24.890624-38.4375 39.617187-51.019531zm115.902344 369.367187h-90.851563c-37.691406 0-68.355468-30.660156-68.355468-68.351562v-225.574219c0-.984375.085937-1.902344.117187-2.863281 14.34375-6.152344 56.839844-19.226563 86.765625 25.289062 21.777344 32.398438 44.511719 48.78125 67.667969 48.78125 1.867187 0 3.753906-.105468 5.632812-.324218 13.511719-1.542969 42.875-9.035157 67.375-42.902344v197.605468c0 37.675782-30.664062 68.339844-68.351562 68.339844zm0 0"/></svg>