<svg height="512pt" viewBox="0 -67 512.00154 512" width="512pt" xmlns="http://www.w3.org/2000/svg"><path d="m121.492188 145.53125c0 4.792969-3.886719 8.675781-8.679688 8.675781s-8.675781-3.882812-8.675781-8.675781 3.882812-8.679688 8.675781-8.679688 8.679688 3.886719 8.679688 8.679688zm0 0"/><path d="m156.203125 162.886719c0 4.792969-3.886719 8.679687-8.679687 8.679687-4.792969 0-8.675782-3.886718-8.675782-8.679687s3.882813-8.679688 8.675782-8.679688c4.792968 0 8.679687 3.886719 8.679687 8.679688zm0 0"/><path d="m199.59375 180.242188c0 4.792968-3.886719 8.679687-8.679688 8.679687-4.792968 0-8.675781-3.886719-8.675781-8.679687 0-4.792969 3.882813-8.675782 8.675781-8.675782 4.792969 0 8.679688 3.882813 8.679688 8.675782zm0 0"/><path d="m95.457031 171.566406c0 4.792969-3.886719 8.675782-8.679687 8.675782-4.792969 0-8.675782-3.882813-8.675782-8.675782 0-4.792968 3.882813-8.679687 8.675782-8.679687 4.792968 0 8.679687 3.886719 8.679687 8.679687zm0 0"/><path d="m130.171875 188.917969c0 4.792969-3.886719 8.679687-8.679687 8.679687-4.792969 0-8.679688-3.886718-8.679688-8.679687s3.886719-8.675781 8.679688-8.675781c4.792968 0 8.679687 3.882812 8.679687 8.675781zm0 0"/><path d="m164.882812 214.953125c0 4.792969-3.886718 8.679687-8.679687 8.679687s-8.679687-3.886718-8.679687-8.679687 3.886718-8.675781 8.679687-8.675781 8.679687 3.882812 8.679687 8.675781zm0 0"/><path d="m208.269531 223.632812c0 4.792969-3.882812 8.675782-8.675781 8.675782s-8.679688-3.882813-8.679688-8.675782c0-4.792968 3.886719-8.679687 8.679688-8.679687s8.675781 3.886719 8.675781 8.679687zm0 0"/><path d="m242.984375 188.917969c0 4.792969-3.886719 8.679687-8.679687 8.679687-4.792969 0-8.675782-3.886718-8.675782-8.679687s3.882813-8.675781 8.675782-8.675781c4.792968 0 8.679687 3.882812 8.679687 8.675781zm0 0"/><path d="m251.660156 232.308594c0 4.792968-3.882812 8.679687-8.675781 8.679687s-8.679687-3.886719-8.679687-8.679687c0-4.789063 3.886718-8.675782 8.679687-8.675782s8.675781 3.886719 8.675781 8.675782zm0 0"/><path d="m442.574219 128.175781c0 4.792969-3.882813 8.675781-8.675781 8.675781-4.792969 0-8.679688-3.882812-8.679688-8.675781s3.886719-8.679687 8.679688-8.679687c4.792968 0 8.675781 3.886718 8.675781 8.679687zm0 0"/><path d="m407.863281 145.53125c0 4.792969-3.882812 8.675781-8.675781 8.675781s-8.679688-3.882812-8.679688-8.675781 3.886719-8.679688 8.679688-8.679688 8.675781 3.886719 8.675781 8.679688zm0 0"/><path d="m373.152344 162.886719c0 4.792969-3.886719 8.679687-8.679688 8.679687-4.792968 0-8.675781-3.886718-8.675781-8.679687s3.882813-8.679688 8.675781-8.679688c4.792969 0 8.679688 3.886719 8.679688 8.679688zm0 0"/><path d="m329.761719 180.242188c0 4.792968-3.882813 8.679687-8.675781 8.679687-4.792969 0-8.679688-3.886719-8.679688-8.679687 0-4.792969 3.886719-8.675782 8.679688-8.675782 4.792968 0 8.675781 3.882813 8.675781 8.675782zm0 0"/><path d="m433.898438 171.566406c0 4.792969-3.886719 8.675782-8.679688 8.675782s-8.675781-3.882813-8.675781-8.675782c0-4.792968 3.882812-8.679687 8.675781-8.679687s8.679688 3.886719 8.679688 8.679687zm0 0"/><path d="m399.1875 188.917969c0 4.792969-3.886719 8.679687-8.679688 8.679687-4.792968 0-8.679687-3.886718-8.679687-8.679687s3.886719-8.675781 8.679687-8.675781c4.792969 0 8.679688 3.882812 8.679688 8.675781zm0 0"/><path d="m364.476562 214.953125c0 4.792969-3.886718 8.679687-8.679687 8.679687s-8.679687-3.886718-8.679687-8.679687 3.886718-8.675781 8.679687-8.675781 8.679687 3.882812 8.679687 8.675781zm0 0"/><path d="m329.761719 223.632812c0 4.792969-3.882813 8.675782-8.675781 8.675782-4.792969 0-8.679688-3.882813-8.679688-8.675782 0-4.792968 3.886719-8.679687 8.679688-8.679687 4.792968 0 8.675781 3.886719 8.675781 8.679687zm0 0"/><path d="m286.371094 188.917969c0 4.792969-3.882813 8.679687-8.675782 8.679687-4.792968 0-8.679687-3.886718-8.679687-8.679687s3.886719-8.675781 8.679687-8.675781c4.792969 0 8.675782 3.882812 8.675782 8.675781zm0 0"/><path d="m156.203125 128.175781c0 4.792969-3.886719 8.675781-8.679687 8.675781-4.792969 0-8.675782-3.882812-8.675782-8.675781s3.882813-8.679687 8.675782-8.679687c4.792968 0 8.679687 3.886718 8.679687 8.679687zm0 0"/><path d="m199.59375 145.53125c0 4.792969-3.886719 8.675781-8.679688 8.675781-4.792968 0-8.675781-3.882812-8.675781-8.675781s3.882813-8.679688 8.675781-8.679688c4.792969 0 8.679688 3.886719 8.679688 8.679688zm0 0"/><path d="m86.78125 128.175781c0 4.792969-3.886719 8.675781-8.679688 8.675781-4.792968 0-8.675781-3.882812-8.675781-8.675781s3.882813-8.679687 8.675781-8.679687c4.792969 0 8.679688 3.886718 8.679688 8.679687zm0 0"/><path d="m242.984375 145.53125c0 4.792969-3.886719 8.675781-8.679687 8.675781-4.792969 0-8.675782-3.882812-8.675782-8.675781s3.882813-8.679688 8.675782-8.679688c4.792968 0 8.679687 3.886719 8.679687 8.679688zm0 0"/><path d="m373.152344 128.175781c0 4.792969-3.886719 8.675781-8.679688 8.675781-4.792968 0-8.675781-3.882812-8.675781-8.675781s3.882813-8.679687 8.675781-8.679687c4.792969 0 8.679688 3.886718 8.679688 8.679687zm0 0"/><path d="m329.761719 145.53125c0 4.792969-3.882813 8.675781-8.675781 8.675781-4.792969 0-8.679688-3.882812-8.679688-8.675781s3.886719-8.679688 8.679688-8.679688c4.792968 0 8.675781 3.886719 8.675781 8.679688zm0 0"/><path d="m286.371094 145.53125c0 4.792969-3.882813 8.675781-8.675782 8.675781-4.792968 0-8.679687-3.882812-8.679687-8.675781s3.886719-8.679688 8.679687-8.679688c4.792969 0 8.675782 3.886719 8.675782 8.679688zm0 0"/><path d="m295.050781 232.308594c0 4.792968-3.886719 8.679687-8.679687 8.679687-4.789063 0-8.675782-3.886719-8.675782-8.679687 0-4.789063 3.886719-8.675782 8.675782-8.675782 4.792968 0 8.679687 3.886719 8.679687 8.675782zm0 0"/><path d="m490.390625 72.765625c-1.519531-.667969-3.234375-1.449219-5.066406-2.316406.066406-2.367188.183593-4.738281.183593-7.125v-1.285157c0-35.640624-88.492187-56.40625-187.089843-61.039062-14.082031-.660156-28.375-1-42.652344-1-14.273437 0-28.558594.332031-42.652344 1-98.597656 4.625-187.078125 25.390625-187.078125 61.03125v1.292969c0 2.464843.113282 4.902343.183594 7.359375-1.660156.78125-3.210938 1.472656-4.609375 2.082031-21.609375 9.511719-21.609375 15.109375-21.609375 83.714844 0 24.621093 10.996094 36.371093 20.21875 41.90625 6.753906 4.054687 14.796875 6.058593 23.328125 6.058593 8.597656 0 17.675781-2.167968 26.425781-6.242187 34.121094 46.871094 85.511719 80.367187 144.746094 91.101563-19.941406 13.773437-33.050781 36.683593-33.050781 62.59375v.390624c0 23.179688 58.679687 24.984376 76.660156 24.984376s76.652344-1.804688 76.652344-25.375c0-26.363282-13.558594-49.636719-34.078125-63.320313 57.585937-11.527344 107.433594-44.648437 140.773437-90.53125 8.859375 4.183594 18.066407 6.40625 26.78125 6.40625 8.519531 0 16.566407-2.003906 23.324219-6.058594 9.226562-5.535156 20.21875-17.285156 20.21875-41.90625 0-68.613281 0-74.210937-21.609375-83.722656zm-22.25-10.734375c-.007813 18.222656-82.746094 44.683594-212.386719 44.683594-129.636718 0-212.347656-26.460938-212.363281-44.683594.007813-18.226562 82.734375-44.683594 212.375-44.683594s212.367187 26.46875 212.375 44.683594zm-439 121.472656c-7.820313-4.683594-11.785156-13.777344-11.785156-27.019531 0-60.757813.035156-62.820313 10.171875-67.351563 3.859375 34.355469 15.308594 66.429688 32.65625 94.519532-11.351563 4.566406-23.101563 4.617187-31.042969-.148438zm288.464844 167.070313c-4.832031 3.496093-25.667969 9.34375-59.273438 9.34375-33.625 0-54.46875-5.855469-59.285156-9.34375.710937-31.839844 27.03125-57.519531 59.285156-57.519531 32.128907 0 58.363281 25.480468 59.273438 57.519531zm71.765625-122.324219c-1.464844-2.71875-4.234375-4.617188-7.542969-4.617188-4.789063 0-8.675781 3.886719-8.675781 8.675782 0 2.40625.980468 4.585937 2.558594 6.15625-6.464844 4.441406-13.183594 8.527344-20.132813 12.242187.054687-.355469.21875-.675781.21875-1.039062 0-4.792969-3.890625-8.679688-8.679687-8.679688-4.789063 0-8.679688 3.886719-8.679688 8.679688 0 3.167969 1.78125 5.8125 4.3125 7.324219-9.8125 4.425781-20.007812 8.121093-30.546875 11.03125.035156-.339844.203125-.644532.203125-1 0-4.789063-3.890625-8.679688-8.679688-8.679688-4.789062 0-8.679687 3.890625-8.679687 8.679688 0 1.769531.660156 3.324218 1.570313 4.695312-11.566407 2.261719-23.472657 3.546875-35.621094 3.851562 4.46875-.355468 8.019531-3.992187 8.019531-8.546874 0-4.789063-3.890625-8.679688-8.679687-8.679688-4.789063 0-8.675782 3.890625-8.675782 8.679688 0 4.609374 3.625 8.296874 8.164063 8.574218-1.351563.027344-2.699219.105469-4.070313.105469-11.113281 0-22.039062-.871094-32.703125-2.527344 1.585938-1.570312 2.578125-3.75 2.578125-6.152343 0-4.789063-3.890625-8.679688-8.679687-8.679688-4.789063 0-8.679688 3.890625-8.679688 8.679688 0 1.214843.261719 2.367187.710938 3.417968-9.492188-2.140625-18.761719-4.894531-27.734375-8.269531.589844-1.171875.988281-2.4375.988281-3.824219 0-4.792968-3.886719-8.679687-8.675781-8.679687-3.785156 0-6.90625 2.449219-8.105469 5.824219-10.285156-4.851563-20.117187-10.492188-29.417969-16.863282 1.707032-1.589844 2.808594-3.808594 2.808594-6.316406 0-4.789062-3.886719-8.679688-8.675781-8.679688-3.402344 0-6.285157 2.003907-7.699219 4.859376-42.089844-34.035157-70.925781-83.765626-77.5625-140.226563 37.304688 23.59375 124.46875 35.804687 210.855469 35.804687 86.390625 0 173.5625-12.21875 210.867187-35.804687-6.617187 56.316406-35.335937 105.957031-77.257812 139.984375zm93.488281-44.746094c-8.035156 4.816406-19.953125 4.730469-31.40625.011719 17.332031-28.109375 28.757813-60.207031 32.585937-94.582031 10.578126 4.683594 10.605469 5.917968 10.605469 67.550781 0 13.238281-3.964843 22.335937-11.785156 27.019531zm0 0"/></svg>