<svg height="512pt" viewBox="-65 0 512 512.00197" width="512pt" xmlns="http://www.w3.org/2000/svg"><path d="m248.175781 247.890625c0 6.148437-4.984375 11.132813-11.128906 11.132813-6.148437 0-11.132813-4.984376-11.132813-11.132813s4.984376-11.132813 11.132813-11.132813c6.144531 0 11.128906 4.984376 11.128906 11.132813zm0 0"/><path d="m150.058594 243.015625c0 6.148437-4.980469 11.132813-11.128906 11.132813-6.148438 0-11.132813-4.984376-11.132813-11.132813s4.984375-11.128906 11.132813-11.128906c6.148437 0 11.128906 4.980469 11.128906 11.128906zm0 0"/><path d="m373.742188 170.800781c10.785156-33.695312 10.160156-71.273437-2.492188-106.085937-3.953125-10.863282-11.988281-19.714844-22.175781-25.234375-16.527344-30.785157-104.269531-39.480469-158.410157-39.480469-54.152343 0-141.902343 8.695312-158.421874 39.492188-10.171876 5.519531-18.210938 14.359374-22.160157 25.222656-12.667969 34.816406-13.28125 72.402344-2.496093 106.097656.433593 3.960938 1.714843 7.746094 4.121093 11.25 1.199219 2.953125 2.3125 5.933594 3.707031 8.796875 30.453126 62.585937 90.234376 103.167969 158.554688 108.890625v134.472656c-35.617188.789063-122.4375 6.066406-122.4375 38.820313 0 37.078125 111.265625 38.960937 133.570312 38.960937 22.304688 0 133.566407-1.882812 133.566407-38.960937 0-32.757813-86.820313-38.03125-122.4375-38.820313v-133.882812c72.917969-2.023438 137.585937-43.507813 169.6875-109.46875 1.394531-2.859375 2.507812-5.84375 3.707031-8.792969 2.402344-3.519531 3.679688-7.304687 4.117188-11.277344zm-44.167969-121.046875.109375.476563c-.109375.3125-.363282.648437-.566406.96875-.1875.289062-.300782.566406-.566407.878906-.300781.34375-.757812.714844-1.15625 1.070313-.367187.320312-.667969.644531-1.113281.976562-.480469.359375-1.101562.734375-1.683594 1.101562-.542968.359376-1.03125.714844-1.667968 1.070313-.632813.355469-1.410157.734375-2.136719 1.101563-.757813.386718-1.445313.765624-2.28125 1.15625-.769531.355468-1.683594.710937-2.515625 1.066406-.96875.414062-1.871094.8125-2.929688 1.222656-.925781.359375-1.980468.714844-2.972656 1.070312-1.144531.410157-2.246094.824219-3.496094 1.234376-1.054687.34375-2.246094.691406-3.382812 1.035156-1.347656.410156-2.636719.824218-4.082032 1.234375-1.191406.332031-2.527343.65625-3.785156.992187-1.539062.398438-3.019531.8125-4.652344 1.203125-1.371093.332031-2.863281.632813-4.296874.957031-1.679688.378907-3.316407.765626-5.085938 1.125-1.515625.308594-3.152344.589844-4.734375.890626-1.855469.34375-3.648437.710937-5.597656 1.046874-1.734375.300782-3.617188.566407-5.429688.84375-1.925781.300782-3.785156.613282-5.777343.890626-1.992188.277343-4.132813.523437-6.199219.777343-1.980469.246094-3.886719.511719-5.933594.734375-2.261719.246094-4.675781.457032-7.023437.679688-1.980469.191406-3.90625.402344-5.941407.570312-2.628906.210938-5.398437.378906-8.128906.554688-1.914063.121094-3.761719.277344-5.730469.390625-3.328125.175781-6.8125.289062-10.273437.410156-1.480469.054687-2.882813.136719-4.386719.179687-5.03125.175782-10.195312.242188-15.492188.242188-5.34375 0-10.539062-.066406-15.617187-.210938-11.351563-.308593-21.9375-.964843-31.878906-1.855468-7.8125-.703125-15.246094-1.527344-22.136719-2.496094-.347656-.042969-.65625-.109375-1.003906-.152344-7.433594-1.070312-14.34375-2.269531-20.636719-3.5625-29.652344-6.101562-46.433594-14.203125-47.703125-19.367187l.175781-.648438c4.328125-9.652343 55.152344-27.359375 138.800781-27.359375 84.027344.007813 134.980469 17.882813 138.910157 27.5zm-298.566407 22.574219c.933594-2.574219 2.300782-4.964844 3.996094-7.082031.820313 1 1.890625 1.9375 2.871094 2.882812.53125.511719.976562 1.058594 1.558594 1.558594 3.9375 3.429688 8.902344 6.5 14.667968 9.25.878907.421875 1.835938.800781 2.738282 1.203125 2.105468.933594 4.253906 1.835937 6.523437 2.691406 1.15625.433594 2.359375.847657 3.5625 1.257813 2.203125.757812 4.441407 1.492187 6.765625 2.195312 1.304688.386719 2.605469.765625 3.941406 1.132813 2.402344.667969 4.875 1.304687 7.378907 1.902343 1.324219.324219 2.628906.648438 3.984375.949219 2.792968.621094 5.65625 1.210938 8.546875 1.765625 1.113281.210938 2.203125.460938 3.328125.65625 8.136718 1.492188 16.539062 2.71875 25 3.71875 1.28125.15625 2.558594.277344 3.839844.425782 2.949218.324218 5.886718.632812 8.839843.910156 1.542969.144531 3.082031.269531 4.628907.402344 2.671874.222656 5.332031.433593 7.980468.613281 1.601563.109375 3.195313.222656 4.785156.308593 2.59375.15625 5.152344.289063 7.703126.414063 1.503906.066406 3.003906.144531 4.496093.210937 2.726563.109376 5.375.1875 8.015625.253907 1.1875.035156 2.414063.078125 3.582032.101562 3.753906.078125 7.414062.121094 10.921874.121094 3.507813 0 7.167969-.042969 10.917969-.121094 1.167969-.023437 2.394531-.066406 3.585938-.101562 2.636719-.066407 5.285156-.144531 8.011719-.253907 1.480468-.054687 2.984374-.136718 4.496093-.210937 2.550781-.125 5.097657-.257813 7.703125-.414063 1.59375-.097656 3.183594-.199218 4.789063-.308593 2.648437-.179688 5.296875-.390625 7.980469-.613281 1.542968-.136719 3.070312-.257813 4.628906-.402344 2.929687-.265625 5.84375-.578125 8.769531-.902344 1.316406-.144531 2.617187-.277344 3.929687-.421875 8.445313-1 16.816407-2.226563 24.933594-3.707031 1.199219-.222656 2.359375-.46875 3.550782-.703125 2.804687-.542969 5.585937-1.113281 8.300781-1.722657 1.414062-.324218 2.78125-.65625 4.175781-.992187 2.4375-.589844 4.828125-1.203125 7.167969-1.847656 1.402343-.390625 2.757812-.78125 4.117187-1.191407 2.25-.679687 4.417969-1.390624 6.546875-2.113281 1.269531-.433593 2.546875-.871093 3.773438-1.335937 2.171875-.8125 4.207031-1.683594 6.222656-2.574219 1-.445313 2.058594-.855469 3.015625-1.3125 2.660156-1.269531 5.164062-2.613281 7.457031-4.03125.179688-.109375.402344-.210937.582031-.308594 2.425782-1.527343 4.582032-3.152343 6.542969-4.84375.625-.542969 1.113281-1.132812 1.695313-1.691406.945312-.925781 1.980468-1.816406 2.769531-2.78125 1.703125 2.113281 3.074219 4.507813 4.007813 7.089844 8.417968 23.152343 10.742187 47.671875 7.203124 70.945312-31.054687-20.925781-100.820312-30.699219-166.859374-30.699219-66.039063 0-135.808594 9.761719-166.863282 30.699219-3.554687-23.300781-1.238281-47.820312 7.191406-70.972656zm318.582032 100.03125c-11.152344 11.183594-64.847656 29.585937-158.925782 29.585937-94.085937 0-147.769531-18.402343-158.921874-29.585937-.65625-1.648437-1.371094-3.273437-1.960938-4.957031 3.21875-10.484375 57.746094-32.566406 160.882812-32.566406 103.128907 0 157.667969 22.070312 160.882813 32.554687-.589844 1.683594-1.300781 3.308594-1.957031 4.96875zm-54.929688 300.695313c-9.917968 6.601562-47.351562 16.695312-109.5625 16.695312-62.210937 0-99.640625-10.097656-109.558594-16.695312 9.316407-6.199219 42.886719-15.472657 98.429688-16.585938v11.019531c0 6.15625 4.984375 11.128907 11.128906 11.128907 6.144532 0 11.132813-4.972657 11.132813-11.128907v-11.019531c55.542969 1.113281 89.113281 10.382812 98.429687 16.585938zm-103.996094-194.789063c-56.84375 0-108.421874-27.179687-140.457031-72.371094 35.90625 12.386719 89.257813 18.308594 140.457031 18.308594 51.203126 0 104.550782-5.910156 140.46875-18.308594-32.042968 45.191407-83.632812 72.371094-140.46875 72.371094zm0 0"/></svg>