<svg height="511pt" viewBox="-146 1 511 511.99838" width="511pt" xmlns="http://www.w3.org/2000/svg"><path d="m91.925781 246.859375c0 5.046875-4.09375 9.140625-9.140625 9.140625-5.050781 0-9.144531-4.09375-9.144531-9.140625 0-5.050781 4.09375-9.144531 9.144531-9.144531 5.046875 0 9.140625 4.09375 9.140625 9.144531zm0 0"/><path d="m119.355469 310.859375c0 5.046875-4.09375 9.140625-9.140625 9.140625-5.050782 0-9.144532-4.09375-9.144532-9.140625 0-5.050781 4.09375-9.144531 9.144532-9.144531 5.046875 0 9.140625 4.09375 9.140625 9.144531zm0 0"/><path d="m146.785156 260.570312c0 7.574219-6.140625 13.714844-13.714844 13.714844-7.574218 0-13.714843-6.140625-13.714843-13.714844 0-7.574218 6.140625-13.710937 13.714843-13.710937 7.574219 0 13.714844 6.136719 13.714844 13.710937zm0 0"/><path d="m119.355469 448.109375v-65.664063c69.605469-21.625 80.703125-288.183593 82.265625-345.050781.019531-.273437.019531-.546875.019531-.820312 0-25.226563-53.464844-36.574219-91.425781-36.574219-37.960938 0-91.429688 11.347656-91.429688 36.570312 0 .273438 0 .550782.019532.824219 1.5625 56.859375 12.660156 323.425781 82.265624 345.050781v65.664063c-29.257812.648437-100.570312 4.980469-100.570312 31.890625 0 30.453125 91.390625 32 109.714844 32 18.320312 0 109.710937-1.546875 109.710937-32 0-26.90625-71.3125-31.242188-100.570312-31.890625zm-9.140625-316.289063c-20.65625 0-49.179688 3.921876-66.398438 13.449219-2.777344-29.027343-4.773437-58.292969-5.949218-85.960937.238281.121094.519531.210937.757812.328125 1.949219.945312 3.996094 1.832031 6.144531 2.671875.792969.308594 1.617188.59375 2.433594.886718 1.734375.628907 3.5 1.234376 5.328125 1.800782.914062.28125 1.820312.558594 2.753906.820312 1.925782.558594 3.902344 1.070313 5.90625 1.566406.8125.199219 1.617188.410157 2.4375.601563 2.84375.648437 5.722656 1.253906 8.660156 1.773437.0625.011719.125.019532.191407.027344 2.863281.511719 5.75.953125 8.648437 1.335938.914063.128906 1.828125.230468 2.746094.339844 2.082031.253906 4.148438.484374 6.214844.675781 1.015625.089843 2.011718.183593 3.015625.265625 2.070312.164062 4.117187.300781 6.144531.402344.871094.046874 1.746094.101562 2.605469.136718 2.84375.128906 5.652343.203125 8.359375.203125 2.703125 0 5.511718-.074219 8.355468-.195312.859376-.035157 1.734376-.089844 2.605469-.136719 2.03125-.109375 4.078125-.238281 6.144531-.402344 1.003907-.082031 2.011719-.171875 3.015626-.265625 2.066406-.191406 4.140624-.429687 6.21875-.675781.914062-.109375 1.828124-.210938 2.742187-.339844 2.898437-.390625 5.789063-.832031 8.648437-1.335937.066407-.007813.128907-.015625.195313-.027344 2.925781-.519531 5.8125-1.125 8.65625-1.773437.832031-.191407 1.628906-.402344 2.441406-.601563 2-.484375 3.976563-1.007813 5.90625-1.566406.929688-.265625 1.835938-.539063 2.75-.820313 1.828125-.566406 3.59375-1.171875 5.332031-1.800781.8125-.292969 1.644532-.578125 2.429688-.886719 2.140625-.84375 4.199219-1.730468 6.144531-2.671875.238281-.117187.523438-.207031.757813-.328125-1.179688 27.667969-3.171875 56.933594-5.941406 85.960938-17.214844-9.523438-45.75-13.457032-66.402344-13.457032zm62.847656 33.21875c-3.769531 5.429688-29.542969 14.917969-62.847656 14.917969-33.308594 0-59.082032-9.488281-62.847656-14.917969 3.757812-5.433593 29.53125-14.933593 62.847656-14.933593s59.089844 9.5 62.847656 14.933593zm-62.847656-146.753906c41.753906 0 70.863281 12.527344 73.085937 18.269532-.0625.179687-.210937.382812-.335937.574218-.113282.171875-.175782.339844-.328125.53125-.195313.226563-.476563.484375-.742188.742188-.183593.171875-.328125.347656-.550781.53125-.328125.273437-.757812.574218-1.167969.859375-.25.171875-.449219.335937-.722656.519531-.476563.3125-1.050781.640625-1.617187.960938-.285157.164062-.53125.328124-.84375.492187-.640626.347656-1.378907.703125-2.113282 1.0625-.300781.144531-.566406.292969-.894531.4375-.769531.355469-1.636719.714844-2.488281 1.078125-.363282.15625-.691406.300781-1.066406.457031-.898438.355469-1.886719.714844-2.863282 1.070313-.410156.144531-.777344.300781-1.199218.449218-1.03125.355469-2.144532.710938-3.253907 1.058594-.4375.136719-.839843.285156-1.296875.421875-1.160156.355469-2.40625.695313-3.648437 1.03125-.464844.128907-.898438.265625-1.371094.382813-1.242187.332031-2.578125.632812-3.894531.945312-.539063.125-1.042969.253906-1.589844.382813-1.34375.300781-2.773438.574219-4.179688.847656-.585937.109375-1.125.238281-1.71875.347656-1.398437.257813-2.863281.484375-4.324218.714844-.679688.109375-1.308594.230469-1.992188.328125-1.519531.222656-3.101562.410156-4.675781.605469-.675781.082031-1.324219.183593-2.011719.253906-1.589844.175781-3.242187.3125-4.878906.449219-.734375.066406-1.4375.144531-2.175781.199218-1.929688.148438-3.921875.238282-5.933594.332032-.496094.015625-.960937.0625-1.453125.082031-2.550781.109375-5.128906.152344-7.753906.152344-42.046875 0-71.277344-12.707031-73.105469-18.210938 1.925781-5.695312 31.117187-18.359375 73.105469-18.359375zm-61.808594 168.804688c17.390625 7.851562 42.898438 11.144531 61.804688 11.144531 18.910156 0 44.425781-3.292969 61.816406-11.144531-11.921875 95.671875-32.742188 178.625-61.816406 178.625-29.074219 0-49.882813-82.953125-61.804688-178.625zm61.808594 306.625c-51.101563 0-81.847656-8.292969-89.996094-13.714844 7.652344-5.089844 35.226562-12.707031 80.851562-13.621094v9.050782c0 5.054687 4.097657 9.144531 9.144532 9.144531s9.140625-4.089844 9.140625-9.144531v-9.050782c45.632812.914063 73.199219 8.527344 80.851562 13.621094-8.148437 5.421875-38.894531 13.714844-89.992187 13.714844zm0 0"/></svg>