<svg height="512pt" viewBox="-136 0 511 512" width="512pt" xmlns="http://www.w3.org/2000/svg"><path d="m237.5 119.148438 1.929688-59.414063c0-20.515625-25.683594-34.132813-42.664063-34.132813-6.878906 0-13.285156 2.039063-18.648437 5.546876-5.03125-17.945313-21.542969-31.148438-41.085938-31.148438-18.175781 0-31.367188 5.90625-37.9375 16.410156-5.921875-4.914062-13.519531-7.875-21.792969-7.875-9.730469 0-17.597656 2.960938-23.382812 8.785156-3.207031 3.226563-5.46875 7.007813-7.058594 11.035157-4-2.160157-8.890625-3.011719-14.625-2.746094-18.398437.996094-31.734375 15.339844-31.734375 34.125v42.664063c0 16.273437 9.746094 29.074218 23.65625 32.867187.664062 41.15625 6.246094 106 27.808594 190.625.179687.964844 18.59375 97.699219-2.671875 139.902344-2.925781 5.828125-3.601563 12.40625-1.894531 18.542969 1.820312 6.527343 6.113281 11.777343 12.085937 14.769531 5.527344 2.785156 12.609375 5.265625 21.03125 7.390625 14.507813 3.652344 30.328125 5.503906 47.019531 5.503906h6.578125c16.691407 0 32.511719-1.851562 47.019531-5.503906 8.421876-2.125 15.496094-4.605469 21.03125-7.390625 5.972657-3 10.265626-8.25 12.085938-14.769531 1.707031-6.136719 1.03125-12.714844-1.894531-18.542969-20.746094-41.15625-3.714844-134.398438-2.714844-139.671875 24.652344-96.910156 28.433594-167.769532 27.859375-206.972656zm-219.933594-16.75v-42.664063c0-9.722656 6.261719-16.574219 15.582032-17.078125 4.839843-.246094 7.65625-.433594 10 9.441406-.015626 1.839844-.007813 3.589844.007812 5.230469l.011719 2.40625c0 4.71875 3.8125 8.53125 8.53125 8.53125s8.535156-3.8125 8.535156-8.53125v-8.25c.144531-8.007813 1.039063-17.359375 5.792969-22.136719 2.5-2.515625 6.1875-3.746094 11.273437-3.746094 9.414063 0 17.066407 7.65625 17.066407 17.066407 0 4.71875 3.816406 8.535156 8.535156 8.535156s8.53125-3.816406 8.53125-8.535156v-8.53125c0-4.226563 0-17.066407 25.601562-17.066407 14.113282 0 25.601563 11.484376 25.601563 25.597657v17.066406c0 4.71875 3.8125 8.535156 8.53125 8.535156s8.535156-3.816406 8.535156-8.535156c0-9.410156 7.652344-17.066406 17.066406-17.066406 10.339844 0 25.601563 8.996093 25.605469 16.792969l-.585938 18.09375-31.277343 5.324218c-6.527344 1.109375-13.574219 2.054688-22.199219 2.984375l-7.621094.820313v41.316406c0 9.414062-7.65625 17.070312-17.066406 17.070312-9.414062 0-17.066406-7.65625-17.066406-17.070312v-39.988281l-8.277344-.253907c-18.917969-.570312-37.546875-2.550781-55.371094-5.871093l-35.335937-6.578125-1.273438 8.789062c-.015625.117188-.050781.332032-.085937.621094-.007813.0625-.015625.109375-.023438.1875-.402344 3.046875-1.65625 13.859375-2.015625 31.855469-4.355469-3.183594-6.609375-8.800781-6.609375-14.363281zm180.238282 377.355468c-.359376 1.289063-1.226563 3.054688-3.3125 4.09375-4.417969 2.226563-10.3125 4.277344-17.535157 6.09375-13.132812 3.308594-27.550781 4.984375-42.84375 4.984375h-6.578125c-15.292968 0-29.703125-1.675781-42.847656-4.984375-7.21875-1.816406-13.113281-3.867187-17.535156-6.09375-2.078125-1.039062-2.953125-2.804687-3.308594-4.09375-.554688-2.003906-.308594-4.300781.699219-6.28125 3.164062-6.289062 5.5625-13.507812 7.363281-21.28125 3.15625.988282 6.714844 2.003906 10.90625 3.054688 13.609375 3.429687 28.472656 5.167968 44.175781 5.167968h6.167969c15.703125 0 30.566406-1.738281 44.375-5.21875 4.289062-1.078124 8.4375-2.128906 12.175781-3.210937 1.808594 7.851563 4.214844 15.136719 7.40625 21.476563 1 1.992187 1.246094 4.277343.691407 6.292968zm-4.769532-157.601562-.109375.488281c-.632812 3.261719-12.050781 63.417969-6.144531 112.417969-4.003906 1.21875-9.113281 2.5-13.636719 3.640625-12.261719 3.089843-25.71875 4.660156-40.003906 4.660156h-6.167969c-14.292968 0-27.75-1.570313-40.003906-4.660156-5.410156-1.355469-9.3125-2.515625-12.136719-3.472657 5.957031-49.046874-5.511719-109.4375-6.230469-113.0625-30.65625-120.351562-28.234374-200.984374-26.28125-226.726562l17.46875 3.25c16.066407 2.984375 32.75 4.929688 49.695313 5.808594v23.503906c0 18.820312 15.308594 34.128906 34.132813 34.128906 18.824218 0 34.132812-15.308594 34.132812-34.128906v-26.054688c5.710938-.699218 10.785156-1.433593 15.617188-2.261718l25.949218-4.410156c1.980469 25.539062 4.507813 106.023437-26.28125 226.878906zm0 0"/><path d="m132.765625 179.199219c-33.863281 0-55.464844 58.125-55.464844 98.128906 0 42.472656 22.125 106.667969 55.464844 106.667969s55.464844-64.195313 55.464844-106.667969c0-40.003906-21.605469-98.128906-55.464844-98.128906zm0 187.726562c-17.230469 0-38.402344-49.40625-38.402344-89.597656 0-38.636719 20.097657-81.066406 38.402344-81.066406s38.398437 42.429687 38.398437 81.066406c0 40.191406-21.171874 89.597656-38.398437 89.597656zm0 0"/></svg>