<svg height="511pt" viewBox="-145 1 511 511.99849" width="511pt" xmlns="http://www.w3.org/2000/svg"><path d="m215.792969 423.628906c-2.40625-3.285156-2.40625-7.699218 0-10.984375 5.710937-7.796875 7.808593-17.355469 5.914062-26.921875-.203125-1.015625-.578125-1.960937-.871093-2.945312.90625-2.488282 1.539062-4.929688 1.539062-7.3125v-3.011719c0-14.984375-3.328125-30.09375-9.882812-44.910156-21.027344-47.554688-20.964844-86.621094.222656-134.84375 6.40625-14.582031 9.660156-29.523438 9.660156-44.382813v-11.785156c0-6.910156-3.140625-13.363281-9.335938-19.277344 5.878907-9.25 9.335938-20.179687 9.335938-31.921875 0-32.929687-26.796875-59.734375-59.734375-59.734375h-25.601563v-25.597656h-51.199218v25.601562h-25.601563c-32.9375 0-59.734375 26.800782-59.734375 59.734376 0 11.742187 3.457032 22.671874 9.328125 31.914062-6.1875 5.914062-9.328125 12.371094-9.328125 19.285156v11.730469c0 14.882813 3.261719 29.851563 9.703125 44.492187 21.15625 48.070313 21.191407 87.136719.136719 134.835938-6.527344 14.78125-9.839844 29.851562-9.839844 44.800781v3.070313c0 2.382812.632813 4.824218 1.546875 7.304687-.292969.980469-.675781 1.929688-.871093 2.945313-1.894532 9.566406.195312 19.121094 5.914062 26.921875 2.40625 3.285156 2.40625 7.695312 0 10.980469-5.382812 7.347656-7.421875 16.265624-6.066406 25.277343-.28125 1.246094-.523438 2.570313-.523438 4.089844v59.015625h221.867188v-59.015625c0-1.511719-.238282-2.84375-.519532-4.089844 1.355469-9-.683593-17.917969-6.058593-25.265625zm-195.617188 29.03125c-.984375-1.589844-1.734375-3.335937-2.152343-5.222656l-.144532-.621094c-.8125-4.679687.210938-9.3125 2.984375-13.101562 1.605469-2.191406 2.800781-4.574219 3.644531-7.039063h27.195313c4.710937 0 8.535156-3.8125 8.535156-8.53125 0-4.722656-3.824219-8.535156-8.535156-8.535156h-27.195313c-.851562-2.46875-2.046874-4.847656-3.652343-7.039063-2.851563-3.902343-3.902344-8.703124-2.933594-13.523437.179687-.898437.460937-1.769531.792969-2.613281l.1875-.445313c.039062-.09375.101562-.167969.132812-.261719.503906-1.136718 1.203125-2.128906 1.914063-3.101562 2.652343-3.421875 6.652343-5.914062 11.21875-6.78125.351562-.054688.691406-.128906 1.042969-.15625.835937-.117188 1.679687-.222656 2.539062-.222656h151.359375c.859375 0 1.707031.105468 2.542969.214844.347656.035156.691406.101562 1.039062.152343 4.566406.871094 8.566406 3.355469 11.222656 6.785157.707032.972656 1.40625 1.960937 1.910157 3.097656.042969.085937.101562.171875.136719.265625l.1875.445312c.332031.84375.613281 1.707031.792968 2.609375.953125 4.824219-.085937 9.625-2.9375 13.527344-1.605468 2.191406-2.804687 4.574219-3.652344 7.039062h-78.386718c-4.710938 0-8.535156 3.8125-8.535156 8.53125s3.824218 8.535157 8.535156 8.535157h78.394531c.855469 2.464843 2.050781 4.847656 3.652344 7.039062 2.765625 3.78125 3.789062 8.414063 2.980469 13.097657l-.144532.625c-.425781 1.882812-1.171875 3.640624-2.152344 5.21875-3.21875 4.890624-9.128906 8.152343-15.582031 8.152343h-151.355469c-6.453124 0-12.367187-3.261719-15.582031-8.140625zm82.730469-435.59375h17.066406v8.535156h-17.066406zm-42.667969 25.601563h102.402344c23.527344 0 42.667969 19.136719 42.667969 42.664062 0 11.128907-4.378906 21.179688-11.386719 28.785157-.671875.734374-1.347656 1.457031-2.0625 2.140624-1.375 1.296876-2.835937 2.5-4.371094 3.609376-.734375.527343-1.484375 1.023437-2.246093 1.5-1.707032 1.078124-3.460938 2.066406-5.3125 2.894531-.617188.273437-1.253907.503906-1.886719.75-2.109375.820312-4.265625 1.554687-6.519531 2.03125-.324219.066406-.667969.101562-.988282.160156-2.5625.476563-5.1875.792969-7.894531.792969h-102.402344c-2.703125 0-5.324219-.316406-7.890625-.800782-.332031-.058593-.667968-.09375-1-.160156-2.253906-.480468-4.402344-1.203125-6.511718-2.023437-.628907-.25-1.269532-.476563-1.894532-.75-1.851562-.828125-3.601562-1.8125-5.296875-2.886719-.769531-.484375-1.527343-.988281-2.273437-1.515625-1.527344-1.101563-2.976563-2.296875-4.339844-3.585937-.726562-.691407-1.410156-1.433594-2.09375-2.175782-6.996094-7.601562-11.363281-17.65625-11.363281-28.765625 0-23.523437 19.136719-42.664062 42.664062-42.664062zm-34.285156 291.820312c23.21875-52.597656 23.183594-95.648437-.128906-148.609375-5.46875-12.457031-8.25-25.105468-8.25-37.613281v-11.734375c0-1.835938 1.195312-4.019531 3.402343-6.296875 2.65625 2.320313 5.523438 4.402344 8.558594 6.238281.078125.042969.148438.09375.222656.136719 1.398438.835937 2.832032 1.601563 4.300782 2.328125.214844.101562.425781.207031.640625.304688 1.359375.640624 2.734375 1.238281 4.140625 1.785156.375.144531.742187.273437 1.117187.410156 1.28125.460938 2.578125.90625 3.890625 1.28125.582032.167969 1.160156.296875 1.742188.449219 1.152344.289062 2.304687.582031 3.480468.8125.90625.171875 1.828126.289062 2.738282.417969.914062.128906 1.8125.289062 2.734375.375 1.890625.1875 3.785156.292968 5.699219.292968h102.398437c1.910156 0 3.8125-.105468 5.699219-.292968.921875-.082032 1.808594-.246094 2.714844-.375.917968-.136719 1.839843-.246094 2.753906-.425782 1.171875-.222656 2.320312-.511718 3.464844-.800781.589843-.15625 1.179687-.28125 1.765624-.453125 1.316407-.375 2.605469-.8125 3.882813-1.273438.375-.132812.761719-.273437 1.132813-.417968 1.410156-.535156 2.777343-1.144532 4.132812-1.785156.210938-.101563.425781-.203126.640625-.304688 1.46875-.726562 2.910156-1.5 4.308594-2.339844.066406-.042968.136719-.082031.207031-.128906 3.046875-1.832031 5.914062-3.914062 8.566406-6.234375 2.199219 2.277344 3.394532 4.460937 3.394532 6.296875v11.785156c0 12.484375-2.765626 25.105469-8.21875 37.519532-23.335938 53.121093-23.398438 96.171874-.203126 148.617187 4.144532 9.359375 6.773438 18.816406 7.859376 28.210937-4.949219-2.738281-10.609376-4.265624-16.503907-4.265624h-153.601562c-5.894531 0-11.554688 1.527343-16.511719 4.273437 1.078125-9.382813 3.699219-18.832031 7.828125-28.183594zm179.351563 160.445313h-187.730469v-21.726563c5.074219 2.96875 10.929687 4.660157 17.066406 4.660157h153.601563c6.125 0 11.988281-1.691407 17.066406-4.660157v21.726563zm0 0"/><path d="m98.640625 264.53125h25.597656c7.058594 0 12.800781 5.746094 12.800781 12.800781 0 7.058594-5.742187 12.800781-12.800781 12.800781h-46.933593v17.066407h46.933593c16.472657 0 29.867188-13.398438 29.867188-29.867188s-13.394531-29.867187-29.867188-29.867187h-25.597656c-7.058594 0-12.800781-5.742188-12.800781-12.796875 0-7.058594 5.742187-12.800781 12.800781-12.800781h46.933594v-17.066407h-46.933594c-16.46875 0-29.867187 13.394531-29.867187 29.867188 0 16.46875 13.394531 29.863281 29.867187 29.863281zm0 0"/></svg>