<svg height="512pt" viewBox="-145 0 512 512.00151" width="512pt" xmlns="http://www.w3.org/2000/svg"><path d="m93.875 273.066406h25.601562c18.820313 0 34.132813-15.308594 34.132813-34.132812 0-18.824219-15.3125-34.132813-34.132813-34.132813h-42.667968v93.867188h17.066406zm0-51.199218h25.601562c9.410157 0 17.066407 7.652343 17.066407 17.066406 0 9.414062-7.65625 17.066406-17.066407 17.066406h-25.601562zm0 0"/><path d="m215.285156 423.628906c-2.398437-3.285156-2.398437-7.699218 0-10.984375 5.71875-7.808593 7.816406-17.371093 5.90625-26.921875-.207031-1.015625-.582031-1.953125-.871094-2.933594.921876-2.492187 1.550782-4.925781 1.550782-7.324218v-3.011719c0-14.984375-3.324219-30.089844-9.878906-44.910156-21.035157-47.539063-20.964844-86.605469.222656-134.84375 6.40625-14.59375 9.660156-29.523438 9.660156-44.382813v-11.785156c0-6.910156-3.140625-13.371094-9.328125-19.285156 5.871094-9.242188 9.328125-20.171875 9.328125-31.914063 0-32.929687-26.804688-59.734375-59.734375-59.734375h-25.601563v-25.597656h-51.199218v25.601562h-25.601563c-32.929687 0-59.7304685 26.800782-59.7304685 59.734376 0 11.742187 3.4531255 22.664062 9.3242185 31.914062-6.183593 5.902344-9.3242185 12.371094-9.3242185 19.285156v11.730469c0 14.890625 3.2695315 29.859375 9.7070315 44.484375 21.15625 48.078125 21.179687 87.144531.128906 134.851562-6.527344 14.78125-9.8359375 29.859376-9.8359375 44.792969v3.074219c0 2.386719.6289065 4.828125 1.5507815 7.3125-.289063.972656-.664063 1.910156-.871094 2.925781-1.910156 9.558594.1875 19.125 5.90625 26.933594 2.398438 3.285156 2.398438 7.695313 0 10.980469-5.382812 7.347656-7.421875 16.265625-6.074219 25.277344-.28125 1.246093-.5117185 2.566406-.5117185 4.085937v59.015625h221.8632815v-59.015625c0-1.507813-.238282-2.839844-.519532-4.085937 1.359376-9.003907-.679687-17.921876-6.066406-25.269532zm-195.601562 29.046875c-.988282-1.585937-1.730469-3.34375-2.15625-5.238281l-.15625-.691406c-.785156-4.652344.242187-9.269532 2.996094-13.039063 1.605468-2.195312 2.800781-4.574219 3.652343-7.039062h27.1875c4.71875 0 8.535157-3.816407 8.535157-8.535157s-3.816407-8.53125-8.535157-8.53125h-27.195312c-.84375-2.46875-2.046875-4.847656-3.652344-7.039062-2.859375-3.902344-3.902344-8.707031-2.945313-13.527344.179688-.886718.453126-1.738281.785157-2.578125l.222656-.519531c.027344-.058594.070313-.117188.09375-.179688.503906-1.152343 1.210937-2.148437 1.929687-3.140624 2.652344-3.429688 6.664063-5.921876 11.238282-6.792969.34375-.050781.667968-.117188 1.015625-.152344.855469-.101563 1.699219-.207031 2.570312-.207031h151.34375c.871094 0 1.714844.105468 2.5625.214844.339844.035156.671875.101562 1.015625.152343 4.574219.871094 8.585938 3.363281 11.246094 6.800781.707031.984376 1.40625 1.964844 1.902344 3.097657.035156.085937.085937.15625.128906.242187l.207031.476563c.332031.835937.613281 1.695312.785157 2.59375.957031 4.8125-.085938 9.617187-2.945313 13.515625-1.605469 2.195312-2.800781 4.574218-3.652344 7.039062h-78.386719c-4.71875 0-8.535156 3.816406-8.535156 8.535156s3.816406 8.53125 8.535156 8.53125h78.394532c.84375 2.46875 2.050781 4.847657 3.652344 7.042969 2.765624 3.769531 3.789062 8.394531 2.996093 13.035157l-.152343.683593c-.425782 1.886719-1.171876 3.644531-2.160157 5.230469-3.226562 4.882812-9.128906 8.140625-15.582031 8.140625h-151.367188c-6.453124.003906-12.355468-3.257813-15.574218-8.121094zm82.722656-435.609375h17.066406v8.535156h-17.066406zm-42.667969 25.601563h102.402344c23.527344 0 42.667969 19.136719 42.667969 42.664062 0 11.109375-4.378906 21.164063-11.367188 28.765625-.683594.742188-1.355468 1.476563-2.082031 2.167969-1.371094 1.296875-2.824219 2.492187-4.359375 3.601563-.734375.527343-1.488281 1.035156-2.253906 1.511718-1.707032 1.074219-3.464844 2.0625-5.316406 2.890625-.613282.273438-1.253907.503907-1.882813.75-2.109375.820313-4.269531 1.546875-6.523437 2.03125-.324219.070313-.664063.105469-.996094.164063-2.550782.46875-5.179688.785156-7.886719.785156h-102.398437c-2.703126 0-5.332032-.316406-7.890626-.804688-.335937-.058593-.667968-.09375-1-.160156-2.253906-.476562-4.410156-1.203125-6.519531-2.03125-.632812-.246094-1.273437-.46875-1.886719-.75-1.851562-.828125-3.609374-1.816406-5.316406-2.894531-.757812-.484375-1.515625-.980469-2.25-1.507813-1.527344-1.109374-2.988281-2.304687-4.363281-3.601562-.722656-.683594-1.40625-1.425781-2.082031-2.167969-6.980469-7.585937-11.355469-17.640625-11.355469-28.75-.003906-23.523437 19.136719-42.664062 42.660156-42.664062zm-34.285156 291.820312c23.21875-52.589843 23.183594-95.648437-.128906-148.617187-5.480469-12.449219-8.25-25.09375-8.25-37.605469v-11.730469c0-1.835937 1.195312-4.019531 3.40625-6.300781 2.652343 2.320313 5.511719 4.40625 8.539062 6.230469.085938.050781.160157.105468.246094.144531 1.394531.828125 2.816406 1.597656 4.277344 2.3125.222656.113281.453125.214844.671875.328125 1.339844.640625 2.707031 1.226562 4.105468 1.773438.382813.144531.777344.28125 1.160157.425781 1.273437.460937 2.550781.894531 3.855469 1.273437.589843.167969 1.1875.304688 1.785156.460938 1.144531.289062 2.277344.578125 3.449218.800781.910157.179687 1.839844.289063 2.773438.425781.902344.128906 1.789062.289063 2.703125.375 1.878906.179688 3.78125.28125 5.691406.28125h102.402344c1.910156 0 3.8125-.101562 5.699219-.289062.910156-.085938 1.800781-.246094 2.703125-.375.921875-.136719 1.855469-.25 2.765625-.425782 1.167968-.222656 2.3125-.511718 3.457031-.804687.597656-.152344 1.195313-.289063 1.785156-.460937 1.304688-.375 2.585938-.808594 3.855469-1.269532.382812-.136718.777344-.273437 1.160156-.425781 1.398438-.539063 2.757813-1.136719 4.105469-1.777344.222656-.109375.449219-.210937.671875-.324219 1.460938-.71875 2.882812-1.484374 4.277344-2.3125.074218-.050781.160156-.09375.238281-.144531 3.035156-1.835937 5.894531-3.90625 8.550781-6.230469 2.199219 2.289063 3.394532 4.472657 3.394532 6.304688v11.785156c0 12.476563-2.765626 25.105469-8.226563 37.523438-23.328125 53.128906-23.386719 96.175781-.1875 148.605468 4.140625 9.371094 6.769531 18.824219 7.851563 28.222657-4.949219-2.742188-10.605469-4.265625-16.503907-4.265625h-153.597656c-5.898437 0-11.554687 1.523437-16.515625 4.273437 1.078125-9.386719 3.699219-18.824219 7.828125-28.1875zm179.355469 160.445313h-187.734375v-21.726563c5.078125 2.96875 10.929687 4.660157 17.066406 4.660157h153.597656c6.136719 0 11.992188-1.691407 17.070313-4.660157zm0 0"/></svg>