<svg height="512pt" viewBox="0 0 512 512.00163" width="512pt" xmlns="http://www.w3.org/2000/svg"><path d="m490.734375 116.914062h-14.859375c-1.582031 0-2.875-1.292968-2.875-2.871093v-14.863281c0-11.710938-9.527344-21.246094-21.234375-21.246094h-14.871094c-1.582031 0-2.867187-1.285156-2.867187-2.863282v-14.863281c0-11.703125-9.523438-21.234375-21.234375-21.234375h-14.867188c-1.582031 0-2.875-1.296875-2.875-2.875v-14.851562c.015625-11.722656-9.511719-21.246094-21.222656-21.246094h-18.964844c-8.496093 0-16.15625 5.050781-19.519531 12.867188l-15.835938 36.945312c-26.527343 32.0625-54.191406 63.273438-82.710937 93.703125-10.453125 11.160156-21.0625 22.222656-31.816406 33.1875-.542969.550781-1.074219 1.113281-1.628907 1.660156-10.835937 11.03125-21.824218 21.953125-32.9375 32.753907-.375.367187-.75.746093-1.136718 1.113281-11.253906 10.921875-22.640625 21.714843-34.132813 32.367187-.273437.257813-.550781.515625-.824219.773438-11.664062 10.792968-23.441406 21.449218-35.308593 31.917968-.191407.175782-.382813.351563-.578125.515626l-9.929688 8.769531.039063.019531c-12.785157 11.132812-25.691407 22.125-38.734375 32.917969l-37.234375 15.953125c-7.640625 3.289062-12.574219 10.777344-12.574219 19.085937v19.769531c0 11.441407 9.316406 20.753907 20.757812 20.753907h15.835938c1.3125 0 2.378906 1.066406 2.378906 2.390625v15.824218c0 11.445313 9.3125 20.757813 20.757813 20.757813h15.835937c1.320313 0 2.386719 1.066406 2.386719 2.390625v15.835938c0 11.441406 9.316406 20.757812 20.757813 20.757812h15.835937c1.316406 0 2.378906 1.0625 2.378906 2.378906v15.832032c0 11.445312 9.316407 20.757812 20.757813 20.757812h19.765625c8.324219 0 15.816406-4.941406 19.078125-12.582031l15.953125-37.226563c26.453125-31.972656 54.035156-63.09375 82.464843-93.449218 10.699219-11.425782 21.566407-22.75 32.570313-33.964844.273437-.285156.550781-.570313.824219-.84375 11.113281-11.316406 22.375-22.515625 33.765625-33.574219.109375-.101563.210937-.210937.320312-.3125 23.09375-22.421875 46.714844-44.296875 70.699219-65.453125l10.378906-9.15625-.058594-.027344c12.789063-11.132812 25.683594-22.128906 38.734376-32.917968l36.953124-15.835938c7.8125-3.355469 12.855469-11.015625 12.855469-19.519531v-18.992188c-.015625-11.703125-9.542969-21.230469-21.253906-21.230469zm-131.042969 141.324219c-.707031.660157-1.421875 1.320313-2.128906 1.980469-9.949219 9.296875-19.792969 18.703125-29.558594 28.199219-.789062.773437-1.582031 1.542969-2.367187 2.316406-9.828125 9.589844-19.566407 19.269531-29.203125 29.0625-.410156.421875-.824219.84375-1.238282 1.265625-9.894531 10.078125-19.703124 20.226562-29.382812 30.496094l-144.453125-69.558594c.144531-.128906.285156-.269531.429687-.394531 10.113282-9.058594 20.125-18.214844 30.054688-27.472657.964844-.902343 1.9375-1.800781 2.902344-2.703124 9.746094-9.113282 19.390625-18.324219 28.960937-27.628907 1-.972656 1.992188-1.949219 2.996094-2.921875 9.613281-9.394531 19.15625-18.871094 28.589844-28.453125.671875-.6875 1.34375-1.378906 2.011719-2.058593 9.710937-9.890626 19.34375-19.863282 28.851562-29.949219l144.453125 69.558593c-10.40625 9.3125-20.703125 18.734376-30.917969 28.261719zm-182.230468 193.242188-17.84375 40.6875c-.367188.875-1.234376 1.433593-2.1875 1.433593h-19.765626c-1.320312 0-2.386718-1.066406-2.386718-2.386718v-15.835938c0-11.4375-9.316406-20.75-20.75-20.75h-15.835938c-1.320312 0-2.386718-1.066406-2.386718-2.390625v-15.835937c0-11.441406-9.316407-20.757813-20.757813-20.757813h-15.828125c-1.320312 0-2.386719-1.0625-2.386719-2.386719v-15.824218c0-11.445313-9.3125-20.757813-20.75-20.757813h-15.824219c-1.324218 0-2.390624-1.066406-2.390624-2.390625v-19.765625c0-.953125.578124-1.816406 1.441406-2.195312l38.449218-16.476563 2.234376-1.359375c15.53125-12.832031 30.816406-25.984375 45.96875-39.285156l146.234374 70.414063c-25.855468 27.988281-51.023437 56.5625-75.234374 85.863281zm316.140624-294.371094c0 1.148437-.679687 2.175781-1.726562 2.636719l-38.164062 16.351562-2.230469 1.359375c-15.53125 12.828125-30.816407 25.984375-45.972657 39.28125l-146.226562-70.410156c25.867188-27.960937 51.035156-56.542969 75.238281-85.84375l17.71875-40.378906c.4375-1.054688 1.476563-1.734375 2.625-1.734375h18.96875c1.578125 0 2.863281 1.292968 2.863281 2.875v14.859375c0 11.710937 9.527344 21.246093 21.246094 21.246093h14.871094c1.578125 0 2.863281 1.285157 2.863281 2.867188v14.867188c0 11.703124 9.527344 21.238281 21.234375 21.238281h14.871094c1.582031 0 2.867188 1.292969 2.867188 2.875v14.859375c0 11.710937 9.523437 21.246094 21.242187 21.246094h14.863281c1.582032 0 2.875 1.285156 2.875 2.863281v18.941406zm0 0"/><path d="m220.253906 213.773438c-23.273437 23.273437-23.273437 61.144531 0 84.425781 11.648438 11.648437 26.929688 17.453125 42.226563 17.453125 15.285156 0 30.574219-5.824219 42.214843-17.453125 11.277344-11.277344 17.484376-26.269531 17.484376-42.222657 0-15.953124-6.214844-30.933593-17.484376-42.214843-11.269531-11.277344-26.261718-17.488281-42.214843-17.488281-15.957031 0-30.945313 6.230468-42.226563 17.5zm83.558594 42.210937c0 11.042969-4.300781 21.421875-12.105469 29.238281-16.109375 16.109375-42.324219 16.109375-58.453125 0-16.109375-16.121094-16.109375-42.34375 0-58.453125 7.816406-7.816406 18.1875-12.105469 29.234375-12.105469 11.050781 0 21.421875 4.296876 29.226563 12.105469 7.796875 7.796875 12.097656 18.175781 12.097656 29.214844zm0 0"/><path d="m366.398438 67.636719c-3.589844-3.589844-9.394532-3.589844-12.988282 0l-12.984375 12.988281c-3.59375 3.59375-3.59375 9.398438 0 12.988281 1.792969 1.789063 4.140625 2.691407 6.492188 2.691407 2.351562 0 4.703125-.902344 6.496093-2.691407l12.988282-12.988281c3.578125-3.582031 3.578125-9.394531-.003906-12.988281zm0 0"/><path d="m392.375 93.613281c-3.59375-3.589843-9.398438-3.589843-12.988281 0l-12.984375 12.996094c-3.59375 3.59375-3.59375 9.40625 0 12.988281 1.789062 1.792969 4.140625 2.691406 6.492187 2.691406 2.351563 0 4.703125-.902343 6.496094-2.691406l12.984375-12.996094c3.582031-3.582031 3.582031-9.40625 0-12.988281zm0 0"/><path d="m418.359375 119.597656c-3.59375-3.589844-9.398437-3.589844-12.988281 0l-12.988282 12.988282c-3.589843 3.589843-3.589843 9.394531 0 12.988281 1.792969 1.789062 4.144532 2.6875 6.496094 2.6875 2.351563 0 4.703125-.898438 6.492188-2.6875l12.988281-12.988281c3.582031-3.582032 3.582031-9.398438 0-12.988282zm0 0"/><path d="m431.347656 145.582031-12.988281 12.988281c-3.589844 3.589844-3.589844 9.394532 0 12.984376 1.792969 1.792968 4.144531 2.691406 6.496094 2.691406 2.347656 0 4.699219-.898438 6.492187-2.691406l12.988282-12.984376c3.589843-3.59375 3.589843-9.398437 0-12.988281-3.59375-3.589843-9.398438-3.589843-12.988282 0zm0 0"/><path d="m93.613281 340.425781c-3.59375-3.59375-9.398437-3.59375-12.988281 0l-12.984375 12.984375c-3.59375 3.59375-3.59375 9.398438 0 12.988282 1.789063 1.792968 4.140625 2.691406 6.492187 2.691406 2.351563 0 4.703126-.902344 6.496094-2.691406l12.984375-12.988282c3.589844-3.589844 3.589844-9.402344 0-12.984375zm0 0"/><path d="m119.597656 366.410156c-3.59375-3.59375-9.398437-3.59375-12.988281 0l-12.988281 12.984375c-3.589844 3.59375-3.589844 9.398438 0 12.988281 1.792968 1.792969 4.144531 2.691407 6.496094 2.691407 2.351562 0 4.703124-.902344 6.492187-2.691407l12.988281-12.988281c3.582032-3.589843 3.582032-9.402343 0-12.984375zm0 0"/><path d="m145.570312 392.386719c-3.589843-3.59375-9.394531-3.59375-12.984374 0l-12.988282 12.984375c-3.589844 3.59375-3.589844 9.398437 0 12.988281 1.792969 1.792969 4.144532 2.691406 6.496094 2.691406s4.699219-.902343 6.492188-2.691406l12.988281-12.988281c3.578125-3.589844 3.578125-9.402344-.003907-12.984375zm0 0"/><path d="m158.570312 418.359375-12.988281 12.988281c-3.59375 3.589844-3.59375 9.394532 0 12.984375 1.792969 1.792969 4.140625 2.691407 6.492188 2.691407 2.351562 0 4.703125-.898438 6.496093-2.691407l12.988282-12.984375c3.589844-3.59375 3.589844-9.398437 0-12.988281-3.59375-3.589844-9.40625-3.589844-12.988282 0zm0 0"/></svg>