<svg height="512" viewBox="0 0 60 60" width="512" xmlns="http://www.w3.org/2000/svg"><g id="Page-1" fill="none" fill-rule="evenodd"><g id="003---Toast" fill="rgb(0,0,0)" fill-rule="nonzero"><path id="Shape" d="m58 24h-4v-3c-.0033061-2.7600532-2.2399468-4.9966939-5-5h-6v-3c0-.5522847.4477153-1 1-1 1.6568542 0 3-1.3431458 3-3v-3c-.0033074-3.31233757-2.6876624-5.99669262-6-6h-28c-3.31233757.00330738-5.99669262 2.68766243-6 6v3c0 1.6568542 1.34314575 3 3 3 .5522847 0 1 .4477153 1 1v3h-6c-2.76005315.0033061-4.99669388 2.2399468-5 5v32c0 1.6568542 1.34314575 3 3 3h2v1c0 1.6568542 1.34314575 3 3 3h2c1.6568542 0 3-1.3431458 3-3v-1h28v1c0 1.6568542 1.3431458 3 3 3h2c1.6568542 0 3-1.3431458 3-3v-1h2c1.6568542 0 3-1.3431458 3-3v-23h4c1.1045695 0 2-.8954305 2-2v-2c0-1.1045695-.8954305-2-2-2zm-48-14c-.55228475 0-1-.44771525-1-1v-3c0-2.209139 1.790861-4 4-4h28c2.209139 0 4 1.790861 4 4v3c0 .55228475-.4477153 1-1 1-1.6568542 0-3 1.3431458-3 3v3h-2v-3c.0035782-2.1182026 1.3381339-4.00555414 3.334-4.715.3990037-.14138654.6657574-.51868685.666-.942v-1.343c0-1.1045695-.8954305-2-2-2h-28c-1.1045695 0-2 .8954305-2 2v1.343c.0002426.42331315.2669963.80061346.666.942 1.9958661.70944586 3.3304218 2.5967974 3.334 4.715v3h-2v-3c0-1.6568542-1.3431458-3-3-3zm27 6h-20v-3c-.0041101-2.7024411-1.5599924-5.16229106-4-6.324v-.676h28v.676c-2.4400076 1.16170894-3.9958899 3.6215589-4 6.324zm-26 41c0 .5522847-.4477153 1-1 1h-2c-.55228475 0-1-.4477153-1-1v-1h4zm36 0c0 .5522847-.4477153 1-1 1h-2c-.5522847 0-1-.4477153-1-1v-1h4zm5-4c0 .5522847-.4477153 1-1 1h-48c-.55228475 0-1-.4477153-1-1v-32c0-1.6568542 1.34314575-3 3-3h44c1.6568542 0 3 1.3431458 3 3zm2-25v-2h4v2z"/><path id="Shape" d="m27 38c-3.8659932 0-7 3.1340068-7 7s3.1340068 7 7 7 7-3.1340068 7-7c-.0044086-3.8641657-3.1358343-6.9955914-7-7zm0 12c-2.7614237 0-5-2.2385763-5-5s2.2385763-5 5-5 5 2.2385763 5 5c-.0033061 2.7600532-2.2399468 4.9966939-5 5z"/><path id="Shape" d="m15 42c-1.6568542 0-3 1.3431458-3 3s1.3431458 3 3 3 3-1.3431458 3-3-1.3431458-3-3-3zm0 4c-.5522847 0-1-.4477153-1-1s.4477153-1 1-1 1 .4477153 1 1-.4477153 1-1 1z"/><path id="Shape" d="m7 42c-1.65685425 0-3 1.3431458-3 3s1.34314575 3 3 3 3-1.3431458 3-3-1.34314575-3-3-3zm0 4c-.55228475 0-1-.4477153-1-1s.44771525-1 1-1 1 .4477153 1 1-.44771525 1-1 1z"/><path id="Shape" d="m47 42c-1.2133867 0-2.3072956.7309265-2.7716386 1.8519497s-.2076757 2.4113767.6503183 3.2693706c.8579939.857994 2.1483474 1.1146613 3.2693706.6503183s1.8519497-1.5582519 1.8519497-2.7716386c0-1.6568542-1.3431458-3-3-3zm0 4c-.5522847 0-1-.4477153-1-1s.4477153-1 1-1 1 .4477153 1 1-.4477153 1-1 1z"/><path id="Shape" d="m39 42c-1.6568542 0-3 1.3431458-3 3s1.3431458 3 3 3 3-1.3431458 3-3-1.3431458-3-3-3zm0 4c-.5522847 0-1-.4477153-1-1s.4477153-1 1-1 1 .4477153 1 1-.4477153 1-1 1z"/><path id="Shape" d="m5 22h1c.55228475 0 1-.4477153 1-1s-.44771525-1-1-1h-1c-.55228475 0-1 .4477153-1 1s.44771525 1 1 1z"/><path id="Shape" d="m31 21c0-.5522847-.4477153-1-1-1h-20c-.55228475 0-1 .4477153-1 1s.44771525 1 1 1h20c.5522847 0 1-.4477153 1-1z"/></g></g></svg>