<svg height="512" viewBox="0 0 60 60" width="512" xmlns="http://www.w3.org/2000/svg"><g id="Page-1" fill="none" fill-rule="evenodd"><g id="004---Toast" fill="rgb(0,0,0)" fill-rule="nonzero" transform="translate(-1)"><path id="Shape" d="m59 41h-6l-.02-27.07c3.5330896-.4979377 6.1262761-3.5735775 6.02-7.14-.2131185-3.83743813-3.4068416-6.82852494-7.25-6.79h-43.5c-3.84352457-.03849897-7.03739555 2.95316694-7.25 6.791-.11149255 3.559003 2.4742123 6.6312513 6 7.129v41.08c.00330612 2.7600532 2.23994685 4.9966939 5 5h36c2.7600532-.0033061 4.9966939-2.2399468 5-5v-6h6c1.1045695 0 2-.8954305 2-2v-4c0-1.1045695-.8954305-2-2-2zm-51.151-33.01c-.50255219-.07371273-.86868508-.51445221-.849-1.022.11519375-.59033395.64962206-1.00419523 1.25-.968h43.5c.600693-.03611737 1.1352426.37826551 1.25.969.019693.50645115-.3455533.94629915-.847 1.02-2.9519154.42352967-5.1459889 2.9488644-5.153 5.931v29.08h-.632-.048c-1.0103013-2.1119539-3.004138-3.5837202-5.32-3.927v-.073c0-.5522847.4477153-1 1-1 1.6534434-.0082058 2.9917942-1.3465566 3-3v-11c0-1.6568542-1.3431458-3-3-3-.2694422.0008733-.5272084-.1099083-.712-.306-.1865985-.1823963-.2906276-.4330776-.288-.694v-1c0-1.6568542-1.3431458-3-3-3-1.6534434.0082058-2.9917942 1.3465566-3 3 .0008733.2694422-.1099083.5272084-.306.712-.1884155.1848719-.442801.2869348-.7067454.2835557-.2639443-.0033791-.5156336-.1119209-.6992546-.3015557-.1865985-.1823963-.2906276-.4330776-.288-.694v-3c0-1.6568542-1.3431458-3-3-3-1.6534434.0082058-2.9917942 1.3465566-3 3v5c0 .5522847-.4477153 1-1 1-.2694422.0008733-.5272084-.1099083-.712-.306-.1865985-.1823963-.2906276-.4330776-.288-.694.0057439-.7919506-.3095678-1.5524507-.874-2.108-1.1795491-1.1369944-3.0448263-1.1449243-4.234-.018-.5739985.5579289-.8960613 1.3255361-.892 2.126v3c0 .5522847-.4477153 1-1 1-1.6534434.0082058-2.9917942 1.3465566-3 3v11c0 1.6568542 1.3431458 3 3 3 .2694422-.0008733.5272084.1099083.712.306.1865985.1823963.2906276.4330776.288.694v1c.0052514 1.2667854.8056491 2.3937454 2 2.816v1.184c0 .5522847.4477153 1 1 1h25v5h-34v-40.08c-.0047865-2.9820635-2.1989369-5.50804131-5.151-5.93zm27.151 31.01h-2.182c.1172562-.3205136.1788109-.6587262.182-1v-3c0-.5522847.4477153-1 1-1 .2694422-.0008733.5272084.1099083.712.306.1865985.1823963.2906276.4330776.288.694zm1.126-6.108c-.5579289-.5739985-1.3255361-.8960613-2.126-.892-1.6568542 0-3 1.3431458-3 3v3c.0008733.2694422-.1099083.5272084-.306.712-.1823963.1865985-.4330776.2906276-.694.288-.5522847 0-1-.4477153-1-1v-1c-.0082058-1.6534434-1.3465566-2.9917942-3-3-1.6568542 0-3 1.3431458-3 3v4.11c-.9197693.9381163-1.5564519 2.1165162-1.837 3.4-.1011533-.1513174-.1576433-.3280652-.163-.51v-1c-.0082058-1.6534434-1.3465566-2.9917942-3-3-.5522847 0-1-.4477153-1-1v-11c-.0008733-.2694422.1099083-.5272084.306-.712.1823963-.1865985.4330776-.2906276.694-.288 1.6568542 0 3-1.3431458 3-3v-3c-.0008733-.2694422.1099083-.5272084.306-.712.1884155-.1848719.442801-.2869348.7067454-.2835557.2639443.0033791.5156336.1119209.6992546.3015557.1865985.1823963.2906276.4330776.288.694.0082058 1.6534434 1.3465566 2.9917942 3 3 1.6568542 0 3-1.3431458 3-3v-5c-.0008733-.2694422.1099083-.5272084.306-.712.1823963-.1865985.4330776-.2906276.694-.288.5522847 0 1 .4477153 1 1v3c-.0057439.7919506.3095678 1.5524507.874 2.108 1.1795491 1.1369944 3.0448263 1.1449243 4.234.018.5739985-.5579289.8960613-1.3255361.892-2.126-.0008733-.2694422.1099083-.5272084.306-.712.1823963-.1865985.4330776-.2906276.694-.288.5522847 0 1 .4477153 1 1v1c.0082058 1.6534434 1.3465566 2.9917942 3 3 .5522847 0 1 .4477153 1 1v11c.0008733.2694422-.1099083.5272084-.306.712-.1823963.1865985-.4330776.2906276-.694.288-1.6568542 0-3 1.3431458-3 3h-2v-4c.0057439-.7919506-.3095678-1.5524507-.874-2.108zm-8.926 6.157c-.7634565.0888904-1.50688.3038074-2.2.636v-2.685c0-.5522847.4477153-1 1-1 .2694422-.0008733.5272084.1099083.712.306.1865985.1823963.2906276.4330776.288.694v1c.0024068.3589111.0701799.7143812.2 1.049zm-4.2 7.951v-1c.0033061-2.7600532 2.2399468-4.9966939 5-5h12c1.9286525.0078509 3.6824944 1.119304 4.513 2.86.3478356.7049427 1.0689541 1.1481099 1.855 1.14h3.632v2zm28 8c0 1.6568542-1.3431458 3-3 3h-36c-1.6568542 0-3-1.3431458-3-3v-41.08c-.00363515-.9859235-.72522362-1.8221172-1.7-1.97-2.52363542-.3556698-4.37591152-2.55255537-4.3-5.1.17277934-2.75984965 2.48513023-4.89602143 5.25-4.85h43.5c2.7645063-.04604886 5.0767095 2.08954611 5.25 4.849.0759115 2.54744463-1.7763646 4.7443302-4.3 5.1-.9751497.1479412-1.6968569.984697-1.7 1.971v27.358c-.6167513.3544126-.997855 1.0106732-1 1.722h-1v-29.08c.0044847-1.9851314 1.464193-3.6666268 3.429-3.95 1.5117053-.21405291 2.6197585-1.53199406 2.571-3.058-.1306563-1.68341644-1.5623926-2.96625214-3.25-2.912h-43.5c-1.68724915-.05428214-3.11883807 1.22798105-3.25 2.911-.04875085 1.52710296 1.06018919 2.84593565 2.573 3.06 1.9636382.2842165 3.4221648 1.9649056 3.427 3.949v41.08c0 .5522847.4477153 1 1 1h36c.5522847 0 1-.4477153 1-1v-6h2zm1-8v-4h7v4z"/></g></g></svg>