<svg height="512" viewBox="0 0 60 60" width="512" xmlns="http://www.w3.org/2000/svg"><g id="Page-1" fill="none" fill-rule="evenodd"><g id="005---Milk" fill="rgb(0,0,0)" fill-rule="nonzero"><path id="Shape" d="m3 60h28c1.6568542 0 3-1.3431458 3-3v-40c-.0057629-.0466529-.0151241-.0927903-.028-.138.0018129-.0333087.0018129-.0666913 0-.1l-2.972-11.886v-1.876c0-1.65685425-1.3431458-3-3-3h-22c-1.65685425 0-3 1.34314575-3 3v1.876l-2.97 11.881c-.00181293.0333087-.00181293.0666913 0 .1-.01380843.0467876-.02384062.0946077-.03.143v40c0 1.6568542 1.34314575 3 3 3zm29-35h-30v-7h30zm0 24h-30v-22h30zm-1 9h-28c-.55228475 0-1-.4477153-1-1v-6h30v6c0 .5522847-.4477153 1-1 1zm-26-55c0-.55228475.44771525-1 1-1h22c.5522847 0 1 .44771525 1 1v1h-24zm-.219 3h24.438l2.5 10h-29.438z"/><path id="Shape" d="m40.879 60h14.242c1.5838157-.0000547 2.8947476-1.2312973 2.994-2.812l1.817-29.063c.0345523-.5517384-.1608069-1.0931702-.5396897-1.4957332s-.9074921-.6303476-1.4603103-.6292668h-19.868c-.5528182-.0010808-1.0814275.2267038-1.4603103.6292668s-.574242.9439948-.5396897 1.4957332l1.817 29.063c.0993478 1.5822432 1.4126422 2.814059 2.998 2.812zm15.438-6.1c-.1609475.0657913-.3331249.0997513-.507.1h-15.62c-.1738281-.0007225-.345916-.0346649-.507-.1l-1.056-16.9h18.746zm-1.2 4.1h-14.238c-.5285888.00105-.9666999-.4094601-1-.937l-.069-1.095c.1259683.0177673.2528344.0284508.38.032h15.62c.1264973-.0036237.2526937-.014307.378-.032l-.069 1.095c-.0332525.5267694-.4701821.9369929-.998.937zm2.815-30-.432 7h-19l-.438-7z"/><path id="Shape" d="m17 46c5.514 0 10-3.589 10-8s-4.486-8-10-8-10 3.589-10 8 4.486 8 10 8zm0-14c4.411 0 8 2.691 8 6s-3.589 6-8 6-8-2.691-8-6 3.589-6 8-6z"/></g></g></svg>