<svg height="512" viewBox="0 0 60 60" width="512" xmlns="http://www.w3.org/2000/svg"><g id="Page-1" fill="none" fill-rule="evenodd"><g id="007---Fruit" fill="rgb(0,0,0)" fill-rule="nonzero" transform="translate(-1)"><path id="Shape" d="m17.5 19.65c.5522847 0 1-.4477153 1-1s-.4477153-1-1-1c-1.855 0-7.5 0-7.5 12.18 0 .5522847.4477153 1 1 1s1-.4477153 1-1c0-10.18 3.854-10.18 5.5-10.18z"/><path id="Shape" d="m50.857.766c-.1295144-.20667283-.330096-.35888726-.564-.428-2.7670691-.79866158-5.7154767.44885395-7.069 2.991-.1520497.2576811-.1781931.5706645-.071.85.1065322.27334879.3336191.48197334.615.565.01 0 1.128.5 2.983 3.445.6427898 1.03404673 1.1489973 2.1469637 1.506 3.311-1.379 1.642-1.775 3.642-2.333 6.546-.2 1.041-.425 2.213-.73 3.545-.3244369 1.3415996-.813127 2.6380557-1.455 3.86-1.239-9.658-6.667-11.801-11.239-11.801-1.6837302-.1013255-3.3496936.390891-4.708 1.391-.543445.4304977-1.1877849.71515-1.872.827-.0711364-.5615756-.1749795-1.1185221-.311-1.668h.033c2.149 0 6.136-.388 9-2.95 3.18-2.85 3.884-7.475 4.04-9.332.0382222-.48118367-.1213966-.95715086-.442-1.318-.3174374-.35759594-.7671743-.57000182-1.245-.588-1.842-.069-6.474.081-9.659 2.935-1.8872441 1.84030313-3.1623052 4.21690252-3.652 6.807-.8923701-1.36175243-2.0271838-2.54808689-3.348-3.5-.2895638-.20935765-.6688227-.24833167-.9949136-.10224092-.3260909.14609076-.5494729.45505162-.586.81050002-.0365272.3554484.1193498.70338327.4089136.9127409 2.5720331 1.91573069 4.2728983 4.7789437 4.725 7.954-.6120394-.1352551-1.1862733-.4051212-1.681-.79-1.3585721-.9993988-3.0245118-1.4909006-4.708-1.389-5.246 0-11.5 2.807-11.5 16.18 0 5.412 1.56 8.97 3.4 11.286-.422-.08-.816-.157-1.157-.226l-.648-.14c-2.208-.48-3.667-.8-5.576.4-1.081.68-1.849 2.378.631 6.6 2.15928304 3.478122 5.01024167 6.4754407 8.376 8.806 3.7360188 2.2846345 8.0400697 3.4705966 12.419 3.422 6.174 0 12.9-2.13 19.586-6.337 11.755-7.394 17.969-16.607 17.969-26.641 0-8.88-2.941-12.758-6.025-15.878-.764-4.963-3.95-10.09-4.118-10.356zm-22.187 3.67c2.511-2.248 6.249-2.475 7.992-2.436-.175 1.751-.84 5.5-3.358 7.759-2.5 2.241-6.241 2.459-7.992 2.431.174-1.744.838-5.496 3.358-7.754zm16.851-.909c.9233938-1.14113074 2.4093342-1.6671034 3.845-1.361.861 1.46 4.154 7.379 3.745 11.705-.7047261.3599047-1.5246111.4211708-2.275.17-.2767031-2.4537161-1.0936121-4.81564859-2.392-6.916-.7820029-1.34355358-1.7681094-2.55737884-2.923-3.598zm-37.521 26.303c0-9.409 3.2-14.18 9.5-14.18 1.2830986-.1022478 2.5589244.2715293 3.584 1.05 1.1219232.8541835 2.5071612 1.2892813 3.916 1.23 1.4088388.0592813 2.7940768-.3758165 3.916-1.23 1.0250756-.7784707 2.3009014-1.1522478 3.584-1.05 5.96 0 9.14 4.282 9.464 12.715-2.5315509 3.4773471-5.6941152 6.4479119-9.323 8.757-5.8596084 3.5688375-12.7059541 5.1727764-19.541 4.578-.126-.015-.23-.032-.351-.048-3.144-2.481-4.749-6.452-4.749-11.822zm-4.918 13.017c1.137-.716 1.906-.612 3.7-.225-.77295848 1.2228495-1.77582002 2.2841236-2.953 3.125-1.039-2.054-.845-2.839-.747-2.9zm38.884 9.1c-10.9 6.856-21.794 7.915-29.888 2.908-2.84334134-1.9901587-5.29391993-4.48922-7.228-7.371 2.1-1.631 3.417-3.12 3.927-4.449 1.055.2 2.386.439 4.082.645 7.2896259.6421751 14.59368-1.0624312 20.846-4.865 5.166-3.249 11.785-9.593 13.439-16.778.311-1.359.541-2.555.745-3.616.2135184-1.3577807.5386197-2.6956458.972-4 .018.188.023.3.023.3.0104059.3216554.1739249.6189627.44.8.7386538.4470651 1.5866047.6810303 2.45.676.995811-.0090549 1.9679223-.3048544 2.8-.852.2428775-.1525226.4085786-.4019846.455-.685.026-.155.031-.316.048-.474 2.209 2.656 3.923 6.145 3.923 12.814 0 9.312-5.891 17.938-17.034 24.948z"/><path id="Shape" d="m52.726 18.634c-.2570284.0657186-.4774085.2308789-.6126318.4591269-.1352234.2282481-.1742063.5008753-.1083682.7578731.381 1.491 3.227 14.884-14.036 25.743-16.45 10.345-26.133 1.685-26.537 1.311-.4039963-.3769343-1.0370656-.3549963-1.414.049-.3769343.4039963-.35499627 1.0370657.049 1.414 3.5903628 2.8361127 8.0589144 4.3284597 12.633 4.219 4.45 0 9.958-1.291 16.331-5.3 18.469-11.613 15.329-26.296 14.911-27.932-.1368702-.5347532-.6811441-.8574682-1.216-.721z"/></g></g></svg>