<svg height="512" viewBox="0 0 60 60" width="512" xmlns="http://www.w3.org/2000/svg"><g id="Page-1" fill="none" fill-rule="evenodd"><g id="010---Egg" fill="rgb(0,0,0)" fill-rule="nonzero"><path id="Shape" d="m13 60c5.841 0 11.029-1.664 16.522-3.425 4.4503683-1.5384839 9.0107027-2.7382377 13.642-3.589 11.172-1.861 16.836-9.595 16.836-22.986 0-29.158-17.056-30-19-30-5.08 0-10.333 0-18.6 6.2-1.622 1.216-3.5 2.354-5.5 3.558-7.529 4.548-16.9 10.208-16.9 24.242 0 17.244 2.011 26 13 26zm4.936-48.53c2.038-1.231 3.964-2.394 5.664-3.67 7.733-5.8 12.429-5.8 17.4-5.8 1.74 0 17 .786 17 28 0 12.267-5.1 19.336-15.164 21.014-4.7273835.8650364-9.3823879 2.0872049-13.925 3.656-5.34 1.713-10.383 3.33-15.911 3.33-8.43 0-11-5.607-11-24 0-12.9 8.466-18.019 15.936-22.53z"/><path id="Shape" d="m5.027 38h.02c.26523381-.0052516.51751175-.1156791.70130867-.3069779.18379692-.1912989.28404903-.4477904.27869133-.7130221-.018-.942-.027-1.9353333-.027-2.98 0-.5522847-.44771525-1-1-1s-1 .4477153-1 1c0 1.058.009 2.0646667.027 3.02.01089134.5444587.45543239.9801089 1 .98z"/><path id="Shape" d="m13 56c5.215 0 9.889-1.5 15.3-3.234.5260512-.1689991.8154991-.7324488.6465-1.2585-.1689992-.5260512-.7324488-.8154991-1.2585-.6465-5.25 1.684-9.788 3.139-14.688 3.139-3.126 0-6.078 0-6.821-12.9-.02054277-.3572656-.23012399-.6764332-.54979646-.8372754-.31967246-.1608423-.70087031-.1389234-1.00000001.0575-.29912969.1964233-.47074631.5375098-.45020353.8947754.721 12.499 3.537 14.785 8.821 14.785z"/><path id="Shape" d="m37 46c7.1797017 0 13-5.8202983 13-13s-5.8202983-13-13-13-13 5.8202983-13 13c.008266 7.1762751 5.8237249 12.991734 13 13zm0-24c6.0751322 0 11 4.9248678 11 11s-4.9248678 11-11 11-11-4.9248678-11-11c.0071635-6.0721626 4.9278374-10.9928365 11-11z"/></g></g></svg>