<svg height="512" viewBox="0 0 36 60" width="512" xmlns="http://www.w3.org/2000/svg"><g id="Page-1" fill="none" fill-rule="evenodd"><g id="011---Boiled-Egg" fill="rgb(0,0,0)" fill-rule="nonzero"><path id="Shape" d="m0 32c.00525139 1.2667854.80564914 2.3937454 2 2.816v.184c.01355203 7.2872318 4.94538814 13.6464234 12 15.473v3.527h-9c-1.65685425 0-3 1.3431458-3 3v2c0 .5522847.44771525 1 1 1h30c.5522847 0 1-.4477153 1-1v-2c0-1.6568542-1.3431458-3-3-3h-9v-3.527c7.0546119-1.8265766 11.986448-8.1857682 12-15.473v-.184c1.3199723-.4606534 2.1429403-1.7762356 1.9797025-3.1647174-.1632378-1.3884819-1.2688839-2.4773252-2.6597025-2.6192826.4636488-1.7662524.6922875-3.5859478.68-5.412 0-10.92-6.989-23.62-16-23.62s-16 12.7-16 23.62c-.01228755 1.8260522.21635119 3.6457476.68 5.412-1.51993439.1602815-2.67515536 1.4396456-2.68 2.968zm32 25v1h-28v-1c0-.5522847.44771525-1 1-1h26c.5522847 0 1 .4477153 1 1zm-12-3h-4v-3.139c1.326893.1853332 2.673107.1853332 4 0zm-2-5c-7.7285595-.0082673-13.99173268-6.2714405-14-14h28c-.0082673 7.7285595-6.2714405 13.9917327-14 14zm0-47c7.755 0 14 11.828 14 21.62.0161131 1.8211099-.2397058 3.6344243-.759 5.38h-26.482c-.51929425-1.7455757-.77511313-3.5588901-.759-5.38 0-9.792 6.245-21.62 14-21.62zm-15 29h30c.5522847 0 1 .4477153 1 1s-.4477153 1-1 1h-30c-.55228475 0-1-.4477153-1-1s.44771525-1 1-1z"/><path id="Shape" d="m8.59 14.913c.24565019.1024689.52201528.1027786.76789457.0008607.24587928-.1019179.44098291-.2976532.54210543-.5438607 2.061-5.007 5.318-8.37 8.1-8.37.5522847 0 1-.44771525 1-1s-.4477153-1-1-1c-3.638 0-7.545 3.771-9.953 9.607-.10121358.2451895-.10086388.5205467.00097216.7654783s.29681381.4393676.54202784.5405217z"/></g></g></svg>