<svg height="512" viewBox="0 0 60 56" width="512" xmlns="http://www.w3.org/2000/svg"><g id="Page-1" fill="none" fill-rule="evenodd"><g id="012---Orange-Juice" fill="rgb(0,0,0)" fill-rule="nonzero"><path id="Shape" d="m0 38c-.00351675 6.3321448 3.32223187 12.1998572 8.75675332 15.4497875 5.43452148 3.2499303 12.17744998 3.4034472 17.75424668.4042125.9363645 1.3493811 2.4765708 2.151829 4.119 2.146h20.74c2.62508-.0007803 4.8116334-2.013018 5.03-4.629l3.59-48.144c.0627661-.82973888-.2219102-1.6482738-.786-2.26-.5747471-.6173802-1.3805002-.96772338-2.224-.967h-31.96c-.8424566.00010998-1.6469637.35038389-2.221.967-.5641966.61085793-.848933 1.42884096-.786 2.258l1.315 17.581c-3.2515878-1.014589-6.7263778-1.07256-10.01-.167-.2533333-.2453333-.5306667-.4876667-.832-.727 1.258-1.387 3.514-4.366 3.514-7.912 0-4.81-4.156-8.586-4.333-8.745-.3797036-.33992305-.9542964-.33992305-1.334 0-.177.159-4.333 3.935-4.333 8.745.05825775 1.9942674.66968024 3.9330929 1.766 5.6-1.55531356-.4090027-3.15784331-.6107479-4.766-.6-.55228475 0-1 .4477153-1 1s.44771525 1 1 1c2.89018969-.1361351 5.74245633.7015862 8.1 2.379-6.71447261 2.7934669-11.09219828 9.3486181-11.1 16.621zm11-32.57c1.058 1.17 3 3.714 3 6.57s-1.942 5.4-3 6.57c-1.058-1.17-3-3.714-3-6.57s1.942-5.4 3-6.57zm40.37 48.57h-20.74c-.9491038.0052005-1.8451402-.4372591-2.418-1.194.3686667-.256.7276667-.5246667 1.077-.806h23.811c.391242-.0031415.7814355-.0409561 1.166-.113-.4058489 1.2571909-1.5749268 2.1101818-2.896 2.113zm-27.103-51.675c.1942551-.20922482.4675085-.32716286.753-.325h31.96c.2854915-.00216286.5587449.11577518.753.325.1887271.20244753.2831547.47519792.26.751l-.74 9.924h-32.5l-.742-9.927c-.0237384-.27425003.0692005-.54580572.256-.748zm.633 12.675h32.2l-2.59 34.745c-.4525332.1628783-.9290838.249063-1.41.255h-21.722c3.8455302-4.2609074 5.4202846-10.104523 4.2364736-15.7207517-1.183811-5.6162288-4.9832707-10.3270462-10.2214736-12.6732483zm-12.2 7.923c.5837245.699419 1.0375471 1.4976727 1.34 2.357.1244444.4266667.5155556.72.96.72.0930562.0001628.1856584-.0129699.275-.039.5305869-.152078.8376249-.7052834.686-1.236-.2840531-.8522715-.6917366-1.6582045-1.21-2.392 8.5277595-1.8469922 16.9835935 3.4022992 19.1116394 11.8643015 2.1280459 8.4620022-2.8386878 17.0868352-11.2256727 19.4936061-8.3869849 2.406771-17.17137848-2.2719699-19.85424068-10.5747594-2.68286219-8.3027895 1.70276591-17.2371307 9.91227398-20.1931482z"/><circle id="Oval" cx="5" cy="38" r="1"/><circle id="Oval" cx="7" cy="33" r="1"/><circle id="Oval" cx="9" cy="37" r="1"/><circle id="Oval" cx="8" cy="42" r="1"/><circle id="Oval" cx="9" cy="47" r="1"/><circle id="Oval" cx="12" cy="44" r="1"/><circle id="Oval" cx="13" cy="40" r="1"/><circle id="Oval" cx="13" cy="50" r="1"/><circle id="Oval" cx="16" cy="47" r="1"/></g></g></svg>