<svg height="512" viewBox="0 0 52 60" width="512" xmlns="http://www.w3.org/2000/svg"><g id="Page-1" fill="none" fill-rule="evenodd"><g id="013---Cheese-on-Toast" fill="rgb(0,0,0)" fill-rule="nonzero" transform="translate(-1)"><path id="Shape" d="m41 55c1.6568542 0 3-1.3431458 3-3v-2h1c1.6568542 0 3-1.3431458 3-3v-32l.008-3.084c3.0927848-.5476354 5.2514048-3.37191689 4.968-6.5-.4481661-3.08167248-3.0721293-5.37901889-6.186-5.416h-39.58c-3.11419804.03705667-5.73827976 2.33493101-6.186 5.417-.28449641 3.12967994 1.87997977 5.9540256 4.976 6.493v35.09c0 1.6568542 1.34314575 3 3 3h6v7c0 1.6568542 1.3431458 3 3 3s3-1.3431458 3-3v-3c0-.5522847.4477153-1 1-1s1 .4477153 1 1v1c0 1.6568542 1.3431458 3 3 3s3-1.3431458 3-3v-5h9v2c0 .7956495.3160705 1.5587112.8786797 2.1213203.5626091.5626092 1.3256708.8786797 2.1213203.8786797zm4-7h-1v-3.371c.7155236-.1676397 1.3936897-.466711 2-.882v3.253c0 .5522847-.4477153 1-1 1zm1-15.828c-1-2.366-2-4.8-2-7.172.0619949-1.9825883.7635786-3.8919481 2-5.443zm4.984-26.572c.2157441 2.09345736-1.2323866 3.99423836-3.308 4.342-.3994602.0671997-.7690994.2541116-1.06.536-.398592-.76559333-.6097151-1.61488401-.616-2.478.1351184-2.17067624-.5517526-4.31268571-1.924-6h2.714c2.0838001.03006809 3.8484903 1.54482365 4.194 3.6zm-47.968 0c.34513679-2.05538689 2.11004834-3.57033243 4.194-3.6h14.34l-.077.056c-1.5178289 1.30825596-3.469999 2.00166337-5.473 1.944-2.255 0-3.844.519-4.857 1.587-1.343 1.413-1.238 3.387-1.17 4.694.014.259.027.5.027.719 0 1.867-1.02 4.617-2 7.056v-6.146c.00085112-.9765722-.7070563-1.8094543-1.671-1.966-2.07690724-.34446917-3.52781597-2.24470852-3.313-4.339zm5.984 42.4c-.55228475 0-1-.4477153-1-1v-17c.56648035.701446 1.17775749 1.3655001 1.83 1.988 1.429 1.41 2.778 2.743 3.184 5.173.168 1.012.278 1.852.372 2.558.278 2.1.444 3.347 1.614 4.352v3.929zm19 0c-.5522847 0-1 .4477153-1 1v6c0 .5522847-.4477153 1-1 1s-1-.4477153-1-1v-1c0-1.6568542-1.3431458-2.9999999-3-2.9999999s-3 1.3431457-3 2.9999999v3c0 .5522847-.4477153 1-1 1s-1-.4477153-1-1v-13.42c.0000611-.3317303-.1643884-.6418993-.439-.828-.8-.543-.894-1.039-1.192-3.293-.1-.724-.21-1.584-.383-2.624-.511-3.069-2.232-4.768-3.751-6.267-1.735-1.714-3.235-3.194-3.235-6.568.32138005-1.4184438.79652339-2.7976002 1.417-4.113 1.21-2.976 2.583-6.348 2.583-8.887 0-.249-.014-.526-.029-.823-.06-1.136-.127-2.424.622-3.213.607-.64 1.754-.964 3.407-.964 2.4275034.06304757 4.7939822-.76550462 6.652-2.329 1.1915598-1.07757927 2.741455-1.67322665 4.348-1.671h12c3.318 0 5 2.019 5 6 .0267533 1.38755324.4052356 2.7456165 1.1 3.947.557526.9233492.8675074 1.9748752.9 3.053-.1714064 1.1597466-.674235 2.245273-1.448 3.126-1.5720945 1.9548112-2.4675853 4.3668817-2.552 6.874 0 2.842 1.142 5.545 2.246 8.16.902 2.14 1.754 4.154 1.754 5.84 0 2.52-.767 3.448-3.155 3.822-.4865232.0763336-.8450421.495525-.845.988v8.19c0 .5522847-.4477153 1-1 1s-1-.4477153-1-1v-7.92c-.0001254-.2904472-.1265242-.5664897-.3463284-.7563468s-.5112939-.2747681-.7986716-.2326532c-1.8995154.3884985-3.6687896 1.2543794-5.141 2.516-1.69 1.23-3.285 2.393-5.714 2.393zm5.8 0c.377-.258.741-.52 1.093-.777.9443444-.7611633 1.9900453-1.3871702 3.107-1.86v2.637z"/><path id="Shape" d="m35 13c1.6568542 0 3-1.3431458 3-3 0-1.65685425-1.3431458-3-3-3s-3 1.34314575-3 3c0 1.6568542 1.3431458 3 3 3zm0-4c.5522847 0 1 .44771525 1 1 0 .5522847-.4477153 1-1 1s-1-.4477153-1-1c0-.55228475.4477153-1 1-1z"/><path id="Shape" d="m15 19c-1.6568542 0-3 1.3431458-3 3s1.3431458 3 3 3 3-1.3431458 3-3-1.3431458-3-3-3zm0 4c-.5522847 0-1-.4477153-1-1s.4477153-1 1-1 1 .4477153 1 1-.4477153 1-1 1z"/><path id="Shape" d="m33 25c0-1.6568542-1.3431458-3-3-3s-3 1.3431458-3 3 1.3431458 3 3 3 3-1.3431458 3-3zm-4 0c0-.5522847.4477153-1 1-1s1 .4477153 1 1-.4477153 1-1 1-1-.4477153-1-1z"/><path id="Shape" d="m31 37c-1.6568542 0-3 1.3431458-3 3s1.3431458 3 3 3 3-1.3431458 3-3-1.3431458-3-3-3zm0 4c-.5522847 0-1-.4477153-1-1s.4477153-1 1-1 1 .4477153 1 1-.4477153 1-1 1z"/><circle id="Oval" cx="23" cy="11" r="1"/><circle id="Oval" cx="37" cy="19" r="1"/><circle id="Oval" cx="38" cy="33" r="1"/><circle id="Oval" cx="21" cy="39" r="1"/><circle id="Oval" cx="25" cy="30" r="1"/><circle id="Oval" cx="18" cy="15" r="1"/></g></g></svg>