<svg height="512" viewBox="0 0 60 60" width="512" xmlns="http://www.w3.org/2000/svg"><g id="Page-1" fill="none" fill-rule="evenodd"><g id="014---Coffee-Machine" fill="rgb(0,0,0)" fill-rule="nonzero"><path id="Shape" d="m57 0h-54c-1.65685425 0-3 1.34314575-3 3v4c0 1.65685425 1.34314575 3 3 3h.532l4.1 4.92c.56925174.6851796 1.41420402 1.0810792 2.305 1.08h6.445l1.447 2.9c.3385618.6771006 1.0319813 1.1034625 1.789 1.1h.764c.7570187.0034625 1.4504382-.4228994 1.789-1.1l1.447-2.9h6.445c.890796.0010792 1.7357483-.3948204 2.305-1.08l4.1-4.92h2.532c.5522847 0 1 .4477153 1 1v38c0 .5522847-.4477153 1-1 1h-8.565c2.757368-2.439444 4.3823958-5.911134 4.4894225-9.5911491.1070268-3.6800151-1.313489-7.2402793-3.9244225-9.8358509v-3.449l.97-3.881c.0748476-.2987824.0078292-.6153864-.1816655-.8582132-.1894947-.2428267-.4803198-.3847787-.7883345-.3847868h-22c-.30801473.0000081-.59883979.1419601-.78833451.3847868-.18949472.2428268-.25651307.5594308-.18166549.8582132l.189.757h-2.219c-.94309168.0049703-1.83016879.4485088-2.4 1.2l-3 4c-.64307808.8574374-.77986931 1.9928203-.35884576 2.978461.42102355.9856406 1.33589839 1.6717968 2.40000002 1.8s2.11576768-.3210236 2.75884574-1.178461l2.1-2.8h1.5v.5c-2.64234694 2.5892822-4.08930173 6.1605375-3.99447365 9.8588327.09482808 3.6982951 1.72290245 7.1907035 4.49447365 9.6411673h-6.5c-1.65685425 0-3 1.3431458-3 3v4c0 1.6568542 1.34314575 3 3 3h54c1.6568542 0 3-1.3431458 3-3v-54c0-1.65685425-1.3431458-3-3-3zm-36.618 18h-.764l-1-2h2.764zm10.449-4.36c-.1899089.2280019-.4712674.3598887-.768.36h-20.126c-.29708249.0001857-.57886723-.1317292-.769-.36l-3.033-3.64h27.73zm-1.831 16.327-18-.067v-1.9h18zm.719-5.967-.5 2h-18.438l-.5-2zm-22.719 4c-.3147573 0-.61114562.1481942-.8.4l-2.4 3.2c-.33966756.4275915-.95419352.5153809-1.4.2-.4418278-.3313708-.53137085-.9581722-.2-1.4l3-3.995c.18954839-.2516167.48499992-.4011891.8-.405h2.719l.281 1.124v.876zm3.308 4h19.312c2.1138698 2.1266735 3.3033197 5.0014768 3.31 8h-25.93c.00787731-2.9978926 1.19633112-5.8720252 3.308-8zm-3.108 10h25.529c-.6310497 3.3471889-2.6709872 6.2613853-5.6 8h-14.314c-2.93553801-1.7345606-4.98156637-4.6496499-5.615-8zm50.8 15c0 .5522847-.4477153 1-1 1h-54c-.55228475 0-1-.4477153-1-1v-4c0-.5522847.44771525-1 1-1h36c1.6568542 0 3-1.3431458 3-3v-38c0-1.65685425-1.3431458-3-3-3h-36c-.55228475 0-1-.44771525-1-1v-4c0-.55228475.44771525-1 1-1h54c.5522847 0 1 .44771525 1 1z"/><path id="Shape" d="m50 8c-2.209139 0-4 1.790861-4 4v26c0 2.209139 1.790861 4 4 4s4-1.790861 4-4v-26c0-2.209139-1.790861-4-4-4zm2 30c0 1.1045695-.8954305 2-2 2s-2-.8954305-2-2h1c.5522847 0 1-.4477153 1-1s-.4477153-1-1-1h-1v-2h1c.5522847 0 1-.4477153 1-1s-.4477153-1-1-1h-1v-2h1c.5522847 0 1-.4477153 1-1s-.4477153-1-1-1h-1v-2h1c.5522847 0 1-.4477153 1-1s-.4477153-1-1-1h-1v-2h1c.5522847 0 1-.4477153 1-1s-.4477153-1-1-1h-1v-2h1c.5522847 0 1-.4477153 1-1s-.4477153-1-1-1h-1v-2h1c.5522847 0 1-.4477153 1-1s-.4477153-1-1-1h-1c0-1.1045695.8954305-2 2-2s2 .8954305 2 2z"/><path id="Shape" d="m50 44c-2.209139 0-4 1.790861-4 4s1.790861 4 4 4 4-1.790861 4-4-1.790861-4-4-4zm0 6c-1.1045695 0-2-.8954305-2-2s.8954305-2 2-2 2 .8954305 2 2-.8954305 2-2 2z"/></g></g></svg>