<svg height="512" viewBox="0 0 60 60" width="512" xmlns="http://www.w3.org/2000/svg"><g id="Page-1" fill="none" fill-rule="evenodd"><g id="015---Muffin" fill="rgb(0,0,0)" fill-rule="nonzero"><path id="Shape" d="m8.808 38h1.357l3.552 19.537c.2595316 1.4264803 1.5021026 2.4632188 2.952 2.463h26.662c1.4498974.0002188 2.6924684-1.0365197 2.952-2.463l3.551-19.537h1.358c5.433 0 8.808-2.682 8.808-7 0-4.437-2.764-7.524-6.98-7.95-.02-2.81-.578-10.816-6.072-16.66-3.985-4.24-9.688-6.39-16.948-6.39s-12.963 2.15-16.948 6.39c-5.494 5.844-6.052 13.85-6.071 16.66-4.217.426-6.981 3.513-6.981 7.95 0 4.318 3.375 7 8.808 7zm35.507 19.179c-.0865105.4754934-.5007009.8210729-.984.821h-1.151l2.806-16.835c.0766956-.5374655-.2894592-1.037947-.8249237-1.1275532-.5354644-.0896061-1.0446116.2643999-1.1470763.7975532l-2.861 17.165h-2.036l1.877-16.89c.0607513-.548971-.335029-1.0432487-.884-1.104s-1.0432487.335029-1.104.884l-1.906 17.11h-2.043l.943-16.944c.0200069-.3572656-.1521049-.6980662-.4515026-.8940254-.2993976-.1959593-.6805955-.2173064-1-.056-.3194045.1613063-.5284905.4807598-.5484974.8380254l-.946 17.056h-1.054v-17c0-.5522847-.4477153-1-1-1s-1 .4477153-1 1v17h-1.054l-.946-17.056c-.0200069-.3572656-.2290929-.6767191-.5484974-.8380254-.3194045-.1613064-.7006024-.1399593-1 .056-.2993977.1959592-.4715095.5367598-.4515026.8940254l.943 16.944h-2.043l-1.9-17.11c-.0607513-.548971-.555029-.9447513-1.104-.884s-.9447513.555029-.884 1.104l1.871 16.89h-2.036l-2.861-17.165c-.1024647-.5331533-.6116119-.8871593-1.1470763-.7975532-.5354645.0896062-.9016193.5900877-.8249237 1.1275532l2.806 16.835h-1.151c-.4832991.0000729-.8974895-.3455066-.984-.821l-3.485-19.179h35.6zm-36.315-32.179c.27613177.0005143.54018586-.1131743.72957889-.3141203s.28726566-.4712617.27042111-.7468797c-.006-.1-.512-9.784 5.522-16.191 3.405-3.618 8.285-5.523 14.478-5.711v2.963c0 .55228475.4477153 1 1 1s1-.44771525 1-1v-2.963c6.193.188 11.073 2.093 14.48 5.711 6.035 6.407 5.528 16.094 5.52 16.191-.0168445.275618.0810281.5459337.2704211.7468797s.4534471.3146346.7295789.3141203c3.7 0 6 2.3 6 6 0 4.64-5.211 5-6.808 5h-42.384c-1.598 0-6.808-.36-6.808-5 0-3.7 2.3-6 6-6z"/><path id="Shape" d="m19.956 28.249c.3773981-.0032116.7534322-.0457752 1.122-.127 1.782-.38 2.951-1.1 3.472-2.126.4111485-.869231.3937718-1.8804089-.047-2.735-.6143547-1.2560167-1.8323179-2.1070415-3.223-2.252-.978-.071-2.406.253-3.648 2.2-.789246 1.1635823-.8386694 2.6774161-.127 3.89.5665506.7772911 1.4910885 1.2110807 2.451 1.15zm-.638-3.968c.543-.85 1.123-1.281 1.726-1.281h.092c.6569179.0958654 1.2298201.4967115 1.545 1.081.1799425.3060203.2112104.6771888.085 1.009-.133.261-.582.748-2.1 1.073-.444.095-1.234.193-1.513-.21-.2380801-.5483285-.1756666-1.1807847.165-1.672z"/><path id="Shape" d="m37.209 28.951c.2752061.0317485.5519701.0481072.829.049 1.3903299.1231639 2.7323257-.5435848 3.474-1.726.773358-1.6158357.5804672-3.528155-.5-4.957-1.708-2.333-3.484-2.611-4.677-2.437-1.7918502.3597496-3.2741877 1.6129607-3.927 3.32-.4800974 1.1448249-.3983637 2.4481254.221 3.524.764 1.218 2.305 1.967 4.58 2.227zm-2.915-5.089c.407332-1.0047695 1.2760001-1.7500875 2.331-2 .09402-.0139877.1889452-.0210069.284-.021 1.0477822.1230333 1.9735855.739616 2.491 1.659.6062203.7918005.7530884 1.8434062.387 2.771-.432.745-1.513.787-2.346.693-1.618-.184-2.693-.634-3.112-1.3-.2891023-.563086-.302019-1.2281126-.035-1.802z"/><path id="Shape" d="m40.26 15h.121c1.3541279-.0831221 2.5714513-.853666 3.226-2.042.460922-.8107518.5185755-1.7897523.156-2.649-.471-1.049-1.607-1.818-3.377-2.286-2.148-.569-3.176.282-3.6.841-.7409989 1.1646118-.7390483 2.653334.005 3.816.632022 1.3607543 1.9700157 2.2555786 3.469 2.32zm-1.873-4.935c.286-.379 1.135-.2 1.488-.111.8133859.1090848 1.552837.5291705 2.063 1.172.1040925.3112468.0614311.6529058-.116.929-.3279362.534663-.8877016.8845164-1.512.945-.63.015-1.251-.429-1.8-1.345-.309936-.4741844-.3563206-1.07379-.123-1.59z"/><path id="Shape" d="m24.482 16.621c.1964903.0001101.3925994-.0172921.586-.052 1.417-.25 2.69-1.4 3.785-3.407 1.308-2.4.6-3.923.063-4.617-1.2074331-1.32382197-3.0523166-1.86382549-4.783-1.4-2.8.707-3.732 2.25-4.016 3.42-.3388322 1.794315.2650029 3.6371443 1.6 4.883.7452548.7189339 1.7301297 1.1367488 2.765 1.173zm-2.421-5.581c.224-.924 1.085-1.581 2.561-1.952.9615224-.26485084 1.991498-.00555363 2.713.683.528.68.162 1.7-.239 2.435-.778 1.429-1.6 2.257-2.376 2.394-.6294549.0537776-1.2485472-.1856687-1.678-.649-.7799961-.7536571-1.1457432-1.838968-.981-2.911z"/><path id="Shape" d="m10 34h40c.5522847 0 1-.4477153 1-1s-.4477153-1-1-1h-40c-.55228475 0-1 .4477153-1 1s.44771525 1 1 1z"/></g></g></svg>