<svg height="512" viewBox="0 0 60 46" width="512" xmlns="http://www.w3.org/2000/svg"><g id="Page-1" fill="none" fill-rule="evenodd"><g id="016---Omelette" fill="rgb(0,0,0)" fill-rule="nonzero"><path id="Shape" d="m55 0h-50c-2.76005315.00330612-4.99669388 2.23994685-5 5v6c.00326826 2.7186909.37704101 5.4242538 1.111 8.042-.51678297 1.0987493-.87598852 2.2649048-1.067 3.464-.13236843.7838423.05295839 1.5881247.515 2.235.45591316.6463866 1.15172024 1.0832468 1.932 1.213.16792908.0306752.33829223.0460715.509.046.31690346-.0021156.63147025-.0544309.932-.155.432.764.90233333 1.5113333 1.411 2.242-.71977066.1551027-1.35585989.5729819-1.784 1.172-.65158629.9143674-.73805451 2.1160416-.2240924 3.1142777.5139621.9982361 1.54231381 1.6259227 2.6650924 1.6267223.16561162.0002416.33092085-.0141476.494-.043 1.09217455-.1868836 2.16101744-.4909741 3.188-.907 1.6527817 1.5274702 3.472625 2.8635875 5.425 3.983-.03.213-.067.42-.091.638-.0888882.7912154.141463 1.5852072.64 2.206.4891006.6159974 1.2034001 1.0118309 1.985 1.1.118968.0161888.2389388.023875.359.023 1.0774594-.0042376 2.0698942-.5859571 2.6-1.524 1.7311827.5733682 3.5123104.9831615 5.32 1.224-.0958097.1731516-.2023508.340144-.319.5-.6430781.8574374-.7798693 1.9928203-.3588458 2.978461.4210236.9856407 1.3358984 1.6717968 2.4000001 1.8 1.0641016.1282033 2.1157676-.3210236 2.7588457-1.178461.8502845-1.181753 1.4859783-2.5039148 1.878-3.906 2.694371-.1974498 5.348849-.7640794 7.889-1.684 1.0275762.9139572 2.1476293 1.7183041 3.342 2.4.4539103.2583211.9677391.3928132 1.49.39 1.362665.0018562 2.5554142-.9149104 2.9041684-2.2321916.3487543-1.3172813-.2341017-2.7041448-1.4191684-3.3768084-.09-.052-.166-.11-.253-.162.637-.41 1.266-.846 1.881-1.313.043.092.089.177.13.272.423717.9853385 1.3409195 1.6697785 2.4061061 1.7954981 1.0651867.1257195 2.1165304-.3263811 2.758-1.186.6414697-.859619.7756109-1.9961596.3518939-2.9814981-.3206307-.7399417-.6984413-1.4537696-1.13-2.135 1.0349256-1.184004 1.9742103-2.4483099 2.809-3.781.5182796.0636736 1.0398319.0970636 1.562.1 1.4192318-.00167 2.6431183-.9976307 2.9331559-2.3869111.2900377-1.3892804-.4331376-2.7917258-1.7331559-3.3610889 1.1955657-3.285601 1.8048197-6.7556408 1.8-10.252v-6c-.0033061-2.76005315-2.2399468-4.99669388-5-5zm3 5v6c.0031944 3.401607-.6170513 6.7749982-1.83 9.953-1.4200545-.1811514-2.7816184-.6776011-3.985-1.453 1.8514769-3.5504287 2.8172386-7.495814 2.815-11.5v-6c1.6568542 0 3 1.34314575 3 3zm-43.8-3c-1.4288206 1.26505119-2.2326373 3.09190731-2.2 5 0 3.035 1.91 4.309 3.445 5.332 1.428.952 2.555 1.703 2.555 3.668 0 3.793-1.815 3.99-2 4-.5522847 0-1 .4477153-1 1s.4477153 1 1 1c.04 0 4-.069 4-6 0-3.035-1.91-4.309-3.445-5.332-1.428-.952-2.555-1.703-2.555-3.668 0-2.918 2.241-4.325 4.18-5h24.187c-.9399339 1.11542117-1.4276789 2.54261943-1.367 4 0 .55228475.4477153 1 1 1s1-.44771525 1-1c-.0423968-1.07330239.3653996-2.11553789 1.1249308-2.87506916.7595313-.75953127 1.8017668-1.16732767 2.8750692-1.12493084h6v6c0 12.7025492-10.2974508 23-23 23s-23-10.2974508-23-23v-6zm-6.8 25.5c-.68335973-.9290576-1.30470789-1.902169-1.86-2.913.20883458-.3314337.35020248-.7008253.416-1.087.17706845-1.4426713.89727137-2.7636393 2.014-3.694.95074698 1.764905 2.1089552 3.4098965 3.45 4.9-1.1137667 1.2184782-2.48544354 2.173015-4.015 2.794zm-5.4-16.5v-6c0-1.65685425 1.34314575-3 3-3v6c-.00043043 2.0529142.25248084 4.098036.753 6.089-1.20349433.6728028-2.2724134 1.5620431-3.153 2.623-.39583901-1.8783096-.59690272-3.792436-.6-5.712zm.833 12.983c-.25979897-.0418243-.49206155-.1858631-.645-.4-.15445801-.2169377-.2160057-.4865238-.171-.749.3454306-2.7929276 1.9356588-5.2797269 4.326-6.765.22333333.6506667.47133333 1.2893333.744 1.916-1.70535658 1.225768-2.82746233 3.1025804-3.1 5.185-.07858199.4826174-.49805639.8353669-.987.83-.05610129.000054-.11206037-.0056424-.167-.017zm3.318 8c-.25910239.0426337-.52450779-.0198456-.73738123-.1735875-.21287343-.153742-.35562831-.3860451-.39661877-.6454125-.0450057-.2624762.01654199-.5320623.171-.749.15395173-.2144804.38726842-.358503.648-.4 2.69049669-.4922968 5.1443069-1.8560713 6.983-3.881.4846667.46.9866667.9003333 1.506 1.321-2.1437476 2.3788535-5.0206128 3.9735533-8.174 4.531zm5.489.139c1.6090152-.9190124 3.0606839-2.0894625 4.3-3.467.6313333.4306667 1.2826667.8306667 1.954 1.2-1.1408405 1.5139405-1.9559414 3.2476472-2.394 5.092-1.3651744-.8282899-2.6565978-1.7724342-3.86-2.822zm6.36 6.878h-.111c-.2655074-.0278786-.5088446-.1607644-.6758237-.3690656-.166979-.2083012-.2437353-.4747221-.2131763-.7399344.1795545-2.5875587 1.1261737-5.0629035 2.719-7.11.6373333.288 1.2873333.5506667 1.95.788-1.16 1.136-2.3 3.109-2.676 6.534-.0570348.5068355-.482994.8916143-.993.897zm3.091-1.467c.555-3.471 1.989-4.765 2.978-5.25 1.0094979.2467769 2.0335201.429805 3.066.548.1107056 1.9952806-.053159 3.9963123-.487 5.947-1.8907347-.2197632-3.7532373-.6370415-5.557-1.245zm7.709 6.067c-.3380345.43043-.9549665.5185632-1.4.2-.4418278-.3313708-.5313708-.9581722-.2-1.4 1.924-2.565 2.026-7.152 1.943-9.422.285.01.569.022.857.022.385 0 .767-.012 1.148-.029.106 2.721-.073 7.588-2.348 10.629zm4.341-10.8c.72-.091 1.431-.209 2.131-.36.8267081 1.8978516 1.9485873 3.6528972 3.324 5.2-1.8936542.6120631-3.8480653 1.0170946-5.829 1.208.3415303-1.9967155.4669206-4.0244186.374-6.048zm12.73 6.7c-.2850224.4651922-.8819732.629627-1.365.376-3.2023996-1.8127615-5.7481873-4.5934535-7.272-7.943.64-.194 1.267-.416 1.884-.658 1.3641916 2.8900597 3.5916261 5.2855563 6.375 6.856.4783534.2768134.6465465.8859571.378 1.369zm-1.424-4.532c-1.4710983-1.2347763-2.6622104-2.7688359-3.494-4.5.259-.126.515-.258.768-.394 2.1125153.3118594 4.0252717 1.4212223 5.345 3.1-.8368901.6478562-1.7114217 1.2455697-2.619 1.79zm6.952-.045c-.5087854.2056799-1.0894125-.024546-1.319-.523-1.0977839-2.6787379-3.2773349-4.7682008-6-5.752.635-.435 1.251-.9 1.842-1.386 2.7234495 1.2868018 4.8646738 3.5490053 6 6.339.2118737.5081994-.0196149 1.0926861-.522 1.318zm.025-5.9c-1.0965413-1.2973347-2.422241-2.3820288-3.911-3.2.444-.4373333.871-.8906667 1.281-1.36 1.3986111.9053454 2.9272123 1.5919177 4.533 2.036-.5855942.8769972-1.2209693 1.7197123-1.903 2.524zm5.576-4.023c-2.4656125-.0280849-4.8724596-.7563816-6.94-2.1.4-.537.775-1.093 1.132-1.662 1.7362879 1.1120872 3.7464888 1.7219312 5.808 1.762.5522847 0 1 .4477153 1 1s-.4477153 1-1 1z"/><path id="Shape" d="m25.161 8.987c.514-.08 5.046-.662 5.853 4.178.576 3.459 1.822 5.626 3.7 6.44.5100217.2222133 1.0606754.3359538 1.617.334 1.1592202-.0422805 2.2798365-.4275358 3.22-1.107.297245-.1982824.4661283-.5400812.4430332-.8966441s-.2346599-.6737195-.555-.832-.7007882-.1336383-.9980332.0646441c-.8183754.671718-1.915543.8962407-2.932.6-1.185-.513-2.081-2.265-2.527-4.935-.2563664-2.6028437-2.0609991-4.7923488-4.567-5.541-1.1612188-.34498917-2.3822857-.44041165-3.583-.28-.5352348.09935769-.8926671.60859618-.8041873 1.14573638.0884798.53714019.5903628.90482903 1.1291873.82726362z"/><path id="Shape" d="m42 16c.2651948-.0000566.5195073-.1054506.707-.293.7353616-.7226058 1.1930796-1.6808754 1.293-2.707 0-.5522847-.4477153-1-1-1s-1 .4477153-1 1c-.0989749.4952268-.3462539.9486299-.709 1.3-.2812046.2868755-.3634474.7141762-.2088184 1.0849369s.5161103.6130023.9178184.6150631z"/></g></g></svg>