<svg height="512" viewBox="0 0 60 60" width="512" xmlns="http://www.w3.org/2000/svg"><g id="Page-1" fill="none" fill-rule="evenodd"><g id="017---Cereal" fill="rgb(0,0,0)" fill-rule="nonzero"><path id="Shape" d="m57 34c0-2.209139-1.790861-4-4-4 0-2.209139-1.790861-4-4-4-.3963215-.000049-.7902818.0610014-1.168.181-.5054659-.5073123-1.1383308-.8689987-1.832-1.047v-14.023l1.961-8.718c.1177668-.58763755-.0342009-1.197116-.4140728-1.66067208s-.9476052-.73232563-1.5469272-.73232792h-44c-.60339156.00007773-1.17449692.27256458-1.55417216.74152949-.37967524.46896492-.52733329 1.08427583-.40182784 1.67447051l1.956 8.695v43.889c.00330612 2.7600532 2.23994685 4.9966939 5 5h42c1.1045695 0 2-.8954305 2-2v-1c-.0009055-.7739136-.3024524-1.5172036-.841-2.073 4.7548822-2.0603221 7.8346218-6.7449356 7.841-11.927v-3.184c1.3765475-.4848523 2.2026937-1.8918441 1.9553873-3.330178s-1.49595-2.4885874-2.9553873-2.485822zm-10.315-6.066c.2853634.4511756.8747982.5986444 1.339.335.2957148-.1746484.6325658-.2674895.976-.269 1.1045695 0 2 .8954305 2 2-.0030623.3034082-.0766691.6019436-.215.872-.1932238.3849546-.1182434.8503826.1860994 1.1551793.3043427.3047966.7696584.3804706 1.1549006.1878207.2708008-.1382532.5699653-.2118463.874-.215 1.1045695 0 2 .8954305 2 2h-28c0-1.1045695.8954305-2 2-2 .3040347.0031537.6031992.0767468.874.215.3852422.1926499.8505579.1169759 1.1549006-.1878207.3043428-.3047967.3793232-.7702247.1860994-1.1551793-.1383309-.2700564-.2119377-.5685918-.215-.872 0-1.1045695.8954305-2 2-2 .3434342.0015105.6802852.0943516.976.269.4642018.2636444 1.0536366.1161756 1.339-.335.5116759-.819786 1.5397741-1.1513625 2.434-.785.2658007.106338.5644306.0936571.8202597-.0348311.2558292-.1284882.4443216-.3604607.5177403-.6371689.2270674-.8705724 1.0133023-1.4780411 1.913-1.4780411s1.6859326.6074687 1.913 1.4780411c.0734187.2767082.2619111.5086807.5177403.6371689.2558291.1284882.554459.1411691.8202597.0348311.8942259-.3663625 1.9223241-.034786 2.434.785zm-42.685-15.934h40v4.01c-7.641.107-12.938 1.443-16.6 4.19-3.22 2.415-8.468 3.8-14.4 3.8h-9zm42-10-1.8 8h-40.4l-1.8-8zm-39 56c-1.65685425 0-3-1.3431458-3-3v-29h9c3.734 0 10.728-.545 15.6-4.2 3.255-2.441 8.315-3.671 15.4-3.779v6.361c-.8444373-.9835418-2.1164275-1.4920518-3.4061709-1.3617023-1.2897433.1303496-2.4342639.8830874-3.0648291 2.0157023-1.2377671-.1651599-2.4814901.2585422-3.361 1.145-.3777182-.1199986-.7716785-.181049-1.168-.181-2.209139 0-4 1.790861-4 4-2.209139 0-4 1.790861-4 4-1.4594373-.0027654-2.7080809 1.0474881-2.9553873 2.485822s.5788398 2.8453257 1.9553873 3.330178v3.184c.0063782 5.1820644 3.0861178 9.8666779 7.841 11.927-.5385476.5557964-.8400945 1.2990864-.841 2.073v1zm41-2c.5522847 0 1 .4477153 1 1v1h-16v-1c0-.5522847.4477153-1 1-1zm8-13c-.0071635 6.0721626-4.9278374 10.9928365-11 11h-8c-6.0721626-.0071635-10.9928365-4.9278374-11-11v-3h30zm1-5h-32c-.5522847 0-1-.4477153-1-1s.4477153-1 1-1h32c.5522847 0 1 .4477153 1 1s-.4477153 1-1 1z"/><path id="Shape" d="m20 50h-12c-1.1045695 0-2 .8954305-2 2v2c0 1.1045695.8954305 2 2 2h12c1.1045695 0 2-.8954305 2-2v-2c0-1.1045695-.8954305-2-2-2zm0 4h-12v-2h12z"/></g></g></svg>