<svg height="512" viewBox="0 0 60 60" width="512" xmlns="http://www.w3.org/2000/svg"><g id="Page-1" fill="none" fill-rule="evenodd"><g id="018---Breakfast-Biscuit" fill="rgb(0,0,0)" fill-rule="nonzero" transform="translate(0 -1)"><path id="Shape" d="m60 10c.000243-3.77137823-2.3509325-7.14293221-5.8899851-8.44615914s-7.5153096-.26169779-9.9610149 2.60915914c-2.8710391-1.74605283-6.5278375-1.50863472-9.149.594-2.9217401-2.34262893-7.0782599-2.34262893-10 0-2.6211625-2.10263472-6.2779609-2.34005283-9.149-.594-2.1976399-2.57428133-5.6537812-3.69787448-8.94509229-2.90805375-3.29131113.78982072-5.86117636 3.35948343-6.65125648 6.65073229s.33324065 6.74747866 2.90734877 8.94532146c-1.74486948 2.8714661-1.50708719 6.5277185.595 9.149-2.34262893 2.9217401-2.34262893 7.0782599 0 10-2.10366984 2.6201985-2.34345376 6.2765036-.6 9.149-2.56392741 2.2013064-3.67867789 5.653342-2.88644958 8.9384368s3.35790948 5.8495632 6.64337846 6.6402383c3.28546902.7906751 6.73697712-.3257073 8.93707112-2.8906751 2.8710391 1.7460528 6.5278375 1.5086347 9.149-.594 2.9217401 2.3426289 7.0782599 2.3426289 10 0 2.6211625 2.1026347 6.2779609 2.3400528 9.149.594 2.1976399 2.5742813 5.6537812 3.6978745 8.9450923 2.9080538 3.2913111-.7898208 5.8611764-3.3594835 6.6512565-6.6507323.7900801-3.2912489-.3332407-6.7474787-2.9073488-8.9453215 1.7448695-2.8714661 1.5070872-6.5277185-.595-9.149 2.3426289-2.9217401 2.3426289-7.0782599 0-10 2.1020872-2.6212815 2.3398695-6.2775339.595-9.149 2.0066311-1.7102634 3.1623944-4.2144171 3.162-6.851zm-5.091 5.808c-.2312504.1563133-.3866457.4021636-.4286176.6781146s.0332998.5568856.2076176.7748854c1.9229694 2.4040242 1.7097718 5.8744326-.493 8.025-.1917896.1880682-.2998543.4453871-.2998543.714s.1080647.5259318.2998543.714c1.1542646 1.1273236 1.8050371 2.6725611 1.8050371 4.286s-.6507725 3.1586764-1.8050371 4.286c-.1917896.1880682-.2998543.4453871-.2998543.714s.1080647.5259318.2998543.714c2.2027718 2.1505674 2.4159694 5.6209758.493 8.025-.1743178.2179998-.2495895.4989344-.2076176.7748854s.1973672.5218013.4286176.6781146c2.3420263 1.5786114 3.5059222 4.4100443 2.9511848 7.1794067-.5547373 2.7693623-2.7194158 4.9340408-5.4887781 5.4887781-2.7693624.5547374-5.6007953-.6091585-7.1794067-2.9511848-.155787-.231513-.4012223-.3874026-.677-.43-.0503588-.0071073-.1011426-.0107825-.152-.011-.2268173.0001205-.4468557.0773455-.624.219-2.4031498 1.9240488-5.873919 1.7112349-8.024-.492-.3994245-.3837644-1.0305755-.3837644-1.43 0-1.1269779 1.1541484-2.6718858 1.8048757-4.285 1.8048757s-3.1580221-.6507273-4.285-1.8048757c-.3994245-.3837644-1.0305755-.3837644-1.43 0-2.150081 2.2032349-5.6208502 2.4160488-8.024.492-.2181279-.1742195-.4991507-.249329-.7751117-.2071657-.2759609.0421634-.5217347.1977608-.6778883.4291657-1.5786114 2.3420263-4.4100443 3.5059222-7.17940665 2.9511848-2.76936233-.5547373-4.93404082-2.7194158-5.48877818-5.4887781-.55473736-2.7693624.60915852-5.6007953 2.95118483-7.1794067.23140493-.1561536.38700233-.4019274.42916567-.6778883.04216333-.275961-.03294622-.5569838-.20716567-.7751117-1.92418362-2.4034723-1.71137541-5.8745818.492-8.025.19178961-.1880682.2998543-.4453871.2998543-.714s-.10806469-.5259318-.2998543-.714c-1.15426462-1.1273236-1.80503715-2.6725611-1.80503715-4.286s.65077253-3.1586764 1.80503715-4.286c.19178961-.1880682.2998543-.4453871.2998543-.714s-.10806469-.5259318-.2998543-.714c-2.20337541-2.1504182-2.41618362-5.6215277-.492-8.025.17421945-.2181279.249329-.4991507.20716567-.7751117-.04216334-.2759609-.19776074-.5217347-.42916567-.6778883-2.34202631-1.5786114-3.50592219-4.4100443-2.95118483-7.17940665.55473736-2.76936233 2.71941585-4.93404082 5.48877818-5.48877818 2.76936235-.55473736 5.60079525.60915852 7.17940665 2.95118483.1561536.23140493.4019274.38700233.6778883.42916567.275961.04216333.5569838-.03294622.7751117-.20716567 2.4031498-1.92404881 5.873919-1.71123495 8.024.492.3994245.38376436 1.0305755.38376436 1.43 0 1.1269779-1.15414836 2.6718858-1.80487572 4.285-1.80487572s3.1580221.65072736 4.285 1.80487572c.3994245.38376436 1.0305755.38376436 1.43 0 2.150081-2.20323495 5.6208502-2.41604881 8.024-.492.2181279.17421945.4991507.249329.7751117.20716567.2759609-.04216334.5217347-.19776074.6778883-.42916567 1.5786114-2.34202631 4.4100443-3.50592219 7.1794067-2.95118483 2.7693623.55473736 4.9340408 2.71941585 5.4887781 5.48877818.5547374 2.76936235-.6091585 5.60079525-2.9511848 7.17940665z"/><circle id="Oval" cx="30" cy="15" r="1"/><circle id="Oval" cx="30" cy="31" r="1"/><circle id="Oval" cx="30" cy="23" r="1"/><circle id="Oval" cx="30" cy="39" r="1"/><circle id="Oval" cx="30" cy="47" r="1"/><circle id="Oval" cx="22" cy="15" r="1"/><circle id="Oval" cx="22" cy="31" r="1"/><circle id="Oval" cx="22" cy="23" r="1"/><circle id="Oval" cx="22" cy="39" r="1"/><circle id="Oval" cx="22" cy="47" r="1"/><circle id="Oval" cx="14" cy="15" r="1"/><circle id="Oval" cx="14" cy="31" r="1"/><circle id="Oval" cx="14" cy="23" r="1"/><circle id="Oval" cx="14" cy="39" r="1"/><circle id="Oval" cx="14" cy="47" r="1"/><circle id="Oval" cx="46" cy="15" r="1"/><circle id="Oval" cx="46" cy="31" r="1"/><circle id="Oval" cx="46" cy="23" r="1"/><circle id="Oval" cx="46" cy="39" r="1"/><circle id="Oval" cx="46" cy="47" r="1"/><circle id="Oval" cx="38" cy="15" r="1"/><circle id="Oval" cx="38" cy="31" r="1"/><circle id="Oval" cx="38" cy="23" r="1"/><circle id="Oval" cx="38" cy="39" r="1"/><circle id="Oval" cx="38" cy="47" r="1"/></g></g></svg>