<svg height="512" viewBox="0 0 60 60" width="512" xmlns="http://www.w3.org/2000/svg"><g id="Page-1" fill="none" fill-rule="evenodd"><g id="021---Smoothie" fill="rgb(0,0,0)" fill-rule="nonzero"><path id="Shape" d="m23 50c-1.6568542 0-3 1.3431458-3 3s1.3431458 3 3 3 3-1.3431458 3-3-1.3431458-3-3-3zm0 4c-.5522847 0-1-.4477153-1-1s.4477153-1 1-1 1 .4477153 1 1-.4477153 1-1 1z"/><path id="Shape" d="m14 26h4c.5522847 0 1-.4477153 1-1s-.4477153-1-1-1h-4c-.5522847 0-1 .4477153-1 1s.4477153 1 1 1z"/><path id="Shape" d="m18 16h-4c-.5522847 0-1 .4477153-1 1s.4477153 1 1 1h4c.5522847 0 1-.4477153 1-1s-.4477153-1-1-1z"/><path id="Shape" d="m14 38h4c.5522847 0 1-.4477153 1-1s-.4477153-1-1-1h-4c-.5522847 0-1 .4477153-1 1s.4477153 1 1 1z"/><path id="Shape" d="m14 34h4c.5522847 0 1-.4477153 1-1s-.4477153-1-1-1h-4c-.5522847 0-1 .4477153-1 1s.4477153 1 1 1z"/><path id="Shape" d="m14 30h4c.5522847 0 1-.4477153 1-1s-.4477153-1-1-1h-4c-.5522847 0-1 .4477153-1 1s.4477153 1 1 1z"/><path id="Shape" d="m57.993 29h-17.993v-5.729l6.864-11.771c.178453-.3090879.1786463-.6898553.0005074-.9991243-.1781389-.3092689-.5076037-.5001532-.8645074-.5008757h-6v-1c-.0033061-2.76005315-2.2399468-4.99669388-5-5h-6v-1c0-1.65685425-1.3431458-3-3-3h-6c-1.6568542 0-3 1.34314575-3 3v1h-6c-2.76005315.00330612-4.99669388 2.23994685-5 5v6h-1c-2.76005315.0033061-4.99669388 2.2399468-5 5v12c.00330612 2.7600532 2.23994685 4.9966939 5 5h1c.00412414 2.8661987 1.75368216 5.4408257 4.417 6.5-.49754315.828074-.5533256 1.8486309-.149 2.726-3.09540879.7922946-5.26242234 3.5788075-5.268 6.774v4c0 1.6568542 1.34314575 3 3 3h30c.699691-.0019524 1.3764463-.2497184 1.912-.7.5354498.448436 1.2105837.6959969 1.909.7h13.358c1.5783154-.0013984 2.8888171-1.2190402 3.006-2.793l1.815-26.069c.0383127-.5539102-.1553628-1.0988191-.5346681-1.5042964-.3793053-.4054774-.9100998-.635027-1.4653319-.6337036zm.007 2-.278 4h-18.438l-.277-4zm-20.232 11.127.364 5.24c-.719293-.5309461-1.534143-.9183394-2.4-1.141.4064389-.8800388.3494862-1.9044383-.152-2.734.8081128-.3144963 1.550223-.7774672 2.188-1.365zm1.824-22.127h-31.592v-8h36.259zm-20.592-17c0-.55228475.4477153-1 1-1h6c.5522847 0 1 .44771525 1 1v1h-8zm-11 6c0-1.65685425 1.34314575-3 3-3h24c1.6568542 0 3 1.34314575 3 3v1h-30zm-3 26c-1.65685425 0-3-1.3431458-3-3v-12c0-1.6568542 1.34314575-3 3-3h1v18zm3 2v-15h30.426l-.29.5c-.0884764.1518227-.1353846.3242791-.136.5v6.282c-.1711478.095028-.3271922.2150102-.463.356-.3765808.4052528-.5690868.9480331-.532 1.5l.549 7.907c-.8004983 1.7985342-2.585366 2.9566993-4.554 2.955h-20c-2.7600532-.0033061-4.99669388-2.2399468-5-5zm25 7c.5522847 0 1 .4477153 1 1s-.4477153 1-1 1h-20c-.5522847 0-1-.4477153-1-1s.4477153-1 1-1zm5 14h-30c-.55228475 0-1-.4477153-1-1v-4c.00330612-2.7600532 2.23994685-4.9966939 5-5h22c1.8091159.0011061 3.4755771.9824581 4.354 2.564l.461 6.643c.007.095.031.184.047.277-.1753452.3128406-.5034342.5092373-.862.516zm18.19-.932c-.0413269.5272946-.4820908.933617-1.011.932h-13.358c-.5289092.001617-.9696731-.4047054-1.011-.932l-1.388-20.068h18.161z"/></g></g></svg>