<svg height="512" viewBox="0 0 50 60" width="512" xmlns="http://www.w3.org/2000/svg"><g id="Page-1" fill="none" fill-rule="evenodd"><g id="024---Coffee" fill="rgb(0,0,0)" fill-rule="nonzero" transform="translate(-1)"><path id="Shape" d="m48.5 39.573c-.201079-1.2931858-1.2089638-2.3115526-2.5-2.526v-4.147c1.1748006-.2987824 2.0557333-1.2731294 2.235-2.472l2.755-19.286c.0482617-.4887621-.2487351-.9456802-.715-1.1l-13-3.713 1.235-3.696c.2034954-.60990277.1013649-1.28044875-.2744788-1.8021127s-.9795657-.83082782-1.6225212-.8308873h-7.226c-.6434844-.00090591-1.2481004.30785771-1.624645.8296692-.3765446.5218115-.4790187 1.19292589-.275355 1.8033308l1.231 3.692-12.858 3.675h-4.832c-.9447383-.00279133-1.87126344.2598512-2.674.758l-5.928 3.649c-1.07775145.6642344-1.62360507 1.9326942-1.365 3.172l3.089 14.446c.50917112 2.324653 2.57024283 3.979756 4.95 3.975h1.89c1.1066514.001111 2.0055916-.8933568 2.01-2v-3c-.0044093-1.107034-.9039585-2.0016627-2.011-2l-.254-.007-1.3-7.67c-.10077524-.5723341.0607434-1.1596746.44-1.6.391946-.4613229.9676638-.7259409 1.573-.723h4.685l1.632 11.424c.1780359 1.200283 1.0591509 2.1764087 2.235 2.476v4.151c-1.2910362.2144474-2.298921 1.2328142-2.5 2.526l-2.473 17c-.1231431.8560998.1323772 1.7234087.7 2.376.5811848.6682116 1.4244093 1.0504003 2.31 1.047h29.926c.8855315.001813 1.7280153-.3818311 2.308-1.051.5676228-.6525913.8231431-1.5199002.7-2.376zm-11.5-2.573h-15v-4h22v4zm-8.9-25h9.8l-1.809 19h-6.182zm18.155 18.142c-.0705879.4920622-.4919007.8575692-.989.858h-7.166l1.809-19h8.938zm-9.642-28.142-1.334 4h-4.558l-1.334-4zm-6.473 6h5.72l7 2h-19.72zm-18.692 9c-1.194246-.0025618-2.32871096.5222197-3.1 1.434-.75565526.8913422-1.07917336 2.0708658-.884 3.223l1.3 7.664c.15804811.97205 1.00019975 1.6843788 1.985 1.679h.251l-.011 3h-1.889c-1.43519828.0068138-2.68097462-.987892-2.992-2.389l-3.09-14.444c-.08630022-.4124992.09527008-.8348301.454-1.056l5.936-3.653c.48633839-.3016256 1.047726-.4603389 1.62-.458h4.1l.714 5zm5.7-5h8.938l1.814 19h-7.166c-.4974285-.0005022-.9188628-.3665407-.989-.859zm.088 45.641c-.1881924-.2132213-.2723969-.4987845-.23-.78l2.472-17c.0835718-.502817.5223462-.8688875 1.032-.861l7.39-.0001251-1.809 19.0001251h-8.054c-.3048131.0013046-.5952068-.1296644-.796-.359zm10.864.359 1.809-19h6.182l1.809 19zm20.659-.359c-.2017086.2303955-.4937936.3614686-.8.359h-8.05l-1.809-19.000059 7.39.000059c.5077697-.0053982.9437103.3600788 1.027.861l2.472 17c.0423969.2812155-.0418076.5667787-.23.78z"/></g></g></svg>