<svg height="512" viewBox="0 0 58 60" width="512" xmlns="http://www.w3.org/2000/svg"><g id="Page-1" fill="none" fill-rule="evenodd"><g id="026---Sausage" fill="rgb(0,0,0)" fill-rule="nonzero"><path id="Shape" d="m57.028 43.3c-.5549978-.3543093-1.2533572-.3977678-1.848-.115l-3.08 1.472c-1.738018-4.0344752-5.7070904-6.6505262-10.1-6.657-15.141 0-20-5.346-20-22-.0063841-4.3932273-2.6229576-8.36249618-6.658-10.1l1.473-3.082c.2837397-.59445462.2402503-1.29330937-.115-1.848-.3988553-.61549308-1.086671-.98207616-1.82-.97h-7.76c-.73156262-.01034365-1.41709355.35602825-1.815.97-.35643033.55526465-.40067732 1.25527474-.117 1.851l1.47 3.079c-4.03504238 1.73750382-6.65161589 5.7067727-6.658 10.1 0 36.366 22.84 44 42 44 4.3929096-.0064738 8.361982-2.6225248 10.1-6.657l3.082 1.472c.2554833.1218255.5349573.1850318.818.185.3645081-.0004016.721387-.104448 1.029-.3.6155841-.398885.9824747-1.0865688.971-1.82v-7.76c.0112567-.7336261-.3560343-1.4213521-.972-1.82zm-25.514-4.624c.6286667.2 1.2876667.3753333 1.977.526l-.491 6.863c-.0408879.5236115-.4748249.9293426-1 .935h-.067c-.5495196-.0441906-.9635324-.5185526-.933-1.069zm-6.182-3.6-5.632 5.624c-.3901539.3883868-1.0208461.3883868-1.411 0-.1896602-.1834979-.2967438-.4361014-.2967438-.7s.1070836-.5165021.2967438-.7l5.732-5.732c.3989161.5339234.8371337 1.0373221 1.311 1.506zm-3.973-7.119-7.192 1.031c-.5523983.0752934-1.0648831-.3013254-1.158-.851-.0384947-.2613808.030399-.5272166.191-.737.1609306-.2131714.399609-.3540779.664-.392l7.011-1c.138.682.304 1.325.484 1.947zm-14.367-25.914c.03458011-.03193476.08115309-.04758038.128-.043h7.76c.0352335.00375591.0707665.00375591.106 0l-1.564 3.277c-1.5954216-.37065472-3.2545784-.37065472-4.85 0zm35.008 55.957c-18.248 0-40-7.287-40-42 .00000007-4.9705627 4.0294373-8.99999987 9-8.99999987s8.9999999 4.02943717 9 8.99999987c-.0229217 2.6898934.1522183 5.3778246.524 8.042l-6.949.988c-.7874103.1127447-1.4978117.5335901-1.975 1.17-.4804637.6330198-.6859026 1.4327901-.57 2.219.2140043 1.477241 1.47735 2.5751181 2.97 2.581.141121-.002006.2820144-.0120221.422-.03l7.593-1.089c.2638516.6704654.5687626 1.324037.913 1.957l-6.041 6.04c-1.1705675 1.1680822-1.1725822 3.0639325-.0045 4.2345s3.0639325 1.1725822 4.2345.0045l5.739-5.74c.8448712.6141682 1.7522355 1.1374027 2.707 1.561l-.563 7.862c-.045293.8036567.2306263 1.5923739.7670219 2.1925367.5363955.6001628 1.2892986.9625757 2.0929781 1.0074633h.14c1.5738199-.0062934 2.8791489-1.2198143 3-2.789l.473-6.644c2.1620852.3043846 4.3436533.4491095 6.527.433 4.9705626.0000001 8.9999997 4.0294374 8.9999997 9s-4.0294371 8.9999999-8.9999997 9zm14-5.12c0 .051-.013.086 0 .106l-3.274-1.564c.3713789-1.5956762.3713789-3.2553238 0-4.851l3.236-1.579c.0301354.035407.0439336.0818851.038.128z"/></g></g></svg>