<svg height="512" viewBox="0 0 60 54" width="512" xmlns="http://www.w3.org/2000/svg"><g id="Page-1" fill="none" fill-rule="evenodd"><g id="027---Porridge" fill="rgb(0,0,0)" fill-rule="nonzero" transform="translate(-1)"><path id="Shape" d="m58 19c-.0032193-2.4213486-1.7380024-4.4937429-4.121-4.923.0803195-.353373.1209046-.7146139.121-1.077.0040203-1.3985646-.5797665-2.7344673-1.6088396-3.68157212-1.0290732-.94710486-2.4087327-1.418255-3.8021604-1.29842788-.5491042-1.26564475-1.5967581-2.24815957-2.895-2.715-.5339771-1.4943544-1.7480434-2.64484661-3.2689314-3.09775521-1.520888-.45290861-3.1665668-.15402618-4.4310686.80475521-.9396588-1.26285729-2.4199113-2.00854283-3.994-2.012-.8226496-.00123385-1.6323098.20513664-2.354.6-1.1023647-1.19658725-2.7214742-1.77646593-4.3328567-1.5517982-1.6113825.22466774-3.0101268 1.22531209-3.7431433 2.6777982-.7734526-.47407746-1.6628187-.72531474-2.57-.726-2.1019035.01149965-3.9745632 1.33002117-4.694 3.305-1.2982419.46684043-2.3458958 1.44935525-2.895 2.715-.136573-.01362141-.2737497-.02029668-.411-.02-2.7600532.00330612-4.99669388 2.2399468-5 5 .00009544.3623861.04068054.723627.121 1.077-2.38299762.4292571-4.1177807 2.5016514-4.121 4.923-1.65685425 0-3 1.3431458-3 3v2c-.1328927 10.381231 5.17864088 20.0744004 14 25.549v1.451c0 1.6568542 1.3431458 3 3 3h26c1.6568542 0 3-1.3431458 3-3v-1.451c8.8213591-5.4745996 14.1328927-15.167769 14-25.549v-2c0-1.6568542-1.3431458-3-3-3zm-49-3c.14770467.005047.29480373.0214285.44.049.38501213.0559156.7678724-.1145039.984-.438.2146215-.3247832.2212543-.7445989.017-1.076-.2886686-.4599058-.44153904-.9920059-.441-1.535 0-1.6568542 1.3431458-3 3-3 .2761348.0052687.5501546.0493677.814.131.2668541.0764811.5534918.0385955.791312-.1045897.2378202-.14318521.4054202-.37878399.462688-.6504103.2429386-1.13931615 1.1258709-2.03356814 2.262-2.291.3768673-.08482747.6711725-.37913267.756-.756.2474449-1.11222359 1.1084092-1.98541733 2.2170324-2.24852374 1.1086231-.26310642 2.2701382.13009796 2.9909676 1.01252374.2542331.30245407.6627162.42685705 1.0423795.31745524.3796632-.10940182.6593137-.4320939.7136205-.82345524.1640437-1.25921826 1.1102603-2.2749678 2.3547064-2.52774237 1.244446-.25277457 2.5119693.31331532 3.1542936 1.40874237.1496379.25170271.4020798.42517093.690698.47462085s.5844084-.03008789.809302-.21762085c.7452273-.64833746 1.7640202-.88374777 2.7181355-.62807375.9541152.25567401 1.7186833.9689711 2.0398645 1.90307375.1246195.35115765.4341432.60390453.8031256.6558058.3689823.05190127.7362191-.10565206.9528744-.4088058.6833427-.95837875 1.8662214-1.42551281 3.0200051-1.19263903 1.1537838.23287378 2.0628734 1.12223997 2.3209949 2.27063903.0848275.37686733.3791327.67117253.756.756 1.1361291.25743186 2.0190614 1.15168385 2.262 2.291.0572678.27162631.2248678.50722509.462688.6504103.2378202.1431852.5244579.1810708.791312.1045897.2640396-.0802766.5380553-.1230285.814-.127 1.6568542 0 3 1.3431458 3 3 .000539.5429941-.1523314 1.0750942-.441 1.535-.1998285.3355158-.1876572.7563138.03123 1.0797185.2188872.3234048.6050193.4910981.99077.4302815.8572247-.1192594 1.7242469.1368743 2.3790516.702814.6548048.5659398 1.0338038 1.386727 1.0399484 2.252186h-50c0-1.6568542 1.34314575-3 3-3zm36 35c0 .5522847-.4477153 1-1 1h-26c-.5522847 0-1-.4477153-1-1v-1h28zm.711-3h-29.422c-8.06326903-4.8934858-13.06470601-13.5699868-13.258-23h41.969c.5522847 0 1-.4477153 1-1s-.4477153-1-1-1h-42v-1c0-.5522847.44771525-1 1-1h54c.5522847 0 1 .4477153 1 1v1h-10c-.5522847 0-1 .4477153-1 1s.4477153 1 1 1h9.969c-.193294 9.4300132-5.194731 18.1065142-13.258 23z"/><path id="Shape" d="m14 12c-.5522847 0-1 .4477153-1 1s.4477153 1 1 1c0 .5522847.4477153 1 1 1s1-.4477153 1-1c.0112942-.5338153-.1957906-1.0491116-.5733395-1.4266605s-.8928452-.5846337-1.4266605-.5733395z"/><path id="Shape" d="m31 7c-.8026156-.02347369-1.5793921.28505273-2.1471697.85283031-.5677776.56777759-.876304 1.34455411-.8528303 2.14716969 0 .5522847.4477153 1 1 1s1-.4477153 1-1c-.0261168-.27418514.0722548-.5456088.267977-.73939318.1957223-.19378439.4681113-.28945048.742023-.26060682.5522847-.00276142.9977614-.45271525.995-1.005s-.4527153-.99776142-1.005-.995z"/><path id="Shape" d="m43 13c-.5522847 0-1 .4477153-1 1s.4477153 1 1 1c0 .5522847.4477153 1 1 1s1-.4477153 1-1c.0112942-.5338153-.1957906-1.0491116-.5733395-1.4266605s-.8928452-.5846337-1.4266605-.5733395z"/><path id="Shape" d="m36 12c-.5522847 0-1 .4477153-1 1 .0261168.2741851-.0722548.5456088-.267977.7393932-.1957223.1937844-.4681113.2894505-.742023.2606068-.3572656.0017863-.6864396.1940359-.8635254.5043301-.1770858.3102943-.1751798.6914921.005 1s.5112598.4974562.8685254.4956699c.8026156.0234737 1.5793921-.2850527 2.1471697-.8528303s.876304-1.3445541.8528303-2.1471697c0-.5522847-.4477153-1-1-1z"/><path id="Shape" d="m25 14.972c-.007732-.5522847-.4617153-.9937319-1.014-.986-.5522847.007732-.993732.4617153-.986 1.014-.0112942.5338153.1957906 1.0491116.5733395 1.4266605s.8928452.5846337 1.4266605.5733395c.5600167 0 1.014-.4539833 1.014-1.014s-.4539833-1.014-1.014-1.014z"/><path id="Shape" d="m22 8c-.5522847 0-1 .44771525-1 1 .0261168.27418514-.0722548.5456088-.267977.73939318-.1957223.19378439-.4681113.28945052-.742023.26060682-.5522847.0027614-.9977614.4527153-.995 1.005s.4527153.9977614 1.005.995c.8026156.0234737 1.5793921-.2850527 2.1471697-.8528303s.876304-1.34455412.8528303-2.1471697c0-.26521649-.1053568-.5195704-.2928932-.70710678s-.4418903-.29289322-.7071068-.29289322z"/><path id="Shape" d="m41 7c-.5338153-.01129421-1.0491116.19579064-1.4266605.5733395s-.5846337.89284524-.5733395 1.4266605c0 .56001674.4539833 1.014 1.014 1.014s1.014-.45398326 1.014-1.014c.5522847-.00773201.9937319-.46171526.986-1.014-.007732-.55228474-.4617153-.99373197-1.014-.986z"/></g></g></svg>