<svg height="512" viewBox="0 0 60 60" width="512" xmlns="http://www.w3.org/2000/svg"><g id="Page-1" fill="none" fill-rule="evenodd"><g id="029---Cafe" fill="rgb(0,0,0)" fill-rule="nonzero"><path id="Shape" d="m54.021 14.309c-.9198731-1.440518-2.5118326-2.3113625-4.221-2.309h-7.8c0-6.627417-5.372583-12-12-12s-12 5.372583-12 12h-7.8c-1.71065707-.002176-3.30369353.8703538-4.223 2.313l-5.517 8.668c-.29944016.4796768-.45877344 1.0335331-.46 1.599v.42c.00681482 1.8184116 1.23931486 3.4034067 3 3.858v28.142c0 1.6568542 1.34314575 3 3 3h48c1.6568542 0 3-1.3431458 3-3v-28.142c1.7606851-.4545933 2.9931852-2.0395884 3-3.858v-.42c-.0015835-.5687643-.1630621-1.1256229-.466-1.607zm-24.021-12.309c5.5228475 0 10 4.4771525 10 10s-4.4771525 10-10 10-10-4.4771525-10-10c.0060624-5.52033443 4.4796656-9.99393763 10-10zm-17 22h10v1c0 1.1045695-.8954305 2-2 2h-6c-1.1045695 0-2-.8954305-2-2zm12 0h10v1c0 1.1045695-.8954305 2-2 2h-6c-1.1045695 0-2-.8954305-2-2zm12 0h10v1c0 1.1045695-.8954305 2-2 2h-6c-1.1045695 0-2-.8954305-2-2zm-35 1v-.42c.00090437-.1883718.0538536-.372829.153-.533l5.508-8.656c.55327329-.8668136 1.51066299-1.3913229 2.539-1.391h7.981c.5542311 3.2703269 2.4363047 6.1658248 5.2 8h-17.381c-.55228475 0-1 .4477153-1 1s.44771525 1 1 1h5v1c0 1.1045695-.8954305 2-2 2h-5c-1.1045695 0-2-.8954305-2-2zm9 33v-20h16v20zm17-22h-19v-2h20v2zm26 22h-25v-20c1.1045695 0 2-.8954305 2-2v-2c0-1.1045695-.8954305-2-2-2h-20c-1.1045695 0-2 .8954305-2 2v2c0 1.1045695.8954305 2 2 2v20h-3c-.55228475 0-1-.4477153-1-1v-28h4c1.1487161.0006041 2.2419626-.4939077 3-1.357.7580374.8630923 1.8512839 1.3576041 3 1.357h6c1.1487161.0006041 2.2419626-.4939077 3-1.357.7580374.8630923 1.8512839 1.3576041 3 1.357h6c1.1487161.0006041 2.2419626-.4939077 3-1.357.7580374.8630923 1.8512839 1.3576041 3 1.357h6c1.1487161.0006041 2.2419626-.4939077 3-1.357.7580374.8630923 1.8512839 1.3576041 3 1.357h4v28c0 .5522847-.4477153 1-1 1zm4-33c0 1.1045695-.8954305 2-2 2h-5c-1.1045695 0-2-.8954305-2-2v-1h5c.5522847 0 1-.4477153 1-1s-.4477153-1-1-1h-17.381c2.7636953-1.8341752 4.6457689-4.7296731 5.2-8h7.981c1.0266367-.0007318 1.9827494.5221894 2.536 1.387l5.505 8.651c.1025682.1622764.1576475.3500312.159.542z"/><path id="Shape" d="m24 17h10c.5522847 0 1-.4477153 1-1s-.4477153-1-1-1h-1.026c.2385732-.3086167.4399609-.6442629.6-1h1.426c1.6529917-.0092882 2.9907118-1.3470083 3-3 0-1.65685425-1.3431458-3-3-3h-1c0-.55228475-.4477153-1-1-1h-8c-.5522847 0-1 .44771525-1 1v4c.0036768 1.0854693.3641933 2.1396111 1.026 3h-1.026c-.5522847 0-1 .4477153-1 1s.4477153 1 1 1zm11-7c.5522847 0 1 .4477153 1 1 .0003954.2693445-.110308.526929-.306.712-.1823963.1865985-.4330776.2906276-.694.288h-1v-2zm-9 2v-3h6v3c0 1.6568542-1.3431458 3-3 3s-3-1.3431458-3-3z"/><path id="Shape" d="m52 47.278v-13.278c0-1.1045695-.8954305-2-2-2h-14c-1.1045695 0-2 .8954305-2 2v13.278c-.6167513.3544126-.997855 1.0106732-1 1.722v2c0 1.1045695.8954305 2 2 2h16c1.1045695 0 2-.8954305 2-2v-2c-.002145-.7113268-.3832487-1.3675874-1-1.722zm-16-2.278h14v2h-14zm14-11v9h-14v-9zm1 17h-16v-2h16z"/><path id="Shape" d="m24 46c-.5522847 0-1 .4477153-1 1v2c0 .5522847.4477153 1 1 1s1-.4477153 1-1v-2c0-.5522847-.4477153-1-1-1z"/></g></g></svg>